<?xml version="1.0" encoding="UTF-8"?>
<!-- Generator: Adobe Illustrator 25.2.1, SVG Export Plug-In . SVG Version: 6.00 Build 0)  -->
<svg xmlns="http://www.w3.org/2000/svg" xmlns:xlink="http://www.w3.org/1999/xlink" version="1.1" id="Capa_1" x="0px" y="0px" viewBox="0 0 512 512" style="enable-background:new 0 0 512 512;" xml:space="preserve" width="512" height="200">
<g>
	<g>
		<g>
			<g>
				<g>
					<path style="fill-rule:evenodd;clip-rule:evenodd;fill:#894A02;" d="M210.559,132.708c0.232,0.008,0.471,0.014,0.698,0.022       c3.416,0.652,5.293,4.111,7.906,6.856c2.966,3.117,6.735,5.56,6.023,12.074c-0.291,2.608-3.44,15.288-6.684,14.927       c-4.509-0.504-0.022-11.602,0.049-16.492c0.03-1.923-0.504-4.881-0.902-5.983C215.647,138.583,211.079,138.847,210.559,132.708       z"/>
					<path style="fill-rule:evenodd;clip-rule:evenodd;fill:#894A02;" d="M193.162,141.056c6.29,5.638,13.903,14.003,12.343,26.262       c-0.439,3.451-2.438,11.772-5.891,11.435c-5.129-0.493-0.48-11.357,0.043-16.136c1.115-10.18-5.175-13.507-6.872-20.514       C192.701,141.536,193.135,141.503,193.162,141.056z"/>
				</g>
				<g>
					<g>
						<path style="fill-rule:evenodd;clip-rule:evenodd;fill:#FDD337;" d="M164.815,137.931c-0.651,1.49-1.31,2.991-1.983,4.507        c0,0-3.667,0.941-4.11,1.913c-0.449,0.986,1.438,3.943,1.438,3.943c-7.165,15.102-16.503,29.329-34.24,30.438        c-14.417,0.905-21.895-6.85-26.623-15.735c-0.857-1.608-1.587-3.279-2.2-4.998c0,0,4.891-7.419,5.37-14.248        c0.496-7.058-2.998-26.079-2.998-26.079c1.716-4.292,3.794-8.267,6.123-11.706c3.173-4.687,6.883-9.126,11.055-13.151        c0,0,9.062,3.52,12.811,0.956c3.801-2.6,5.446-14.32,9.819-16.294c8.289-3.743,17.595-6.266,27.88-7.201        c3.591-0.326,7.101-0.336,10.506-0.073c4.031,0.311,2.886,4.389,6.59,5.392c3.656,0.99,15.406,0.414,15.406,0.414        c4.019,1.874,7.742,4.106,11.055,6.551c9.792,7.238,17.96,18.455,16.354,34.43c-1.029,10.283-6.535,18.677-13.202,23.539        c-1.45,1.057-3.09,2.007-4.874,2.839c-6.104,2.846-14.845,0.854-22.401,0.522C177.645,143.495,176.491,136.4,164.815,137.931z        "/>
						<path style="fill:#894A02;" d="M144.794,124.791c-3.68-5.662-5.848-12.987-6.169-20.495        c-0.606-14.142,3.761-21.348,8.1-29.745c-11.845,4.017-21.906,10.377-30.066,18.245c0.102,2.381,0.431,4.838,0.679,6.772        c1.695,13.262,6.767,22.507,12.599,30.128c6.161,8.044,14.099,15.307,25.53,17.809c1.384,0.31,3.049,0.684,4.695,0.789        c0.924-1.95,1.816-3.917,2.68-5.875c-1.81-1.15-3.734-1.958-5.417-3.286C152.8,135.504,148.239,130.1,144.794,124.791z"/>
						<path style="fill:#894A02;" d="M176.829,134.694c-4.774-4.871-9.108-12.826-9.665-20.931        c-0.978-14.291,5.256-24.527,13.027-30.556c5.388-4.178,12.02-5.711,19.479-7.217c-6.573-3.058-13.984-5.169-21.979-5.789        c-5.134,2.516-9.547,5.727-13.566,9.806c-6.419,6.519-13.103,16.147-12.287,29.172c0.703,11.193,5.687,21.922,12.828,29.091        c0.049-0.119,0.105-0.237,0.159-0.356c9.55,11.32,31.022,11.648,44.341,5.35C196.548,145.431,183.539,141.549,176.829,134.694        z"/>
						<path style="fill:#894A02;" d="M150.694,156.163c-17.335,0.628-29.01-6.349-37.867-15.307        c-6.247-6.317-11.562-13.949-13.345-23.205c-5,12.508-6.861,27.717-2.381,40.319c7.602,6.996,17.9,12.47,30.438,12.712        c9.83,0.194,17.817-3.168,24.034-7.376c1.751-2.411,3.351-4.997,4.846-7.683C154.53,155.468,152.52,156.096,150.694,156.163z"/>
					</g>
					<g>
						<path style="fill-rule:evenodd;clip-rule:evenodd;fill:#894A02;" d="M208.202,99.673c-0.895-4.307,1.565-8.009,3.106-12.2        c1.385-3.774,2.416-8.725,4.83-11.112c1.708-1.681,5.722-2.567,8.863-3.645c6.266-2.152,11.936-3.984,18.394-6.215        c3.103-1.077,6.169-2.742,9.191-2.939c2.839-0.178,4.833,0.453,5.229,1.533c2.069,5.633-14.218,8.432-18.119,9.38        c-3.4,0.83-7.276,1.907-10.948,2.89c-3.515,0.951-7.707,1.649-9.913,3.621c-2.718,2.438-3.421,6.692-4.808,10.062        c-0.706,1.732-1.762,3.23-2.575,4.846C210.839,97.131,210.691,99.962,208.202,99.673z"/>
						<path style="fill-rule:evenodd;clip-rule:evenodd;fill:#894A02;" d="M229.146,104.194c-0.038-3.462,3.225-6.155,5.822-8.631        c2.901-2.764,8.071-7.912,12.82-7.755c3.855,0.129,7.233,1.533,10.818,2.371c7.284,1.7,12.753,2.982,19.862,5.746        c3.427,1.331,7.785,2.57,7.591,5.097c-0.523,6.856-17.321-1.412-19.245-2.225c-2.963-1.253-6.411-2.368-10.088-3.402        c-3.206-0.897-7.766-2.643-10.816-2.368c-3.605,0.321-6.304,3.408-8.556,5.406        C234.706,100.77,233.505,103.141,229.146,104.194z"/>
						<g>
							<path style="fill-rule:evenodd;clip-rule:evenodd;fill:#C1C1FB;" d="M237.214,122.773         c-3.357-2.883-3.488-13.618,0.703-14.369C244.714,107.187,243.499,123.665,237.214,122.773z"/>
							<path style="fill-rule:evenodd;clip-rule:evenodd;fill:#894A02;" d="M209.414,93.392c6.239-0.549,13.911,0.315,18.178,2.543         c7.155,3.736,16.211,15.312,9.525,26.542c-6.182,10.404-29.234,14.52-41.615,8.812c-6.961-3.203-13.264-12.683-9.259-23.024         c2.209-5.716,9.819-11.487,15.77-13.652C204.234,93.801,206.561,93.637,209.414,93.392z"/>
							<path style="fill-rule:evenodd;clip-rule:evenodd;fill:#C1C1FB;" d="M198.733,102.111c5.242-0.436,5.517,3.513,5.719,9.962         c0.097,3.055,0.98,6.648,0.479,9.135c-0.765,3.79-4.402,5.56-6.446,5.455C189.509,126.213,187.311,103.06,198.733,102.111z"/>
						</g>
					</g>
				</g>
				<g>
					<path style="fill-rule:evenodd;clip-rule:evenodd;fill:#894A02;" d="M179.081,128.786c2.244,0.784,0.601,3.269,0.248,4.216       c-2.221,5.951-4.456,10.49-3.974,18.849c0.283,4.938,2.336,9.719,4.577,13.798c1.6,2.904,6.972,9.585,3.922,12.02       c-4.499,3.596-9.108-6.379-10.651-9.38c-3.085-5.983-6.781-13.354-4.035-21.5c2.249-6.678,5.856-10.913,8.491-17.335       C177.659,129.454,178.039,128.487,179.081,128.786z"/>
					<path style="fill-rule:evenodd;clip-rule:evenodd;fill:#894A02;" d="M159.544,133.901c2.337,1.257,0.288,4.421-0.135,5.611       c-1.466,4.13-3.187,7.871-2.821,15.018c0.569,11.088,7.421,19.264,13.028,26.981c1.255,1.732,4.701,7.069,0.135,8.771       c-4.391,1.64-9.83-6.651-12.378-10.474c-3.585-5.396-7.651-11.963-7.548-21.235c0.111-10.447,4.407-17.612,7.95-24.013       C157.775,134.561,158.348,133.399,159.544,133.901z"/>
					<path style="fill-rule:evenodd;clip-rule:evenodd;fill:#894A02;" d="M133.938,152.597c3.548-2.882,3.192,2.667,2.661,6.029       c-1.398,8.868-5.498,20.134-2.454,28.711c2.292,6.449,7.774,11.411,9.7,19.533c0.345,1.441,1.482,6.053-1.913,6.616       c-3.879,0.649-7.783-6.594-10.271-10.422c-3.634-5.571-6.85-10.945-7.295-17.367c-0.493-6.999,2.974-13.165,4.657-18.482       C130.635,162.125,130.987,155.131,133.938,152.597z"/>
				</g>
				<g>
					<path style="fill-rule:evenodd;clip-rule:evenodd;fill:#C1C1FB;" d="M120.181,0.734c12.647,2.335,23.121,10.204,30.944,17.545       c6.142,5.767,11.813,12.26,17.095,18.434c7.263,8.502,15.519,19.07,20.729,30.556c1.438,3.187,4.55,9.752,1.74,12.273       c-3.462,3.111-11.327-5.245-13.027-6.559c-12.346-9.531-23.609-18.378-36.838-27.044       c-13.319-8.728-26.357-16.427-41.116-25.058c-4.792-2.807-10.686-5.668-9.684-10.307c1.024-4.757,9.892-8.645,13.959-9.663       C109.103-0.362,115.173-0.187,120.181,0.734z"/>
					<path style="fill-rule:evenodd;clip-rule:evenodd;fill:#C1C1FB;" d="M80.726,20.569c1.363,0.202,5.485,1.255,8.052,2.465       c7.499,3.545,14.544,8.709,21.518,13.561c16.651,11.562,34.279,23.401,51.14,35.456c3.362,2.4,6.25,5.255,9.499,7.314       c4.44,2.807,11.379,5.03,10.228,9.73c-1.123,4.593-8.187,4.264-12.761,4.531c-23.42,1.371-52.565-1.061-78.797-14.585       C77.823,72.97,67.75,65.596,64.741,56.025C61.347,45.245,63.796,18.061,80.726,20.569z"/>
				</g>
			</g>
			<g>
				<path style="fill-rule:evenodd;clip-rule:evenodd;fill:#FFFFFF;" d="M69.353,47.64c3.159-3.159,5.692,1.562,7.567,4.086      c1.859,2.473,7.941,11.293,0.342,10.565c-2.794-0.264-3.761-3.877-5.593-6.724C69.598,52.343,67.201,50.304,69.353,47.64z"/>
				<path style="fill-rule:evenodd;clip-rule:evenodd;fill:#FFFFFF;" d="M71.056,41.772c-2.547-0.922-2.522-5.31-0.539-6.915      C75.184,32.171,76.818,42.769,71.056,41.772z"/>
			</g>
			<g>
				<path style="fill-rule:evenodd;clip-rule:evenodd;fill:#FFFFFF;" d="M132.187,12.776c-0.371,2.968-3.971,2.168-6.341,1.786      c-2.341-0.377-10.385-1.985-5.819-5.635c1.681-1.344,4.138,0.129,6.662,0.719C129.544,10.316,131.955,10.165,132.187,12.776z"/>
				<path style="fill-rule:evenodd;clip-rule:evenodd;fill:#FFFFFF;" d="M134.374,16.914c1.709-0.733,4.216,1.576,3.979,3.513      C137.163,24.253,130.668,19.432,134.374,16.914z"/>
			</g>
		</g>
		<g>
			<g>
				<g>
					<g>
						<path style="fill-rule:evenodd;clip-rule:evenodd;fill:#8CA704;" d="M458.741,55.002c-0.243,0.467-0.536-2.064-0.536-2.064        c-1.588,4.41-2.322,11.669-5.302,16.219c-7.079,10.797-25.448,11.069-36.218,18.31c-6.447,4.326-11.969,12.429-14.646,19.951        c-3.68,10.323-2.117,23.471-5.52,34.451c-2.551,8.24-7.804,13.227-11.123,21.502c4.87,0.455,8.397-3.381,11.158-5.705        c6.109-5.148,13-11.196,16.842-18.93c1.894-3.804,2.912-8.281,5.652-12.324c5.493-8.135,16.047-10.622,24.393-16.707        c14.476-10.561,19.236-31.068,16.171-54.226l-0.567-1.388C459.045,54.091,458.741,55.581,458.741,55.002z"/>
						<path style="fill:#5E7D00;" d="M389.022,156.239c6.196-5.687,12.039-11.433,15.921-19.77        c2.721-5.846,4.116-12.079,6.401-17.701c2.271-5.617,4.814-10.91,8.965-15.301c5.614-5.94,13.558-8.424,20.627-13.757        c10.611-8.014,14.754-20.807,17.27-36.771c0.194-0.55,0.404-1.061,0.641-1.509c0.172,0.378,0.27,0.61,0.377,1.374        c0.14,0.897,0.266,1.791,0.388,2.68c-1.008,13.321-4.337,25.034-10.905,32.399c-5.353,5.999-13.397,8.981-20.198,14.229        c-3.666,2.834-7.187,6.713-9.62,10.754c-5.824,9.687-7.238,22.232-13.518,32.199c-2.815,4.477-6.072,8.914-9.719,12.553        c-1.565,1.562-3.351,3.314-5.399,4.798c-1.46,0.706-3.063,1.123-4.857,0.956C386.461,160.729,387.719,158.423,389.022,156.239        z"/>
					</g>
					<g>
						<path style="fill-rule:evenodd;clip-rule:evenodd;fill:#8CA704;" d="M360.586,89.779c-0.582,1.589-1.216,3.035-2.03,4.294        c-1.299,2.009-1.819,4.847-2.852,6.14c-0.798,0.999-2.462,0.911-2.462,0.911c-2.178,2.567-4.366,5.212-5.953,8.685        c-4.348,9.523-0.356,20.521-4.418,30.898c-3.05,7.788-11.788,12.939-16.896,19.832c-5.657,7.642-9.501,17.098-10.094,27.429        c-0.369,6.508,0.116,14.199,3.408,20.047c2.748-1.837,3.413-5.98,4.593-9.679c3.612-11.292,7.341-18.159,15.444-26.227        c9.431-9.377,21.238-16.446,23.418-31.653c1.64-11.446-2.581-20.293-4.178-30.473c-0.137-0.873-0.269-1.832-0.302-2.729        C358.006,100.484,360.708,95.503,360.586,89.779z"/>
						<path style="fill:#5E7D00;" d="M318.837,199.863c1.158-20.708,9.816-33.7,19.635-44.952c4.2-4.811,8.682-9.34,11.171-14.28        c4.763-9.439,0.633-22.426,2.317-33.729c0.307-2.034,0.751-3.944,1.282-5.778c1.864-2.198,3.753-4.391,5.334-7.101        c-1.412,3.567-2.729,7.128-3.359,11.258c-1.727,11.266,1.643,20.931,0.127,30.252c-1.943,11.953-11.123,18.797-17.27,26.577        c-4.512,5.716-8.984,12.227-11.492,20.131c-1.501,4.711-1.902,9.76-2.392,15.177c-0.105,0.31-0.205,0.606-0.307,0.919        c-1.129,3.553-1.813,7.484-4.289,9.423C318.312,205.328,318.722,201.958,318.837,199.863z"/>
					</g>
					<g>
						<path style="fill-rule:evenodd;clip-rule:evenodd;fill:#8CA704;" d="M298.142,177.798l6.128-9.704l-0.082-1.303        c-1.796,1.73-3.345,3.924-5.487,5.331c-10.32,6.805-22.394,9.173-24.818,24.35c-0.9,5.654,0.937,8.456-0.393,15.333        c-1.094,5.673-5.161,10.517-7.621,15.374c-2.688,5.307-5.167,10.724-5.046,17.777c0.151,8.736,5.719,14.584,8.259,22.122        c1.153,3.437,1.826,7.575,2.101,10.953c0.28,3.51-1.04,7.521,1.177,11.349c3.483-2.325,3.769-6.891,4.644-10.576        c1.759-7.378,4.17-15.958,4.572-25.481c0.186-4.547-0.563-9.428,0.318-13.973c2.069-10.665,13.332-17.389,15.247-30.753        c1.026-7.155-1.43-14.97-0.108-22.577c0.231-1.333,0.641-2.649,1.138-3.905L298.142,177.798z"/>
						<path style="fill:#5E7D00;" d="M272.778,273.601c-0.049-7.185-2.282-13.984-2.427-21.346        c-0.313-15.301,8.074-22.232,9.092-33.807c0.431-4.86-0.743-7.974-0.178-13.1c2.063-18.738,18.714-23.609,24.923-38.557        c0.234-0.224,0.46-0.46,0.717-0.644c0.196-0.14,0.276-0.217,0.509-0.259c-0.757,5.444-5.04,10.668-7.252,16.25        c-5.843,6.646-12.575,12.418-14.277,21.211c-1.096,5.684,0.426,12.257-0.569,18.477c-1.425,8.946-7.836,16.982-8.623,25.252        c-0.536,5.789,0.892,11.966,1.711,18.148c0.555,4.219,0.884,8.566,0.808,12.72c-0.07,0.285-0.137,0.579-0.207,0.857        c-0.875,3.685-1.161,8.251-4.644,10.576c-0.474-0.83-0.784-1.665-0.983-2.5c0.116-0.536,0.229-1.072,0.307-1.6        C272.239,281.548,272.81,277.496,272.778,273.601z"/>
					</g>
					<g>
						<path style="fill-rule:evenodd;clip-rule:evenodd;fill:#8CA704;" d="M313.891,215.842c9.878,2.233,17.23,6.686,23.226,12.567        c6.228,6.107,8.93,14.598,20.312,16.47c6.727,1.113,13.512-0.641,20.742,0.245c13.025,1.597,17.203,11.521,26.604,16.817        c-0.768-2.855-2.936-4.45-4.103-7.448c-4.429-11.427-3.629-26.23-16.831-30.271c-5.988-1.834-13.211,0.647-19.323-1.519        c-5.986-2.12-9.102-10.299-15.479-13.949C337.691,202.26,317.903,207.128,313.891,215.842z"/>
						<path style="fill:#5E7D00;" d="M318.013,211.136c9.159-0.612,18.897,4.518,24.579,8.098c5.083,3.2,9.719,7.755,15.253,9.87        c5.091,1.948,9.886,1.412,14.331,2.147c16.54,2.745,21.465,17.399,30.801,27.17c0.746,1.08,1.433,2.155,1.8,3.521        c-4.38-2.47-7.64-5.943-11.18-9.113c-2.721-3.564-5.393-7.33-8.949-10.508c-6.853-6.113-13.55-6.263-23.059-7.591        c-10.107-1.406-14.563-7.57-21.896-12.044c-5.485-3.343-12.796-6.659-19.479-6.948c-1.719-0.07-3.259,0.197-4.701,0.525        c-0.539-0.135-1.061-0.294-1.622-0.42C314.689,214.097,316.135,212.513,318.013,211.136z"/>
					</g>
					<g>
						<path style="fill-rule:evenodd;clip-rule:evenodd;fill:#8CA704;" d="M242.739,233.943c0.004,0.103,0.535,3.39,0.535,3.39        l0.39,2.225c0.279,3.536-1.183,0.241-1.183,0.241c0.038,1.767,0.002,3.709-0.182,5.487        c-1.447,13.927-9.609,26.343-7.667,40.647c0.859,6.352,5.433,11.961,5.781,17.925c0.345,5.921-2.551,10.377-4.472,15.552        c-2.718,7.319-5.086,17.262-2.29,25.152c1.034,2.926,3.564,6.67,5.8,9.348c2.028,2.432,4.908,6.387,8.725,5.45        c2.061-1.374,0.62-4.421,0.323-5.854c-1.067-5.207-3.41-10.786-3.082-17.771c0.816-17.292,16.322-25.597,18.167-42.784        c2.554-23.764-14.02-33.891-18.812-54.022c-0.627-2.634-1.389-3.848-1.389-3.848L242.739,233.943z"/>
						<path style="fill:#5E7D00;" d="M242.403,229.351c0.032,3.595,0.016,7.304,0.081,10.518c0.614,3.852,1.379,7.632,2.19,11.411        c2.589,12.063,8.55,22.259,6.005,38.25c-2.08,13.151-11.775,24.829-11.786,41.779c0,6.145,1.73,12.052,3.982,17.828        c1.277,3.273,2.75,7.704,5.458,10.102c1.818-1.42,0.453-4.342,0.17-5.732c-0.506-2.459-1.293-5.011-1.947-7.742        c-2.285-5.603-4.009-12.068-2.815-20.505c2.225-15.635,12.443-28.25,11.066-44.976c-0.792-9.647-4.633-17.989-7.085-27.025        c-1.298-4.806-2.198-9.679-3.014-14.684c-0.453-1.991-0.864-3.474-1.406-5.79L242.403,229.351z"/>
					</g>
					<g>
						<path style="fill-rule:evenodd;clip-rule:evenodd;fill:#8CA704;" d="M379.182,283.999c-0.297-0.014-0.601-0.03-0.903-0.048        c0.577,10.827,9.889,15.419,13.556,24.223c4.674,11.196,0.094,25.947,3.839,36.771c2.15,6.201,7.284,11.613,13.607,15.198        c4.404,2.497,9.628,3.577,11.751,7.869c2.801,5.673,1.32,14.975,2.834,22.275c0.052,0.256,0.12,0.496,0.187,0.737l1.488,0.021        l0.999,3.717c1.412-6.87,6.164-12.165,8.497-18.75c7.586-21.44-14.813-26.774-20.312-40.849        c-2.737-6.999-0.789-13.149-1.659-19.051c-2.4-16.252-16.729-27.466-33.433-32.086        C379.486,284.018,379.33,284.01,379.182,283.999z"/>
						<path style="fill:#5E7D00;" d="M378.614,286.496c12.699,5.223,21.661,16.705,24.525,29.522        c1.509,6.729,0.822,14.102,3.289,22.297c2.71,9.054,15.869,13.881,20.077,20.524c3.351,5.296,3.47,12.674,2.551,19.094        c-0.757,5.312-3.09,10.25-2.669,15.654c0.032,0.404,0.092,0.781,0.156,1.161c-0.191,0.932-0.326,1.891-0.38,2.89        c0.043-2.268-1.401-4.076-2.115-6.629c0.102-9.339,4.135-20.678,0.008-28.695c-3.351-6.5-14.474-11.274-19.309-18.224        c-4.857-6.98-4.097-15.872-5.428-24.22c-1.304-8.176-4.431-15.576-9.703-20.4c-2.082-1.896-4.943-3.413-7.537-5.102        C380.486,292.051,379.204,289.519,378.614,286.496z"/>
					</g>
				</g>
				<path style="fill-rule:evenodd;clip-rule:evenodd;fill:#5E7D00;" d="M460.98,184.254c-8.682-15.061-24.751-28.323-47.032-31.041      c-12.729-1.549-24.835,1.808-35.944,5.234c-60.444,18.636-89.831,81.219-112.12,141.857      c-19.606,53.346-37.073,111.069-48.478,174.714c-1.867,10.412-3.125,19.762-5.39,32.197c-0.205,1.11-0.496,2.4-0.83,3.814      c2.667,0.299,5.331,0.622,7.992,0.97c11.368-58.973,23.401-118.197,41.243-170.019c6.511-18.903,13.394-37.288,23.692-52.858      c5.945,1.627,5.845,10.584,5.797,17.475c-0.011,2.139-1.075,5.073,0.528,6.802c4.003-1.15,4.256-8.157,4.318-12.852      c0.11-7.691-2.117-15.118-8.071-17.146c6.298-11.492,14.627-20.84,26.787-27.41c6.848-3.699,15.584-7.421,22.154-0.582      c7.661,7.984,4.542,26.812,7.303,39.225c3.071-1.148,2.505-5.514,2.729-8.426c1.069-14.267,0.428-28.633-6.611-35.572      c23.633,4.019,32.824,21.661,38.315,41.838c4.286,15.77,5.366,32.323,5.684,52.228c0.046,3.022-0.159,6.325-0.07,9.469      c0.065,2.293-0.512,5.996,1.826,7.777c2.608-1.686,1.991-5.431,2.247-8c3.389-33.66-0.668-74.738-20.398-96.367      c-7.128-7.815-18.879-14.151-33.98-14.067c-18.574,0.094-33.665,11.327-43.748,23.762c-0.364,0.062-0.471,0.418-0.919,0.396      c16.228-37.746,40.017-78.186,77.949-95.448c13.364-6.077,41.601-8.429,43.654,10.538c0.38,3.577-1.81,8.623,0.655,12.677      c5.822-4.483,4.461-19.088,0.016-24.821c-3.944-5.083-10.21-7.308-16.678-8.599c27.841-8.378,53.591,8.631,64.453,26.133      c1.441,2.322,2.802,4.967,4.108,7.451c1.199,2.293,1.729,5.786,4.577,7.023C468.036,195.677,464.014,189.507,460.98,184.254z"/>
				<g>
					<g>
						<g>
							<path style="fill-rule:evenodd;clip-rule:evenodd;fill:#FDD337;" d="M277.703,377.869c-0.447-0.067-0.895-0.132-1.342-0.197         c-2.939,11.002-3.556,25.115-7.405,34.896c-1.312,1.132-2.68,0.943-3.96,2.15c-1.021,0.967-2.123,1.608-1.991,4.267         c7.761,4.585,10.029-5.932,11.457-12.893c1.807-8.798,2.551-19.671,3.488-26.82         C277.762,378.876,277.587,378.48,277.703,377.869z"/>
							<path style="fill-rule:evenodd;clip-rule:evenodd;fill:#FDD337;" d="M284.575,380.7c-0.445-0.065-0.897-0.135-1.342-0.199         c-2.454,11.877-9.256,31.574-5.908,43.322c0.744,2.61,2.543,6.573,6.473,5.506c1.835-4.407-1.231-7.896-3.971-10.15         C277.98,407.304,283.551,392.846,284.575,380.7z"/>
						</g>
						<path style="fill-rule:evenodd;clip-rule:evenodd;fill:#8888D0;" d="M260.912,383.598c12.033,2.438,25.3,3.96,37.328,6.395        c4.291-20.001,7.424-46.272,4.779-63.523c-1.056-6.864-2.624-20.422-12.602-19.619c-4.197,0.337-8.984,7.494-11.268,11.557        C269.451,335.645,265.144,361.746,260.912,383.598z"/>
					</g>
					<g>
						<g>
							<path style="fill-rule:evenodd;clip-rule:evenodd;fill:#FDD337;" d="M339.278,360.784c-0.517-0.102-0.805,0.057-0.924,0.404         c-3.338,13.986-5.32,36.72-1.888,50.445c0.948,3.782,2.821,10.867,7.551,10.35c3.246-2.195,1.156-5.641-0.024-7.675         c-1.374-2.371-3.903-4.084-5.102-5.7C336.164,395.166,340.164,374.598,339.278,360.784z"/>
							<path style="fill-rule:evenodd;clip-rule:evenodd;fill:#FDD337;" d="M333.406,360.914c-0.722-0.17-0.803,0.383-1.374,0.372         c-1.748,11.266-1.697,24.554-5.046,34.028c-1.953,2.021-6.274,3.734-4.523,8.324c5.102,1.778,6.643-4.221,8.173-9.024         c2.621-8.232,4.606-22.65,3.144-32.329C333.95,361.566,333.4,361.49,333.406,360.914z"/>
						</g>
						<path style="fill-rule:evenodd;clip-rule:evenodd;fill:#8888D0;" d="M316.402,366.293c12.893,1.859,26.397,3.176,39.933,4.464        c4.184-25.731,5.932-62.672-4.704-78.35c-1.869-2.758-4.881-6.775-10.972-5.571c-4.51,0.889-8.903,9.275-11.171,14.277        C321.286,319.175,318.652,344.015,316.402,366.293z"/>
					</g>
					<g>
						<g>
							<path style="fill-rule:evenodd;clip-rule:evenodd;fill:#FDD337;" d="M411.672,258.464c-0.41,0.175-0.825,0.348-0.946,0.849         c-0.434,10.242-2.276,25.613,0.781,34.799c1.436,4.305,5.514,10.697,11.732,8.324c1.767-5.056-3.084-7.755-8.13-8.127         C411.258,284.78,413.477,269.824,411.672,258.464z"/>
							<path style="fill-rule:evenodd;clip-rule:evenodd;fill:#FDD337;" d="M403.276,242.433c0.431,0.127,0.87,0.234,1.051,0.716         c1.791,10.091,5.673,25.082,3.868,34.594c-0.846,4.461-4.035,11.335-10.511,9.808c-2.433-4.771,2.023-8.092,6.969-9.132         C407.198,268.458,403.004,253.936,403.276,242.433z"/>
						</g>
						<path style="fill-rule:evenodd;clip-rule:evenodd;fill:#8888D0;" d="M386.77,270.692c12.955,1.374,26.087,2.592,40.004,3.114        c3.372-23.504,5.644-65.746-5.329-83.347c-2.731-4.394-6.627-8.647-14.45-8.02c-9.159,4.566-13.493,16.171-16.492,28.873        C386.167,229.678,384.262,252.522,386.77,270.692z"/>
					</g>
					<g>
						<g>
							<path style="fill-rule:evenodd;clip-rule:evenodd;fill:#FDD337;" d="M466.098,263.079c-0.372-0.108-0.431,0.151-0.474,0.423         c-2.979,15.481-4.838,40.211,1.595,52.901c1.552,3.065,4.835,7.405,9.197,5.019c1.112-4.547-2.365-8.337-7.645-8.542         c-3.41-8.744-3.86-22.585-2.987-35.825C466.109,272.068,467.742,265.942,466.098,263.079z"/>
							<path style="fill-rule:evenodd;clip-rule:evenodd;fill:#FDD337;" d="M458.825,264.027c-0.716-0.164-0.795,0.385-1.371,0.377         c0.188,13.696-0.797,29.923-4.515,40.825c-2.761,1.099-9.628,3.626-5.45,8.731c7.543,0.452,10.334-9.997,11.473-19.684         C460.156,284.142,460.372,271.686,458.825,264.027z"/>
						</g>
						<path style="fill-rule:evenodd;clip-rule:evenodd;fill:#8888D0;" d="M439.828,272.909c14.552,0.808,29.104,1.608,43.654,2.414        c1.638-15.056,2.71-32.337,0.816-47.349c-1.794-14.207-6.104-28.229-13.413-35.047c-2.252-2.098-6.527-4.841-11.554-3.349        c-4.628,1.377-8.176,8.801-10.291,14.781C442.347,223.194,441.092,250.326,439.828,272.909z"/>
					</g>
					<g>
						<g>
							<path style="fill-rule:evenodd;clip-rule:evenodd;fill:#FDD337;" d="M377.593,426.875c-0.415,0.164-0.838,0.326-0.973,0.824         c-1.438,12.066,0.803,23.223-1.57,34.691c0.086,1.783-1.633,0.417-2.317,0.708c-2.266,0.983-5.342,6.678-2.109,8.874         c6.066,1.404,7.81-5.423,8.51-9.687c1.746-10.673,0.016-25.815-1.204-34.023         C378.118,427.543,377.568,427.454,377.593,426.875z"/>
							<path style="fill-rule:evenodd;clip-rule:evenodd;fill:#FDD337;" d="M385.639,428.009c-0.601,0.108-0.773,0.725-1.423,0.781         c-1.007,13.706-3.079,29.209,0.262,39.823c1.218,3.871,3.618,9.151,8.413,7.497c2.344-3.443-0.617-8.316-5.646-8.168         C383.813,457.081,386.857,440.74,385.639,428.009z"/>
						</g>
						<path style="fill-rule:evenodd;clip-rule:evenodd;fill:#8888D0;" d="M358.873,434.345c14.978,1.274,28.886,1.282,44.088,2.812        c2.198-23.436,1.231-52.713-4.72-72.766c-2.039-6.861-5.334-18.838-14.843-17.082c-5.991,1.099-10.172,8.558-12.513,14.323        C362.952,381.139,361.131,410.257,358.873,434.345z"/>
					</g>
				</g>
			</g>
			<g>
				<g>
					<path style="fill-rule:evenodd;clip-rule:evenodd;fill:#FFFFFF;" d="M367.162,413.775c3.904,0,3.607,3.99,3.809,6.845       c0.207,2.807,0.557,12.559-4.916,8.278c-2.018-1.576-0.986-4.819-0.997-7.909C365.05,417.5,364.552,413.902,367.162,413.775z"/>
					<path style="fill-rule:evenodd;clip-rule:evenodd;fill:#FFFFFF;" d="M371.343,410.1c-1.256-1.292,0.704-5.915,2.974-5.568       C378.202,405.402,375.279,413.691,371.343,410.1z"/>
				</g>
				<g>
					<path style="fill-rule:evenodd;clip-rule:evenodd;fill:#FFFFFF;" d="M471.562,230.292c-6.347-0.461-1.622-15.088,2.19-14.555       C478.757,216.438,477.006,230.683,471.562,230.292z"/>
					<path style="fill-rule:evenodd;clip-rule:evenodd;fill:#FFFFFF;" d="M468.38,210.264c-1.941-1.287-3.243-4.428-1.021-6.395       c3.64-2.875,5.832,2.471,5.063,5.583C472.032,210.764,470.427,211.539,468.38,210.264z"/>
				</g>
				<g>
					<path style="fill-rule:evenodd;clip-rule:evenodd;fill:#FFFFFF;" d="M342.775,293.285c0.831-2.273,1.885-1.136,2.662-0.191       c1.5,1.829,2.898,5.606,0.466,6.457C343.208,300.488,341.87,296.73,342.775,293.285z"/>
					<path style="fill-rule:evenodd;clip-rule:evenodd;fill:#FFFFFF;" d="M349.332,304.648c5.632-4.181,9.065,12.079,3.971,12.696       C349.041,317.861,345.787,308.238,349.332,304.648z"/>
				</g>
				<g>
					<path style="fill-rule:evenodd;clip-rule:evenodd;fill:#FFFFFF;" d="M291.611,319.135c5.995-4.54,9.062,12.077,3.971,12.693       C291.325,332.345,288.616,322.076,291.611,319.135z"/>
				</g>
			</g>
		</g>
		<g>
			<g>
				<g>
					<path style="fill-rule:evenodd;clip-rule:evenodd;fill:#8CA704;" d="M29.465,308.402c-0.905-0.038-1.062,0.323-1.062,0.323       s-0.708,0.747-0.391,1.062c2.598,2.587,4.949,5.441,7.05,8.417c0,0,2.024,0.154,2.51,0.889       c0.452,0.682,0.296,3.332,0.296,3.332c2.269,3.599,4.369,7.336,6.468,11.068c0,0,1.69,0.245,1.917,0.648       c0.597,1.06,0.55,3.681,0.55,3.681c2.282,3.906,4.697,7.673,7.505,11.047c0,0,1.465,0.187,1.947,0.715       c0.614,0.673,1.37,2.842,1.37,2.842c2.246,2.165,4.734,4.137,7.632,5.729c3.95,2.167,8.298,3.432,12.727,4.425       c0,0,1.932-0.484,2.817-0.304c0.819,0.167,2.249,1.346,2.249,1.346c5.164,1.006,10.347,1.973,15.091,3.821       c0,0,2.855-1.126,3.189-0.985c1.397,0.593,1.661,3.258,1.661,3.258c3.507,1.983,6.146,4.318,8.854,7.28       c3.641,3.992,6.761,8.77,11.87,11.596c0,0,2.242-0.662,2.993-0.364c0.921,0.365,2.102,2.275,2.102,2.275       c1.378,0.302,2.873,0.498,4.521,0.523c6.406,0.105,12.831-1.317,19.056-2.446c1.569-0.285,3.138-0.551,4.701-0.792       c0,0,3.327-1.786,4.803-1.958c1.232-0.143,3.273,1.026,3.273,1.026c2.09-0.163,4.271-0.288,6.492-0.3       c14.027-0.067,23.094,3.995,32.186,9.913c-0.671-13.652-3.882-25.88-11.947-33.366c-3.995-3.701-9.051-5.873-14.606-7.85       c-0.575-0.205-1.128-0.417-1.665-0.625c0,0-2.002,0.789-2.719,0.468c-0.891-0.399-2.071-2.667-2.071-2.667       c-2.727-1.486-5.055-3.246-7.508-5.681c-1.859-1.835-3.79-3.642-5.603-5.754c-0.155-0.181-0.315-0.38-0.47-0.562       c0,0-1.781,0.289-2.325-0.36c-0.619-0.738-1.175-3.781-1.175-3.781c-6.153-7.264-12.682-14.219-23.463-16.71       c0,0-1.979,1.016-2.761,0.889c-0.851-0.139-2.159-1.654-2.159-1.654c-0.526-0.049-1.056-0.122-1.6-0.151       c-7.476-0.407-13.973,1.347-21.637,0.962c-0.879-0.044-1.743-0.136-2.589-0.254c0,0-1.642,0.67-2.411,0.502       c-0.875-0.191-2.511-1.604-2.511-1.604c-4.114-1.244-7.89-3.166-11.565-5.166c0,0-1.873,0.174-2.603-0.226       c-0.812-0.446-2.016-2.293-2.016-2.293c-2.45-1.307-4.91-2.523-7.43-3.446c-0.508-0.187-1.019-0.34-1.539-0.514       c0,0-2.005,0.379-2.751,0.169c-0.809-0.228-1.932-1.487-1.932-1.487c-2.036-0.449-4.171-0.77-6.43-0.891       c-7.149-0.385-13.12,0.859-19.012,2.033C35.339,307.25,33.74,308.203,29.465,308.402z"/>
					<path style="fill:#5E7D00;" d="M27.098,308.214c4.27-0.202,8.227-0.964,12.23-1.759c3.887,0.908,7.395,2.133,10.487,3.787       c3.357,1.794,5.881,3.814,8.599,5.956c0.913,0.719,1.95,1.613,2.794,1.705c0.434-3.769,1.904-8.434,3.577-12.596       c1.627,0.361,3.182,0.816,4.687,1.32c-1.91,4.614-3.187,9.331-4.175,14.681c3.384,2.893,7.265,5.285,11.6,7.228       c-0.272-6.519,0.409-12.426,1.53-17.954c1.538,0.824,3.074,1.678,4.631,2.524c-1.194,5.816-1.918,11.963-1.008,17.545       c4.426,1.853,9.798,2.74,15.231,3.567c-1.562-4.334-2.618-8.898-2.648-15.411c0-0.164-0.006-0.356-0.011-0.534       c1.584,0.48,3.225,0.862,4.924,1.102c0.221,6.094,1.118,12.206,3.305,15.676c5.288,0.821,10.972,1.694,15.436,3.138       c1.552,0.498,2.858,1.331,4.299,1.471c-0.919-8.168,0.666-14.714,2.78-20.845c1.735,0.162,3.378,0.41,4.924,0.768       c-1.829,5.28-3.276,10.797-3.227,17.278c0.014,1.476,0.189,4.747,0.676,5.778c0.321,0.684,1.522,1.312,2.583,2.128       c5.673,4.415,9.946,9.749,14.636,14.496c0.8,0.813,1.441,2.174,2.368,2.136c-0.183-10.371,2.651-17.677,6.417-25.117       c1.174,1.382,2.338,2.777,3.513,4.156c-2.467,5.043-3.89,8.634-4.817,15.153c-0.404,2.85-1.131,7.696-0.377,10.282       c0.331,1.14,2.807,2.931,4.084,3.833c5.323,3.766,9.587,5.45,16.106,8.063c-2.777-6.559-2.794-16.947-1.42-25.338       c1.463,0.797,3.03,1.511,4.79,2.198c-1.274,8.944-0.781,19.811,2.645,25.893c4.369,2.061,8.017,5.229,11.398,8.084       c0.428,0.366,1.016,0.768,1.541,1.245c-3.548-1.342-7.378-2.322-11.691-2.85c-0.757-0.447-1.517-0.873-2.295-1.325       c-1.694-1.005-3.467-2.317-5.151-2.336c-2.475-0.019-4.889,1.756-6.899,3.515c-2.745,0.216-5.431,0.517-8.084,0.932       c2.699-2.807,5.838-5.21,8.976-7.2c-4.849-1.711-8.806-4.324-12.898-6.797c-8.262,3.138-14.706,7.338-20.923,13.173       c-1.199,1.126-2.333,2.317-3.432,3.545c-1.913-0.423-3.593-1.083-5.099-1.915c6.737-8.011,15.864-14.178,25.16-18.21       c-4.625-4.725-8.944-8.863-13.566-13.857c-1.253-1.347-3.251-4.254-4.73-4.472c-1.948-0.288-4.768,1.401-6.635,2.171       c-6.506,2.697-12.5,6.794-16.446,10.582c-1.568,1.506-3.055,3.179-4.496,4.916c-1.172-0.663-2.441-1.285-3.839-1.883       c-0.337-0.137-0.682-0.264-1.018-0.396c7.131-8.989,16.478-15.403,27.698-19.01c-4.302-5.264-12.602-6.506-20.605-8.041       c-6.142,3.233-10.554,7.524-15.147,12.93c-2.583,3.041-5,6.39-7.023,10.307c-1.697-0.331-3.405-0.668-5.097-1.048       c0.358-0.69,0.671-1.231,0.808-1.492c3.225-6.18,7.117-11.139,11.708-15.484c2.486-2.36,4.994-4.256,7.036-6.247       c-4.795-0.822-9.712-1.527-13.943-2.931c-8.539,3.367-15.848,5.722-22.426,12.109c-1.196,1.153-2.368,2.487-3.515,3.912       c-1.183-1.134-2.29-2.327-3.33-3.58c0.622-0.757,1.242-1.525,1.902-2.239c5.506-5.924,12.319-9.574,20.29-12.736       c-4.345-1.643-7.761-4.216-11.602-6.371c-6.794,2.01-12.752,5.881-18.086,10.307c-0.606-1.04-1.204-2.085-1.797-3.141       c-0.224-0.401-0.453-0.797-0.673-1.193c4.736-3.895,9.827-7.144,16.047-9.377c-4.062-3.286-7.869-6.837-12.688-9.361       c-3.531,1.692-6.885,4.434-9.824,7.675c-0.913-1.436-1.837-2.85-2.812-4.229c0.56-0.569,1.107-1.142,1.724-1.678       c1.719-1.527,3.785-2.562,5.328-4.316c-4.1-1.463-9.054-1.967-14.099-2.419c-0.307-0.307-0.593-0.633-0.908-0.93       C26.818,308.492,26.354,308.257,27.098,308.214z"/>
				</g>
				<g>
					<path style="fill-rule:evenodd;clip-rule:evenodd;fill:#FFFFFF;" d="M111.679,361.444c0.003,3.88-4.991,1.994-7.742,1.196       c-2.707-0.778-11.971-3.828-6.061-7.481c2.182-1.344,4.862,0.746,7.761,1.808C108.912,358.163,111.781,358.327,111.679,361.444       z"/>
					<path style="fill-rule:evenodd;clip-rule:evenodd;fill:#FFFFFF;" d="M113.675,366.643c2.669-1.112,5.584,2.681,4.192,4.717       C115.064,375.045,108.942,369.084,113.675,366.643z"/>
				</g>
			</g>
			<g>
				<g>
					<path style="fill-rule:evenodd;clip-rule:evenodd;fill:#8CA704;" d="M187.796,340.956c5.067-3.448,9.854-6.651,14.684-10.191       c3.969-2.901,8.423-5.848,11.932-10.036c0,0-0.416-2.78,0.17-3.675c0.805-1.235,3.8-2.887,3.8-2.887       c0.839-2.113,1.4-4.291,1.643-6.076c0.61-4.561,0.262-8.973-0.275-13.227c0,0-3.363-1.956-3.48-2.8       c-0.13-0.934,2.754-2.521,2.754-2.521c-0.533-3.945-0.94-7.763-0.551-11.464c0.533-5.132,2.722-10.66,5.648-16.21       c0,0-1.104-2.023-0.59-3.003c0.537-1.024,3.744-3.089,3.744-3.089c1.654-3.4,3.026-6.831,3.611-10.44       c1.024-6.345-0.241-11.83-2.504-17.136c0,0-2.42-1.192-2.787-1.955c-0.423-0.881,0.425-2.982,0.425-2.982       c-1.146-2.172-2.4-4.356-3.668-6.58c-1.116-1.959-2.233-4.017-3.32-6.073c0,0-2.647-0.73-3.067-1.546       c-0.431-0.837,0.525-3.372,0.525-3.372c-0.46-0.915-0.916-1.832-1.367-2.75c-1.55-3.158-3.065-6.073-4.256-9.009l-2.787,0.501       l-0.547-1.042c-1.703,2.531-5.418,0.131-5.418,0.131c-2.786,2.798-5.848,5.553-8.79,8.367c0,0,0.398,2.367-0.198,2.958       c-0.688,0.682-3.62,0.847-3.62,0.847c-4.879,5.14-8.801,10.686-9.544,17.302c0,0,1.63,2.334,1.617,2.486       c-0.157,1.743-1.396,3.198-1.396,3.198c0.508,3.036,1.483,6.122,2.199,9.27c0.761,3.357,1.548,6.81,2.041,10.34       c0,0,2.11,3.134,2.195,4.273c0.079,1.065-1.71,2.328-1.71,2.328c-0.014,4.221-0.717,8.539-2.679,12.902       c-2.379,5.272-5.372,9.956-6.473,16.074c-0.051,0.283-0.058,0.565-0.101,0.848c0,0,1.389,2.643,1.316,3.63       c-0.077,1.039-1.771,2.438-1.771,2.438c0.039,7.602,2.169,15.007,4.944,22.032c0.179,0.453,0.359,0.913,0.537,1.365       c0,0,3.152,2.843,3.654,4.157c0.472,1.236-0.751,3.494-0.751,3.494c1.381,3.923,2.542,7.881,3.195,12.004       C187.157,336.207,186.904,338.637,187.796,340.956z"/>
					<path style="fill:#5E7D00;" d="M201.672,209.709c0-5.056,1.409-9.499,2.182-14.213c-0.552-0.679-1.153-1.317-1.74-1.972       c1.277-1.277,2.497-2.57,3.615-3.89c0,0.003,0,0.006,0,0.006c0.011-0.006,0.011-0.016,0.011-0.024       c0.956-1.12,1.837-2.26,2.613-3.424c0.097-0.11,0.197-0.213,0.358-0.067c0.342,2.756,1.134,5.293,2.155,7.809       c-1.748,4.461-2.756,9.243-3.082,14.331c2.947-1.053,5.848-1.896,8.701-2.581c0.838,1.66,1.686,3.294,2.54,4.919       c-4.06,0.849-7.971,2.018-11.414,3.72c-0.186,5.221,1.091,11.088,2.457,16.998c4.156-3.111,8.758-5.786,15.945-8.065       c0.87,1.64,1.668,3.292,2.376,4.957c-6.982,2.373-13.838,5.536-16.89,9.162c1.312,5.751,2.742,11.931,3.028,17.06       c0.092,1.772-0.275,3.41,0.164,4.946c4.356-1.902,8.531-2.99,12.578-3.612c-0.983,2.015-2.053,4.014-3.13,6.029       c-0.011,0.022-0.019,0.046-0.024,0.065c-1.457,0.329-2.925,0.706-4.418,1.188c-1.638,0.528-5.196,1.84-6.139,2.702       c-0.622,0.566-0.803,2.031-1.274,3.408c-2.503,7.408-6.635,13.671-9.927,20.177c-0.566,1.11-1.805,2.238-1.366,3.189       c6.535-2.166,12.378-2.966,18.025-3.006c0.237,1.756,0.496,3.54,0.73,5.347c-3.041-0.016-6.177,0.245-10.148,0.927       c-3.34,0.574-9.038,1.506-11.586,3.179c-1.118,0.733-2.069,3.92-2.535,5.565c-1.932,6.815-2.01,11.802-2.16,19.455       c5.609-4.731,15.775-8.17,25.063-9.849c-0.56,1.404-1.245,2.791-2.047,4.027c-0.598,0.903-1.25,1.74-1.926,2.546       c-8.693,2.176-17.303,5.865-21.618,10.449c-0.213,2.573-0.811,5.048-1.56,7.44c-1.134,0.77-2.276,1.546-3.44,2.338       c-0.892-2.319-0.639-4.749-1.018-7.12c-0.07-0.45-0.167-0.897-0.248-1.339c0.038-0.207,0.07-0.407,0.105-0.617       c0.393-2.109,1.112-4.388,0.417-6.137c-0.598-1.533-1.923-2.807-3.47-3.911c-0.908-2.554-1.894-5.097-2.907-7.661       c2.438,1.355,4.76,2.85,6.902,4.399c-0.137-5.606,1.091-10.603,2.115-15.691c-4.537-4.852-9.256-8.747-14.493-12.09       c-0.016-2.015,0.137-4.044,0.455-6.083c5.905,3.645,11.317,7.952,16.009,12.543c3.3-6.422,6.072-12.322,9.671-18.838       c0.972-1.775,3.351-4.836,2.971-6.455c-0.49-2.112-3.564-4.442-5.212-6.102c-4.326-4.375-9.421-8.168-14.186-10.956       c0.011-2.231-0.175-4.44-0.485-6.608c8.375,4.313,15.727,10.188,21.906,17.518c4.033-6.285,1.918-15.298,0.245-24.104       c-6.174-5.237-12.799-8.308-20.743-11.185c-1.829-0.663-3.715-1.279-5.649-1.834c-0.288-1.751-0.434-3.499-0.275-5.237       c0.005-0.156,0.038-0.302,0.054-0.453c5.188,1.282,9.992,3.044,14.601,5.25c3.669,1.762,6.84,3.696,9.908,5.113       c-1.104-5.245-2.398-10.573-2.624-15.433c-4.28-4.475-8.027-8.615-12.335-12.219c1.223-1.288,2.508-2.554,3.82-3.804       C196.19,204.251,198.935,206.864,201.672,209.709z"/>
				</g>
				<g>
					<path style="fill-rule:evenodd;clip-rule:evenodd;fill:#FFFFFF;" d="M220.652,228.63c5.881-3.758,9.062,12.082,3.976,12.696       C220.367,241.838,217.131,230.955,220.652,228.63z"/>
				</g>
			</g>
			<path style="fill-rule:evenodd;clip-rule:evenodd;fill:#5E7D00;" d="M193.351,486.282c2.573-0.014,5.148-0.024,7.712-0.041     c2.503-40.747,9.019-90.303-3.184-126.589c-8.658-25.726-24.01-44.858-42.08-61.279c-4.092-3.728-9.512-7.483-14.622-11.072     c-1.883-1.323-3.72-3.087-6.005-1.899c-0.53,0.272-1.368,1.185-1.495,1.506c-0.803,2.179,0.733,3.65,2.597,5.132     c1.632,1.285,3.54,2.669,4.733,3.618c21.685,17.348,40.284,38.085,49.82,67.238c11.384,34.823,5.145,84.414,2.527,123.168     C193.348,486.139,193.348,486.209,193.351,486.282z"/>
			<g>
				<g>
					<path style="fill-rule:evenodd;clip-rule:evenodd;fill:#8888D0;" d="M50.025,279.966c17.483,8.559,40.982-2.282,52.199-14.483       c4.116-4.48,6.977-9.075,9.189-14.932c2.174-5.762,4.159-12.357,3.779-18.819c-0.356-5.932-2.277-13.679-6.014-16.17       l-1.189-0.91c-2.433-1.322-2.842-0.819-3.722-1.684c-2.691-2.643-4.884-3.891-8.517-5.198       c-3.249-1.169-7.586-1.199-11.19,0.938c-3.973,2.365-4.768,6.934-9.943,10.282c-5.064,3.276-12.502,3.173-15.368,8.189       c-1.568,2.739-0.884,7.163-1.864,10.447c-2.225,7.478-10.878,8.952-14.851,14.967c-1.371,2.074-2.648,5.897-2.495,8.461       C40.587,269.926,49.017,269.805,50.025,279.966z"/>
					<path style="fill-rule:evenodd;clip-rule:evenodd;fill:#FFFFFF;" d="M98.541,237.17c-3.038-4.262-9.202-0.45-9.544,3.653       c-2.998-0.674-6.112-2.179-9.391-0.846c-3.637,1.482-3.715,6.716-1.328,10.067c-2.397,0.606-6.228,0.38-7.311,2.688       c-1.342,2.81,1.102,5.385,3.216,6.921c-4.547,1.215-9.865,4.631-5.687,8.997c1.859,1.937,6.015,2.559,9.534,1.716       c4.865-1.169,9.49-4.027,13.13-7.228c5.924-5.196,10.958-10.506,14.086-17.817c1.247-2.933,2.85-7.64,1.624-10.113       C105.294,232.027,99.236,233.778,98.541,237.17z"/>
					<g>
						<path style="fill-rule:evenodd;clip-rule:evenodd;fill:#894A02;" d="M79.037,224.638c-1.158,4.747,4.588,6.95,5.49,3.572        C85.287,225.381,80.789,220.192,79.037,224.638z"/>
						<path style="fill-rule:evenodd;clip-rule:evenodd;fill:#894A02;" d="M100.203,230.352c4.817,0.525,2.737-7.284-0.305-5.253        C98.538,226.001,98.16,230.012,100.203,230.352z"/>
						<path style="fill-rule:evenodd;clip-rule:evenodd;fill:#894A02;" d="M89.393,225.977c-1.993,1.32-1.064,5.668,0.908,6.064        C94.53,232.895,93.975,223.204,89.393,225.977z"/>
						<path style="fill-rule:evenodd;clip-rule:evenodd;fill:#894A02;" d="M71.791,228.951c-0.377,0.192-0.463,0.505-0.504,0.854        c-0.358,3.815,4.351,7.952,5.754,3.559C77.827,229.974,74.884,227.836,71.791,228.951z"/>
						<path style="fill-rule:evenodd;clip-rule:evenodd;fill:#894A02;" d="M95.2,234.317c-1.491,1.365-0.004,6.301,3.053,5.598        C101.984,239.047,99.399,230.443,95.2,234.317z"/>
						<path style="fill-rule:evenodd;clip-rule:evenodd;fill:#894A02;" d="M84.827,234.861c-0.443,0.258-0.809,0.791-0.704,1.565        c0.444,2.508,1.419,5.263,3.391,5.308C91.87,241.836,87.963,232.871,84.827,234.861z"/>
						<path style="fill-rule:evenodd;clip-rule:evenodd;fill:#894A02;" d="M64.814,237.959c-3.211,3.593,8.663,9.105,7.672,2.888        C72.225,239.209,67.004,235.949,64.814,237.959z"/>
						<path style="fill-rule:evenodd;clip-rule:evenodd;fill:#894A02;" d="M83.674,247.139c4.281-4.205-4.768-8.828-4.922-3.596        C78.693,245.547,81.534,248.813,83.674,247.139z"/>
						<path style="fill-rule:evenodd;clip-rule:evenodd;fill:#894A02;" d="M67.804,255.843c3.857-3.903-6.762-7.416-7.408-3.19        C59.863,256.091,64.857,258.32,67.804,255.843z"/>
						<path style="fill-rule:evenodd;clip-rule:evenodd;fill:#894A02;" d="M77.75,250.262c-2.01-0.186-3.416,0.083-3.483,2.144        c-0.121,3.763,6.899,4.267,6.983,0.708C81.284,251.442,80.363,250.507,77.75,250.262z"/>
						<path style="fill-rule:evenodd;clip-rule:evenodd;fill:#894A02;" d="M73.76,257.99c-1.983-0.084-2.958-0.151-3.534,1.317        c-1.883,4.722,7.362,4.596,6.974,0.708C77.036,258.346,76.699,258.125,73.76,257.99z"/>
					</g>
					<g>
						<path style="fill-rule:evenodd;clip-rule:evenodd;fill:#C1C1FB;" d="M50.27,279.393c-1.358,0.826,0.938,1.417,1.156,1.597        c9.889,8.093,20.643,15.141,33.332,20.174c0,0,2.037-0.198,2.403-0.057c0.856,0.328,1.262,1.466,1.262,1.466        c6.051,2.255,12.302,4.35,18.828,5.967c11.408,2.821,29.495,5.797,40.329-3.327c1.895-1.598,3.381-3.592,4.561-5.815        c0,0-0.633-1.567-0.402-2.091c0.187-0.425,1.669-0.722,1.669-0.722c4.281-11.416,1.349-27.891-5.405-39.775        c-3.909-6.878-8.481-13.104-13.455-18.811c0,0-1.532,0.207-1.929-0.235c-0.438-0.489-0.593-2.56-0.593-2.56        c-4.916-5.324-10.155-10.184-15.628-14.686c-2.853-2.346-5.924-4.072-8.408-5.866l0,0c0.66,1.062,0.021,8.555,0.165,13.181        c0.104,3.329-2.081,8.993-2.081,8.993c-0.463,1.389-1.166,2.65-2.221,3.655c-2.268,2.155-5.862,2.661-8.863,4.135        c-5.765,2.815-8.205,7.823-10.209,14.202c-1.177,3.779-1.673,7.403-3.944,8.698c-3.96,2.263-10.56,1.121-14.765,2.723        C60.151,272.494,57.953,275.836,50.27,279.393z"/>
						<path style="fill:#8888D0;" d="M137.946,290.082c-19.759-5.687-39.615-18.121-52.314-33.778        c-0.291,0.813-0.577,1.651-0.851,2.513c-0.102,0.334-0.191,0.668-0.297,0.994c11.673,13.197,28.442,25.163,45.421,30.394        c-15.188,0.302-33.083,5.027-45.157,10.959c0.367,0.14,0.717,0.302,1.083,0.444c0.854,0.326,1.727,0.639,2.592,0.964        c8.456-3.688,19.123-7.766,31.55-9.245c3.502-0.426,7.411-0.517,10.937-0.606c3.793-0.092,7.602-0.544,10.161,0.132        c3.933,1.026,6.834,5.382,11.066,6.565c0.48-0.908,0.911-1.853,1.274-2.842c-0.463-0.453-1.034-0.868-1.495-1.325        c-3.82-3.785-6.727-8.402-9.741-13.916c-3.812-6.982-8.308-14.299-9.714-22.876c-1.239-7.551,0.21-14.24,2.09-20.454        c-0.829-0.948-1.675-1.878-2.527-2.802c-10.5,16.115,2.088,44.206,12.4,56.201c-10.035-7.354-21.327-20.069-28.32-34.441        c-3.359-6.899-6.255-13.13-7.252-22.38c-0.692-6.452,0.272-12.669,1.164-18.388c0.027-0.167-0.003-0.022,0.027-0.167        c-0.644-0.463-1.452-0.937-2.053-1.376l0.024,0.176c-2.769,5.951,0.19,15.584-1.941,22.001        c2.839,18.06,14.488,35.478,24.045,45.585c2.511,2.656,4.768,4.973,7.435,7.131        C137.553,289.546,137.949,289.822,137.946,290.082z"/>
					</g>
				</g>
				<g>
					<path style="fill-rule:evenodd;clip-rule:evenodd;fill:#FFFFFF;" d="M107.423,295.157c2.4-5.892,14.846,3.144,13.159,6.594       C118.367,306.294,105.362,300.216,107.423,295.157z"/>
					<path style="fill-rule:evenodd;clip-rule:evenodd;fill:#FFFFFF;" d="M127.446,298.344c2.06-1.084,5.534-1.563,6.398,1.01       c1.401,4.273-4.44,4.776-7.247,2.648C125.474,301.153,126.008,299.197,127.446,298.344z"/>
				</g>
			</g>
		</g>
	</g>
	<path style="fill-rule:evenodd;clip-rule:evenodd;fill:#FFFFFF;" d="M345.615,326.25c-1.256-1.292,0.704-5.915,2.974-5.568   C352.474,321.552,349.551,329.841,345.615,326.25z"/>
	<path style="fill-rule:evenodd;clip-rule:evenodd;fill:#FFFFFF;" d="M396.862,265.362c-5.81,2.596-8.565-12.527-4.955-13.86   C396.649,249.752,401.844,263.131,396.862,265.362z"/>
	<path style="fill-rule:evenodd;clip-rule:evenodd;fill:#FFFFFF;" d="M396.418,248.272c-0.499-2.275,0.752-5.437,3.716-5.304   c4.615,0.468,2.47,5.833-0.248,7.533C398.693,251.173,397.001,250.613,396.418,248.272z"/>
</g>















</svg>
