<svg xmlns="http://www.w3.org/2000/svg" version="1.1" xmlns:xlink="http://www.w3.org/1999/xlink" xmlns:svgjs="http://svgjs.com/svgjs" width="1240" height="700" preserveAspectRatio="none" viewBox="0 0 1240 700"><g mask="url(&quot;#SvgjsMask2504&quot;)" fill="none"><path d="M668.78 365.48a5.6 5.6 0 1 0-3.97-10.48 5.6 5.6 0 1 0 3.97 10.48zM663.11 350.52a5.6 5.6 0 1 0-3.96-10.48 5.6 5.6 0 1 0 3.96 10.48zM657.45 335.55a5.6 5.6 0 1 0-3.97-10.47 5.6 5.6 0 1 0 3.97 10.47zM651.78 320.59a5.6 5.6 0 1 0-3.97-10.48 5.6 5.6 0 1 0 3.97 10.48z" fill="rgba(236, 184, 113, 0.52)"></path><path d="M1028.8899999999999 191.67000000000002 L905.1899999999999 112.78L907.1369802681205 212.12801973187953z" stroke="rgba(236, 184, 113, 0.52)" stroke-width="2.07" stroke-dasharray="4, 4"></path><path d="M1070.47 14.32a5.6 5.6 0 1 0-7.69 8.15 5.6 5.6 0 1 0 7.69-8.15zM1059.49 25.96a5.6 5.6 0 1 0-7.69 8.14 5.6 5.6 0 1 0 7.69-8.14zM1048.5 37.59a5.6 5.6 0 1 0-7.69 8.14 5.6 5.6 0 1 0 7.69-8.14zM1037.51 49.22a5.6 5.6 0 1 0-7.69 8.14 5.6 5.6 0 1 0 7.69-8.14zM1080.82-19.92a5.6 5.6 0 1 0-7.69 8.14 5.6 5.6 0 1 0 7.69-8.14zM1069.83-8.29a5.6 5.6 0 1 0-7.69 8.14 5.6 5.6 0 1 0 7.69-8.14zM1058.84 3.34a5.6 5.6 0 1 0-7.69 8.14 5.6 5.6 0 1 0 7.69-8.14zM1047.86 14.97a5.6 5.6 0 1 0-7.69 8.14 5.6 5.6 0 1 0 7.69-8.14z" fill="rgba(236, 184, 113, 0.52)"></path><path d="M902.16 372.96a5.6 5.6 0 1 0-10.23-4.56 5.6 5.6 0 1 0 10.23 4.56zM887.55 366.45a5.6 5.6 0 1 0-10.23-4.56 5.6 5.6 0 1 0 10.23 4.56zM872.93 359.94a5.6 5.6 0 1 0-10.23-4.56 5.6 5.6 0 1 0 10.23 4.56zM858.32 353.42a5.6 5.6 0 1 0-10.23-4.56 5.6 5.6 0 1 0 10.23 4.56zM937.9 371.37a5.6 5.6 0 1 0-10.23-4.56 5.6 5.6 0 1 0 10.23 4.56zM923.29 364.86a5.6 5.6 0 1 0-10.23-4.56 5.6 5.6 0 1 0 10.23 4.56zM908.68 358.35a5.6 5.6 0 1 0-10.23-4.56 5.6 5.6 0 1 0 10.23 4.56zM894.06 351.83a5.6 5.6 0 1 0-10.23-4.56 5.6 5.6 0 1 0 10.23 4.56zM973.65 369.78a5.6 5.6 0 1 0-10.23-4.56 5.6 5.6 0 1 0 10.23 4.56zM959.03 363.27a5.6 5.6 0 1 0-10.23-4.56 5.6 5.6 0 1 0 10.23 4.56zM944.42 356.76a5.6 5.6 0 1 0-10.23-4.56 5.6 5.6 0 1 0 10.23 4.56zM929.8 350.25a5.6 5.6 0 1 0-10.23-4.56 5.6 5.6 0 1 0 10.23 4.56z" stroke="rgba(72, 99, 156, 0.55)" stroke-width="2.1" stroke-dasharray="2, 2"></path><path d="M661.29 46.69L651.81 38.09 658.12 26.95 648.64 18.34 654.96 7.2 645.47-1.41 651.79-12.55M669.19 45.43L659.71 36.82 666.02 25.68 656.54 17.07 662.86 5.93 653.37-2.68 659.69-13.82" stroke="rgba(72, 99, 156, 0.55)" stroke-width="1" stroke-dasharray="4, 4"></path><circle r="58.333333333333336" cx="168.17" cy="241.04" stroke="rgba(72, 99, 156, 0.55)" stroke-width="1.58" stroke-dasharray="4, 4"></circle><rect width="128.64000000000001" height="128.64000000000001" clip-path="url(&quot;#SvgjsClipPath2505&quot;)" x="1068.54" y="578.75" fill="url(#SvgjsPattern2506)" transform="rotate(9.56, 1132.86, 643.07)"></rect><path d="M591.41 628.75L591.75 615.95 604.31 613.46 604.65 600.66 617.21 598.18 617.55 585.38 630.11 582.9M597.52 633.91L597.86 621.11 610.42 618.63 610.76 605.82 623.32 603.34 623.66 590.54 636.23 588.06" stroke="rgba(72, 99, 156, 0.55)" stroke-width="2.05" stroke-dasharray="2, 2"></path></g><defs><mask id="SvgjsMask2504"><rect width="1240" height="700" fill="#ffffff"></rect></mask><pattern x="0" y="0" width="10.72" height="10.72" patternUnits="userSpaceOnUse" id="SvgjsPattern2506"><path d="M0 10.72L5.36 0L10.72 10.72" stroke="rgba(72, 99, 156, 0.55)" fill="none"></path></pattern><clipPath id="SvgjsClipPath2505"><circle r="32.160000000000004" cx="1132.86" cy="643.07"></circle></clipPath></defs></svg>