<svg xmlns="http://www.w3.org/2000/svg" version="1.1" xmlns:xlink="http://www.w3.org/1999/xlink" xmlns:svgjs="http://svgjs.com/svgjs" width="1440" height="560" preserveAspectRatio="none" viewBox="0 0 1440 560"><g mask="url(&quot;#SvgjsMask1168&quot;)" fill="none"><path d="M1536 560L0 560 L0 301.32Q66.65 295.97, 72 362.62Q121.07 291.69, 192 340.77Q270.19 298.95, 312 377.14Q326.78 271.92, 432 286.71Q505.65 240.36, 552 314Q629.51 271.51, 672 349.03Q715.47 320.5, 744 363.97Q763.46 311.43, 816 330.88Q860.57 255.45, 936 300.02Q1033.91 277.94, 1056 375.85Q1104.43 304.28, 1176 352.71Q1214.55 271.26, 1296 309.81Q1363.19 257, 1416 324.19Q1499.84 288.03, 1536 371.87z" fill="rgba(32, 47, 79, 1)"></path><path d="M1488 560L0 560 L0 389.99Q41.68 311.67, 120 353.35Q207.23 320.58, 240 407.8Q287.69 335.5, 360 383.19Q413.03 316.22, 480 369.24Q537.31 354.55, 552 411.86Q628.98 368.84, 672 445.81Q726.25 380.06, 792 434.3Q837.59 359.89, 912 405.48Q965.45 338.94, 1032 392.39Q1049.86 338.25, 1104 356.11Q1152.44 332.56, 1176 381Q1252.39 337.39, 1296 413.79Q1347.93 393.73, 1368 445.66Q1389.2 346.86, 1488 368.06z" fill="rgba(72, 99, 156, 1)"></path><path d="M1560 560L0 560 L0 444Q42.43 414.43, 72 456.86Q154.29 419.15, 192 501.44Q195.64 433.08, 264 436.72Q334.64 435.36, 336 506Q348.29 446.29, 408 458.59Q434.98 413.56, 480 440.54Q570.32 410.86, 600 501.18Q618.71 447.89, 672 466.6Q700.03 422.63, 744 450.67Q771.34 406.01, 816 433.35Q872.63 417.99, 888 474.62Q912.36 426.98, 960 451.34Q1006.58 377.91, 1080 424.49Q1178.29 402.77, 1200 501.06Q1243.86 424.92, 1320 468.78Q1358.58 387.36, 1440 425.93Q1531.11 397.04, 1560 488.15z" fill="rgba(158, 174, 207, 1)"></path><path d="M1536 560L0 560 L0 522.84Q61.51 512.35, 72 573.86Q93.41 475.27, 192 496.68Q264.8 449.48, 312 522.27Q389.75 480.02, 432 557.77Q499.68 505.45, 552 573.13Q578.62 479.75, 672 506.37Q720.11 482.48, 744 530.58Q814.75 481.34, 864 552.09Q940.41 508.5, 984 584.91Q986.16 515.07, 1056 517.22Q1122.76 463.99, 1176 530.75Q1241.77 476.52, 1296 542.29Q1369.83 496.12, 1416 569.94Q1443.69 477.63, 1536 505.32z" fill="rgba(233, 246, 247, 1)"></path></g><defs><mask id="SvgjsMask1168"><rect width="1440" height="560" fill="#ffffff"></rect></mask></defs></svg>