<svg xmlns="http://www.w3.org/2000/svg" version="1.1" xmlns:xlink="http://www.w3.org/1999/xlink" xmlns:svgjs="http://svgjs.com/svgjs" width="1440" height="560" preserveAspectRatio="none" viewBox="0 0 1440 560"><g mask="url(&quot;#SvgjsMask1014&quot;)" fill="none"><path d="M1536 560L0 560 L0 362.22Q5.88 296.1, 72 301.98Q140.4 250.38, 192 318.79Q234.8 289.59, 264 332.38Q285.61 281.99, 336 303.59Q389.86 237.44, 456 291.3Q517.44 280.74, 528 342.18Q597.1 291.27, 648 360.37Q657.89 298.26, 720 308.16Q786.09 254.25, 840 320.34Q896.32 304.66, 912 360.99Q918 295, 984 301Q1037.14 234.14, 1104 287.28Q1179.42 242.7, 1224 318.13Q1267.16 289.29, 1296 332.45Q1340.82 257.27, 1416 302.09Q1481.97 248.06, 1536 314.04z" fill="rgba(32, 47, 79, 1)"></path><path d="M1488 560L0 560 L0 400.16Q71.69 351.85, 120 423.53Q124.29 355.82, 192 360.11Q259.69 307.8, 312 375.48Q381.87 373.35, 384 443.22Q435.54 374.76, 504 426.31Q509.55 359.86, 576 365.41Q629.15 298.57, 696 351.72Q745.73 329.45, 768 379.18Q812.58 351.76, 840 396.35Q888.49 372.84, 912 421.33Q925.57 362.9, 984 376.47Q1028.49 348.96, 1056 393.45Q1100.91 318.37, 1176 363.28Q1218.17 333.45, 1248 375.63Q1332.56 340.19, 1368 424.74Q1436.87 373.61, 1488 442.47z" fill="rgba(72, 99, 156, 1)"></path><path d="M1488 560L0 560 L0 462.22Q55.3 445.52, 72 500.82Q100.95 457.77, 144 486.73Q171.69 442.42, 216 470.11Q253.72 387.83, 336 425.55Q429.66 399.21, 456 492.86Q477.55 442.41, 528 463.96Q544.46 408.41, 600 424.87Q701.38 406.25, 720 507.64Q766.44 434.08, 840 480.53Q846.53 415.06, 912 421.59Q950.08 387.67, 984 425.75Q1047.91 417.66, 1056 481.57Q1093.41 398.98, 1176 436.39Q1228.31 368.69, 1296 421Q1382.7 387.71, 1416 474.41Q1440.85 427.25, 1488 452.1z" fill="rgba(158, 174, 207, 1)"></path><path d="M1560 560L0 560 L0 555.31Q8.65 491.96, 72 500.61Q145.11 453.72, 192 526.82Q255.5 518.32, 264 581.82Q306.74 504.56, 384 547.3Q419.75 463.05, 504 498.8Q548.42 471.23, 576 515.65Q641.52 461.17, 696 526.7Q779.84 490.54, 816 574.38Q846.79 485.17, 936 515.96Q986.86 494.82, 1008 545.68Q1044.09 461.76, 1128 497.85Q1173.83 471.68, 1200 517.5Q1279.91 477.41, 1320 557.32Q1368.78 486.1, 1440 534.88Q1525.4 500.28, 1560 585.68z" fill="white"></path></g><defs><mask id="SvgjsMask1014"><rect width="1440" height="560" fill="#ffffff"></rect></mask></defs></svg>