<svg xmlns="http://www.w3.org/2000/svg" viewBox="0 0 750 500"><g id="freepik--Device--inject-129"><rect x="206.67" y="-19.67" width="334.67" height="480.28" rx="11.55" transform="translate(153.54 594.46) rotate(-90)" style="fill:#263238"></rect><rect x="211.89" y="21.16" width="313.56" height="401.09" transform="translate(146.97 590.38) rotate(-90)" style="fill:#fff"></rect><path d="M590,207.62a12.84,12.84,0,1,1-12.84,12.84A12.84,12.84,0,0,1,590,207.62Z" style="fill:#455a64"></path><rect x="99.95" y="217.81" width="100.8" height="5.31" rx="1.22" transform="translate(-70.12 370.81) rotate(-90)" style="fill:#455a64"></rect><rect x="168.13" y="63.84" width="37.57" height="314.64" style="fill:#ECB871"></rect><path d="M192.35,138.88a.32.32,0,0,1-.21-.08l-5.38-4.89-5.39,4.89a.3.3,0,0,1-.42,0,.29.29,0,0,1,0-.43l5.59-5.07a.28.28,0,0,1,.4,0l5.59,5.07a.31.31,0,0,1,0,.43A.28.28,0,0,1,192.35,138.88Z" style="fill:#fff"></path><path d="M190.81,143.16H182.7a.29.29,0,0,1-.3-.3V137.2a.3.3,0,1,1,.6,0v5.36h7.51V137.2a.31.31,0,0,1,.3-.31.3.3,0,0,1,.3.31v5.66A.29.29,0,0,1,190.81,143.16Z" style="fill:#fff"></path><path d="M192,179.18H181.47a.29.29,0,0,1-.3-.3v-6.77a1.52,1.52,0,0,1,1.52-1.52h2.75a1.69,1.69,0,0,1,1.57,1l.48,1.13h3.34a1.53,1.53,0,0,1,1.51,1.53v4.58A.29.29,0,0,1,192,179.18Zm-10.27-.6h10V174.3a.92.92,0,0,0-.91-.92h-3.54a.31.31,0,0,1-.28-.19l-.55-1.31a1.11,1.11,0,0,0-1-.69h-2.75a.92.92,0,0,0-.92.92Z" style="fill:#fff"></path><path d="M170.49,200.75h36.83a0,0,0,0,1,0,0V232a0,0,0,0,1,0,0H170.49a2.37,2.37,0,0,1-2.37-2.37V203.11A2.37,2.37,0,0,1,170.49,200.75Z" style="fill:#fff"></path><path d="M193.63,261.45H181.75a.29.29,0,0,1-.3-.3v-7.51a.29.29,0,0,1,.3-.3h11.88a.3.3,0,0,1,.3.3v7.51A.3.3,0,0,1,193.63,261.45Zm-11.58-.6h11.28v-6.91H182.05Z" style="fill:#fff"></path><path d="M187.83,259.34a.31.31,0,0,1-.2-.07l-6.08-5.41a.3.3,0,1,1,.4-.45l5.88,5.22,5.59-5.21a.3.3,0,0,1,.43,0,.31.31,0,0,1,0,.43l-5.79,5.4A.32.32,0,0,1,187.83,259.34Z" style="fill:#fff"></path><path d="M181.92,261.13a.29.29,0,0,1-.21-.09.3.3,0,0,1,0-.43l3.61-3.63a.3.3,0,0,1,.43.43L182.13,261A.29.29,0,0,1,181.92,261.13Z" style="fill:#fff"></path><path d="M193.7,261.37a.29.29,0,0,1-.21-.08l-3.86-3.88a.3.3,0,0,1,0-.43.31.31,0,0,1,.42,0l3.87,3.88a.32.32,0,0,1,0,.43A.3.3,0,0,1,193.7,261.37Z" style="fill:#fff"></path><rect x="179.75" y="215.6" width="3.72" height="5.76" rx="0.65" style="fill:#ECB871"></rect><rect x="184.97" y="213.35" width="3.72" height="8" rx="0.65" style="fill:#ECB871"></rect><rect x="190.04" y="211.42" width="3.72" height="9.93" rx="0.65" style="fill:#ECB871"></rect><path d="M186.91,109.11h0a6.86,6.86,0,0,1-6.85-6.87h0a6.87,6.87,0,0,1,6.85-6.88h0a6.87,6.87,0,0,1,6.85,6.88h0A6.86,6.86,0,0,1,186.91,109.11Z" style="fill:#fff"></path><rect x="383.41" y="204.12" width="10.38" height="23.91" style="fill:#ebebeb"></rect><rect x="418.61" y="204.12" width="10.38" height="23.91" style="fill:#ebebeb"></rect><rect x="401.01" y="182.35" width="10.38" height="45.68" style="fill:#f5f5f5"></rect><rect x="436.22" y="182.35" width="10.38" height="45.68" style="fill:#f5f5f5"></rect><rect x="453.82" y="183.66" width="10.38" height="44.37" style="fill:#ebebeb"></rect><rect x="489.03" y="183.66" width="10.38" height="44.37" style="fill:#ebebeb"></rect><rect x="524.24" y="183.66" width="10.38" height="44.37" style="fill:#ebebeb"></rect><rect x="471.43" y="160.37" width="10.38" height="67.66" style="fill:#f5f5f5"></rect><rect x="506.64" y="166.99" width="10.38" height="61.04" style="fill:#f5f5f5"></rect><rect x="541.85" y="176.34" width="10.38" height="51.69" style="fill:#ebebeb"></rect><path d="M553.66,181l-.26-.47c-.18-.32-.42-.8-.76-1.41a61,61,0,0,0-3.26-5.19c-.76-1.09-1.66-2.27-2.72-3.51a37.77,37.77,0,0,0-3.67-3.77,29.6,29.6,0,0,0-4.87-3.57c-.47-.26-.94-.53-1.44-.77s-1-.46-1.52-.69a20.38,20.38,0,0,0-3.32-1,18.56,18.56,0,0,0-3.61-.42,17.38,17.38,0,0,0-7.52,1.66c-1.21.58-2.39,1.3-3.64,1.94a40.92,40.92,0,0,1-8,3.35,31.07,31.07,0,0,1-9.15,1c-.39,0-.79,0-1.18-.05s-.8,0-1.2-.09c-.2,0-.4,0-.6-.08l-.59-.12a11.85,11.85,0,0,1-1.17-.31,32.26,32.26,0,0,1-4.53-1.87l-4.47-2.25a26.71,26.71,0,0,0-4.71-1.87,29.5,29.5,0,0,0-10.32-1,15.55,15.55,0,0,0-5.1,1.39,16.68,16.68,0,0,0-4.38,3.1,48.41,48.41,0,0,0-6.54,8.49c-2,3-3.84,5.9-5.86,8.68a52.43,52.43,0,0,1-6.61,7.63,32.6,32.6,0,0,1-3.84,3.06,29.23,29.23,0,0,1-4.18,2.34,23.39,23.39,0,0,1-4.42,1.53,22.46,22.46,0,0,1-2.26.43,19,19,0,0,1-2.26.14,18.13,18.13,0,0,1-8.4-2c-2.53-1.23-4.81-2.71-7.14-3.85a21.44,21.44,0,0,0-7.09-2.19,21.74,21.74,0,0,0-22.93,13.48l-.32.86c-.09.25-.16.47-.21.64l-.17.51s0-.17.15-.52c.05-.17.11-.39.2-.64l.31-.87a22,22,0,0,1,10.45-11.5,21.92,21.92,0,0,1,19.68.09c2.34,1.14,4.62,2.62,7.14,3.84a18,18,0,0,0,8.33,2,18.71,18.71,0,0,0,2.24-.14c.74-.12,1.5-.23,2.24-.42a23.74,23.74,0,0,0,4.38-1.53,28.33,28.33,0,0,0,4.15-2.33,31.34,31.34,0,0,0,3.81-3A52.67,52.67,0,0,0,449.1,182c2-2.77,3.89-5.71,5.85-8.67a49.51,49.51,0,0,1,6.57-8.53,17.15,17.15,0,0,1,4.43-3.14,16.23,16.23,0,0,1,5.17-1.41,30.07,30.07,0,0,1,10.39,1,26.51,26.51,0,0,1,4.74,1.9l4.47,2.24a31.7,31.7,0,0,0,4.5,1.87c.39.1.77.23,1.16.3l.59.13.58.07a11.69,11.69,0,0,0,1.19.09c.39,0,.79.05,1.18.05a30.66,30.66,0,0,0,9.09-1,41.21,41.21,0,0,0,8-3.33c1.25-.64,2.43-1.35,3.65-1.94a17.63,17.63,0,0,1,7.59-1.66,18.88,18.88,0,0,1,3.65.43,20.85,20.85,0,0,1,3.33,1.05c.52.22,1,.44,1.53.7s1,.5,1.44.77a28.92,28.92,0,0,1,4.89,3.6,37.91,37.91,0,0,1,3.67,3.79c1,1.24,1.94,2.42,2.7,3.52a56.37,56.37,0,0,1,3.23,5.22c.34.62.58,1.1.75,1.42Z" style="fill:#263238"></path><path d="M478.36,159.42a2.67,2.67,0,1,1-2.67-2.67A2.67,2.67,0,0,1,478.36,159.42Z" style="fill:#ECB871"></path><path d="M475.83,164a4.85,4.85,0,1,1,4.85-4.85A4.85,4.85,0,0,1,475.83,164Zm0-9.3a4.46,4.46,0,1,0,4.46,4.45A4.45,4.45,0,0,0,475.83,154.67Z" style="fill:#ECB871"></path><polygon points="476.97 150.21 476.83 144.75 478.19 144.77 475.65 141.66 473.1 144.8 474.51 144.81 474.65 150.2 476.97 150.21" style="fill:#ebebeb"></polygon><path d="M471.82,153.14v1h-.9v-1a4.24,4.24,0,0,1-2.23-.72l.49-1.09a3.64,3.64,0,0,0,1.74.63V150.5c-1-.24-2.1-.57-2.1-1.85,0-1,.69-1.77,2.1-1.93v-1h.9v1a4.14,4.14,0,0,1,1.81.55l-.44,1.1a3.85,3.85,0,0,0-1.37-.47v1.53c1,.23,2.08.56,2.08,1.82C473.9,152.16,473.22,153,471.82,153.14Zm-.9-4v-1.27c-.47.11-.66.37-.66.66S470.53,149.06,470.92,149.18Zm1.54,2.16c0-.31-.26-.48-.64-.62V152C472.26,151.86,472.46,151.63,472.46,151.34Z" style="fill:#e0e0e0"></path><path d="M391.55,193.19a2.67,2.67,0,1,1-2.67-2.67A2.68,2.68,0,0,1,391.55,193.19Z" style="fill:#ECB871"></path><path d="M388.88,198.14a4.85,4.85,0,1,1,4.85-4.85A4.86,4.86,0,0,1,388.88,198.14Zm0-9.31a4.46,4.46,0,1,0,4.46,4.46A4.46,4.46,0,0,0,388.88,188.83Z" style="fill:#ECB871"></path><polygon points="387.55 177.67 387.7 183.13 386.33 183.11 388.88 186.22 391.43 183.08 390.01 183.07 389.87 177.68 387.55 177.67" style="fill:#ebebeb"></polygon><path d="M384.41,187.6v1h-.9v-1a4.21,4.21,0,0,1-2.23-.72l.5-1.09a3.67,3.67,0,0,0,1.73.64V185c-1-.24-2.1-.57-2.1-1.85,0-1,.69-1.76,2.1-1.93v-1h.9v1a4.09,4.09,0,0,1,1.82.54l-.45,1.1a3.59,3.59,0,0,0-1.37-.46v1.52c1,.23,2.09.56,2.09,1.83C386.5,186.63,385.81,187.43,384.41,187.6Zm-.9-3.95v-1.28c-.47.11-.66.37-.66.67S383.12,183.52,383.51,183.65Zm1.54,2.15c0-.31-.26-.48-.64-.61v1.23C384.86,186.32,385.05,186.09,385.05,185.8Z" style="fill:#e0e0e0"></path><path d="M541.43,158.64v1h-.9v-1a4.24,4.24,0,0,1-2.23-.71l.49-1.1a3.65,3.65,0,0,0,1.74.64V156c-1-.24-2.1-.57-2.1-1.85,0-.95.69-1.76,2.1-1.92v-1h.9v1a4,4,0,0,1,1.81.54l-.44,1.11a3.67,3.67,0,0,0-1.37-.47v1.52c1,.23,2.08.57,2.08,1.83C543.51,157.66,542.83,158.47,541.43,158.64Zm-.9-4v-1.27c-.47.1-.66.36-.66.66S540.14,154.55,540.53,154.68Zm1.54,2.16c0-.32-.26-.49-.64-.62v1.23C541.87,157.35,542.07,157.12,542.07,156.84Z" style="fill:#e0e0e0"></path><path d="M547,159.45a2.28,2.28,0,0,0,1.36-2.11,2.14,2.14,0,1,0-4.27,0,2.26,2.26,0,0,0,1.36,2.13c-3.29.49-3.14,4.07-3.14,4.07l7.78,0S550.24,159.94,547,159.45Z" style="fill:#ebebeb"></path><circle cx="546.18" cy="169.64" r="2.67" style="fill:#ECB871"></circle><path d="M546.18,174.59a4.85,4.85,0,1,1,4.84-4.85A4.85,4.85,0,0,1,546.18,174.59Zm0-9.31a4.46,4.46,0,1,0,4.45,4.46A4.46,4.46,0,0,0,546.18,165.28Z" style="fill:#ECB871"></path><path d="M256.38,182.69a13.56,13.56,0,0,0-2.89,2.22,13.31,13.31,0,0,0-2.22,2.89,14,14,0,0,0,2.22,16.87,14.24,14.24,0,0,0,2.89,2.22,13.84,13.84,0,0,0,3.37,1.39,13.62,13.62,0,0,0,7.24,0,13.75,13.75,0,0,0,6.23-3.59l0,0a14.52,14.52,0,0,0,2.22-2.89,14,14,0,0,0-2.22-16.87,13.56,13.56,0,0,0-2.89-2.22,13.87,13.87,0,0,0-3.37-1.4,13.89,13.89,0,0,0-7.24,0A13.87,13.87,0,0,0,256.38,182.69Z" style="fill:none"></path><path d="M270.36,206.89a13.84,13.84,0,0,1-3.37,1.39,13.62,13.62,0,0,1-7.24,0,13.84,13.84,0,0,1-3.37-1.39,14.24,14.24,0,0,1-2.89-2.22,14,14,0,0,1-3.62-6.26,13.95,13.95,0,0,1,1.4-10.61,13.31,13.31,0,0,1,2.22-2.89,13.56,13.56,0,0,1,2.89-2.22,13.87,13.87,0,0,1,3.37-1.4,13.51,13.51,0,0,1,3.62-.48v-2.75a17.13,17.13,0,0,0-4.33.56,16.87,16.87,0,0,0-4,1.67,17.57,17.57,0,0,0-3.47,2.66,16.62,16.62,0,0,0-2.65,3.47,16.83,16.83,0,0,0-1.68,4,17.25,17.25,0,0,0-.56,4.33,16.58,16.58,0,0,0,2.24,8.38,16.56,16.56,0,0,0,2.65,3.46,17.15,17.15,0,0,0,3.47,2.65,16.12,16.12,0,0,0,4,1.68,16.73,16.73,0,0,0,8.66,0,16.12,16.12,0,0,0,4-1.68,16.5,16.5,0,0,0,3.43-2.62l-1.95-2A13.88,13.88,0,0,1,270.36,206.89Z" style="fill:#ECB871"></path><path d="M279.53,190.45a16.4,16.4,0,0,0-1.67-4,16.66,16.66,0,0,0-14.49-8.36v2.75a13.57,13.57,0,0,1,3.62.48,13.87,13.87,0,0,1,3.37,1.4,13.56,13.56,0,0,1,2.89,2.22,14,14,0,0,1,2.22,16.87,14.52,14.52,0,0,1-2.22,2.89l0,0,1.95,2,0,0a17,17,0,0,0,2.66-3.46,16.86,16.86,0,0,0,2.24-8.38A16.81,16.81,0,0,0,279.53,190.45Z" style="fill:#e0e0e0"></path><path d="M266.19,195.92a.45.45,0,0,1-.43-.35l-1-4.22H262l-1,4a.45.45,0,0,1-.54.33.45.45,0,0,1-.34-.54l1-4a.76.76,0,0,1,.73-.72h3.11a.74.74,0,0,1,.72.72l1,4.19a.45.45,0,0,1-.33.55Z" style="fill:#ECB871"></path><rect x="261.98" y="190.5" width="2.73" height="4.97" style="fill:#ECB871"></rect><path d="M262.53,201.37a.54.54,0,0,1-.54-.53V195a.54.54,0,0,1,1.08,0v5.88A.54.54,0,0,1,262.53,201.37Z" style="fill:#ECB871"></path><path d="M264.16,201.37a.54.54,0,0,1-.54-.53V195a.54.54,0,0,1,1.08,0v5.88A.54.54,0,0,1,264.16,201.37Z" style="fill:#ECB871"></path><circle cx="263.35" cy="188.84" r="1.32" style="fill:#ECB871"></circle><polygon points="260.99 196.95 262.03 192.98 264.66 192.98 265.68 196.95 260.99 196.95" style="fill:#ECB871"></polygon><path d="M345,193.19a17.05,17.05,0,0,1-.56,4.32,16.81,16.81,0,0,1-7.8,10.16,16.18,16.18,0,0,1-4,1.68,17,17,0,0,1-8.66,0,16.91,16.91,0,0,1-7.5-4.34,16.56,16.56,0,0,1-2.65-3.46,16.18,16.18,0,0,1-1.68-4,16.56,16.56,0,0,1-.53-3.16h2.77a15.1,15.1,0,0,0,.42,2.45,13.93,13.93,0,0,0,1.4,3.37,14.24,14.24,0,0,0,2.22,2.89,14,14,0,0,0,2.9,2.23,13.61,13.61,0,0,0,3.36,1.39,13.89,13.89,0,0,0,7.24,0,13.52,13.52,0,0,0,3.37-1.39,14,14,0,0,0,5.12-19.09,13.68,13.68,0,0,0-2.23-2.89,13.85,13.85,0,0,0-9.88-4.1v-2.76a16.69,16.69,0,0,1,4.33.57,16.18,16.18,0,0,1,4,1.68,16.82,16.82,0,0,1,7.8,10.15A17.15,17.15,0,0,1,345,193.19Z" style="fill:#e0e0e0"></path><path d="M342.25,193.19a14.06,14.06,0,0,1-7,12.1,13.52,13.52,0,0,1-3.37,1.39,13.89,13.89,0,0,1-7.24,0,13.61,13.61,0,0,1-3.36-1.39,14,14,0,0,1-2.9-2.23,14.24,14.24,0,0,1-2.22-2.89,13.93,13.93,0,0,1-1.4-3.37,15.1,15.1,0,0,1-.42-2.45h0c0-.39-.05-.77-.05-1.17a14,14,0,0,1,4.09-9.88,14.3,14.3,0,0,1,2.9-2.22,13.93,13.93,0,0,1,3.37-1.4,14.29,14.29,0,0,1,3.61-.47v-2.76a16.71,16.71,0,0,0-8.36,2.24,16.69,16.69,0,0,0-6.13,6.13,16.71,16.71,0,0,0-2.24,8.36c0,.4,0,.78,0,1.17h0a16.56,16.56,0,0,0,.53,3.16,16.18,16.18,0,0,0,1.68,4,16.56,16.56,0,0,0,2.65,3.46,16.91,16.91,0,0,0,7.5,4.34,17,17,0,0,0,8.66,0,16.18,16.18,0,0,0,4-1.68,16.79,16.79,0,0,0,7.8-10.16,17.05,17.05,0,0,0,.56-4.32Z" style="fill:#455a64"></path><path d="M331,194.93a.49.49,0,0,1-.49-.49V190h-3.59v4.46a.49.49,0,0,1-1,0v-4.58a.85.85,0,0,1,.84-.85h3.87a.84.84,0,0,1,.83.85v4.58A.48.48,0,0,1,331,194.93Z" style="fill:#455a64"></path><rect x="327.21" y="189.06" width="2.95" height="5.38" style="fill:#455a64"></rect><path d="M327.8,199.78a.54.54,0,0,1-.58-.5v-5.47a.59.59,0,0,1,1.17,0v5.47A.55.55,0,0,1,327.8,199.78Z" style="fill:#455a64"></path><path d="M329.57,199.78a.54.54,0,0,1-.58-.5v-5.47a.59.59,0,0,1,1.16,0v5.47A.54.54,0,0,1,329.57,199.78Z" style="fill:#455a64"></path><path d="M330.11,187.28a1.43,1.43,0,1,1-1.42-1.43A1.43,1.43,0,0,1,330.11,187.28Z" style="fill:#455a64"></path><path d="M277.78,154.89c0,.15-8.34.26-18.62.26s-18.62-.11-18.62-.26,8.34-.26,18.62-.26S277.78,154.75,277.78,154.89Z" style="fill:#263238"></path><path d="M271.81,164.2c0,.15-6.84.26-15.28.26s-15.27-.11-15.27-.26,6.84-.26,15.27-.26S271.81,164.06,271.81,164.2Z" style="fill:#e0e0e0"></path><path d="M345,153.92a1,1,0,1,1-1.94,0,1,1,0,1,1,1.94,0Z" style="fill:#263238"></path><circle cx="347.71" cy="153.92" r="0.97" style="fill:#263238"></circle><path d="M352.36,153.92a1,1,0,1,1-1.94,0,1,1,0,1,1,1.94,0Z" style="fill:#263238"></path><path d="M256.65,221.23a1.78,1.78,0,1,1-1.77-1.78A1.77,1.77,0,0,1,256.65,221.23Z" style="fill:#ECB871"></path><path d="M273.17,221.05a50,50,0,0,1-7.15.26,50,50,0,0,1-7.15-.26,48.3,48.3,0,0,1,7.15-.26A48.3,48.3,0,0,1,273.17,221.05Z" style="fill:#263238"></path><path d="M320,221.7a1.77,1.77,0,1,1-1.77-1.77A1.78,1.78,0,0,1,320,221.7Z" style="fill:#455a64"></path><path d="M336.52,221.52a48.3,48.3,0,0,1-7.15.26,48.3,48.3,0,0,1-7.15-.26,50,50,0,0,1,7.15-.26A50,50,0,0,1,336.52,221.52Z" style="fill:#263238"></path><path d="M256,233.24c0,.91-.65,1.64-2,1.64a3,3,0,0,1-1.94-.64l.35-.6a2.37,2.37,0,0,0,1.58.57c.8,0,1.25-.37,1.25-.94s-.38-1-1.6-1h-1.19l.27-2.75h3v.66h-2.34l-.15,1.44h.59C255.39,231.65,256,232.3,256,233.24Z"></path><path d="M256.63,232.18c0-1.71.92-2.69,2.15-2.69s2.14,1,2.14,2.69-.91,2.7-2.14,2.7S256.63,233.9,256.63,232.18Zm3.54,0c0-1.34-.57-2-1.39-2s-1.4.68-1.4,2,.57,2,1.4,2S260.17,233.53,260.17,232.18Z"></path><path d="M261.56,230.94a1.27,1.27,0,0,1,1.23-1.43c.73,0,1.21.57,1.21,1.43s-.48,1.44-1.21,1.44A1.28,1.28,0,0,1,261.56,230.94Zm2,0c0-.63-.28-1-.73-1s-.74.39-.74,1,.28,1,.74,1S263.52,231.57,263.52,230.94Zm2.44-1.39h.58l-3.6,5.27h-.58Zm-1.06,3.88a1.24,1.24,0,1,1,1.22,1.43A1.27,1.27,0,0,1,264.9,233.43Zm2,0c0-.63-.29-1-.74-1s-.74.37-.74,1,.28,1,.74,1S266.86,234.05,266.86,233.43Z"></path><path d="M326.28,233.42c0,.91-.65,1.64-2,1.64a3,3,0,0,1-1.94-.64l.35-.59a2.36,2.36,0,0,0,1.58.56c.8,0,1.25-.37,1.25-.94s-.38-1-1.6-1h-1.19l.27-2.76h3v.66h-2.34l-.15,1.44h.59C325.66,231.83,326.28,232.49,326.28,233.42Z"></path><path d="M326.9,232.37c0-1.72.92-2.7,2.15-2.7s2.14,1,2.14,2.7-.91,2.69-2.14,2.69S326.9,234.08,326.9,232.37Zm3.54,0c0-1.35-.57-2-1.39-2s-1.4.68-1.4,2,.57,2,1.4,2S330.44,233.71,330.44,232.37Z"></path><path d="M331.83,231.12a1.28,1.28,0,0,1,1.23-1.43c.73,0,1.21.57,1.21,1.43s-.48,1.44-1.21,1.44A1.28,1.28,0,0,1,331.83,231.12Zm2,0c0-.63-.27-1-.73-1s-.74.38-.74,1,.29,1,.74,1S333.79,231.76,333.79,231.12Zm2.44-1.39h.58l-3.6,5.27h-.57Zm-1.06,3.88a1.24,1.24,0,1,1,1.22,1.43A1.27,1.27,0,0,1,335.17,233.61Zm2,0c0-.63-.29-1-.74-1s-.74.37-.74,1,.28,1,.74,1S337.13,234.23,337.13,233.61Z"></path><path d="M442,123.82c-5.23,0-7.57-4.27-9.83-8.4-1.87-3.41-3.8-6.93-6.95-6.93-3.54,0-5.27,1.37-7.27,3-2.19,1.74-4.66,3.7-9.52,3.7-5.33,0-7.54-5.18-9.88-10.66-1.8-4.22-3.84-9-6.9-9s-5.1,4.78-6.91,9c-2.34,5.48-4.55,10.66-9.87,10.66-5,0-7.5-2.75-9.68-5.18-2-2.23-3.73-4.15-7.11-4.15v-.52c3.59,0,5.39,2,7.47,4.32s4.51,5,9.32,5c5,0,7.15-5,9.42-10.35,1.86-4.36,4-9.31,7.36-9.31s5.5,5,7.36,9.31c2.27,5.33,4.42,10.35,9.42,10.35,4.69,0,7.09-1.9,9.21-3.59S421.5,108,425.2,108c3.44,0,5.45,3.65,7.38,7.19,2.19,4,4.46,8.14,9.4,8.14s7.2-3.88,9.39-7.63c2-3.44,3.93-6.7,7.4-6.7s5.38,2.07,7.46,4.47,4.51,5.19,9.32,5.19c5,0,7.17-5.36,9.43-11,1.87-4.67,4-10,7.36-10s5.43,4.07,7.38,8c2.18,4.42,4.44,9,9.41,9,4.8,0,7.2-2.66,9.32-5s3.88-4.32,7.47-4.32v.52c-3.37,0-5.1,1.92-7.11,4.15-2.18,2.43-4.66,5.18-9.68,5.18-5.27,0-7.6-4.71-9.86-9.27-1.87-3.8-3.81-7.73-6.93-7.73s-5.09,5.13-6.89,9.65c-2.34,5.84-4.54,11.35-9.9,11.35-5,0-7.51-2.85-9.69-5.37-2-2.3-3.74-4.29-7.09-4.29-3.19,0-5,3.13-7,6.45C449.53,119.81,447.19,123.82,442,123.82Z" style="fill:#ECB871"></path><path d="M358.69,131l.14-.16a.51.51,0,0,0,.45.27c.25,0,.38-.16.38-.48v-1.31h-.76v-.2h1v1.5c0,.46-.21.69-.61.69A.69.69,0,0,1,358.69,131Z" style="fill:#e0e0e0"></path><path d="M361.69,130.25v1h-.21V131a.59.59,0,0,1-.54.26c-.35,0-.57-.19-.57-.47s.16-.46.61-.46h.49v-.1a.39.39,0,0,0-.44-.43.83.83,0,0,0-.52.19l-.1-.16a1,1,0,0,1,.64-.22A.57.57,0,0,1,361.69,130.25Zm-.22.52v-.27H361c-.3,0-.4.13-.4.29s.15.31.4.31A.5.5,0,0,0,361.47,130.77Z" style="fill:#e0e0e0"></path><path d="M363.71,130.32v.94h-.21v-.92c0-.35-.18-.52-.47-.52a.52.52,0,0,0-.55.58v.86h-.22v-1.63h.21v.3a.63.63,0,0,1,.59-.31A.61.61,0,0,1,363.71,130.32Z" style="fill:#e0e0e0"></path><path d="M381.5,129.29v.85h1.08v.2H381.5v.92h-.22v-2.17h1.43v.2Z" style="fill:#e0e0e0"></path><path d="M384.44,130.51h-1.31a.62.62,0,0,0,1.09.36l.12.14a.75.75,0,0,1-.6.26.79.79,0,0,1-.83-.83.77.77,0,0,1,.77-.82.76.76,0,0,1,.76.82Zm-1.31-.16h1.11a.55.55,0,0,0-.56-.54A.55.55,0,0,0,383.13,130.35Z" style="fill:#e0e0e0"></path><path d="M386.47,130.44a.78.78,0,0,1-.78.83.68.68,0,0,1-.61-.33v.32h-.2V129h.21v1a.68.68,0,0,1,.6-.32A.77.77,0,0,1,386.47,130.44Zm-.21,0a.59.59,0,0,0-.59-.63.64.64,0,0,0,0,1.27A.59.59,0,0,0,386.26,130.44Z" style="fill:#e0e0e0"></path><path d="M406.75,129.09v2.17h-.21v-1.73l-.82,1.45h-.1l-.83-1.44v1.72h-.21v-2.17h.18l.91,1.61.9-1.61Z" style="fill:#e0e0e0"></path><path d="M408.58,130.25v1h-.21V131a.59.59,0,0,1-.54.26c-.35,0-.57-.19-.57-.47s.15-.46.61-.46h.49v-.1a.39.39,0,0,0-.44-.43.83.83,0,0,0-.52.19l-.1-.16a1,1,0,0,1,.64-.22A.57.57,0,0,1,408.58,130.25Zm-.22.52v-.27h-.49c-.3,0-.4.13-.4.29s.14.31.4.31A.5.5,0,0,0,408.36,130.77Z" style="fill:#e0e0e0"></path><path d="M409.94,129.62v.21h-.05c-.32,0-.52.22-.52.6v.83h-.22v-1.63h.21V130A.58.58,0,0,1,409.94,129.62Z" style="fill:#e0e0e0"></path><path d="M428.13,130.68H427l-.25.58h-.23l1-2.17h.21l1,2.17h-.23Zm-.09-.19-.5-1.16-.5,1.16Z" style="fill:#e0e0e0"></path><path d="M430.5,130.44a.77.77,0,0,1-.78.83.69.69,0,0,1-.6-.32v.91h-.21v-2.23h.2V130a.7.7,0,0,1,.61-.33A.77.77,0,0,1,430.5,130.44Zm-.21,0a.59.59,0,1,0-.58.64A.59.59,0,0,0,430.29,130.44Z" style="fill:#e0e0e0"></path><path d="M431.73,129.62v.21h-.05c-.33,0-.53.22-.53.6v.83h-.21v-1.63h.2V130A.59.59,0,0,1,431.73,129.62Z" style="fill:#e0e0e0"></path><path d="M453.36,129.09v2.17h-.21v-1.73l-.82,1.45h-.11l-.82-1.44v1.72h-.21v-2.17h.18l.91,1.61.9-1.61Z" style="fill:#e0e0e0"></path><path d="M455.18,130.25v1H455V131a.6.6,0,0,1-.54.26c-.36,0-.57-.19-.57-.47s.15-.46.6-.46h.5v-.1a.39.39,0,0,0-.44-.43.83.83,0,0,0-.53.19l-.09-.16a1,1,0,0,1,.64-.22A.57.57,0,0,1,455.18,130.25Zm-.21.52v-.27h-.49c-.31,0-.41.13-.41.29s.15.31.4.31A.5.5,0,0,0,455,130.77Z" style="fill:#e0e0e0"></path><path d="M457.05,129.63l-.79,1.82c-.13.32-.29.42-.52.42a.57.57,0,0,1-.38-.14l.1-.17a.39.39,0,0,0,.28.13c.14,0,.24-.07.33-.28l.07-.15-.7-1.63h.22l.59,1.38.59-1.38Z" style="fill:#e0e0e0"></path><path d="M473.07,131l.13-.16a.51.51,0,0,0,.45.27c.25,0,.39-.16.39-.48v-1.31h-.77v-.2h1v1.5c0,.46-.21.69-.61.69A.66.66,0,0,1,473.07,131Z" style="fill:#e0e0e0"></path><path d="M476.29,129.63v1.63h-.21V131a.61.61,0,0,1-.56.31.62.62,0,0,1-.66-.7v-.94h.21v.92c0,.35.17.53.47.53a.52.52,0,0,0,.54-.59v-.86Z" style="fill:#e0e0e0"></path><path d="M478.33,130.32v.94h-.21v-.92c0-.35-.18-.52-.48-.52a.52.52,0,0,0-.54.58v.86h-.22v-1.63h.21v.3a.63.63,0,0,1,.59-.31A.61.61,0,0,1,478.33,130.32Z" style="fill:#e0e0e0"></path><path d="M496.37,131l.13-.16a.52.52,0,0,0,.45.27q.39,0,.39-.48v-1.31h-.77v-.2h1v1.5c0,.46-.21.69-.61.69A.67.67,0,0,1,496.37,131Z" style="fill:#e0e0e0"></path><path d="M499.59,129.63v1.63h-.2V131a.62.62,0,0,1-.57.31.62.62,0,0,1-.66-.7v-.94h.21v.92c0,.35.18.53.47.53a.52.52,0,0,0,.54-.59v-.86Z" style="fill:#e0e0e0"></path><path d="M500.19,129h.21v2.3h-.21Z" style="fill:#e0e0e0"></path><path d="M520.27,130.68H519.1l-.25.58h-.23l1-2.17h.21l1,2.17h-.23Zm-.09-.19-.5-1.16-.5,1.16Z" style="fill:#e0e0e0"></path><path d="M522.44,129.63v1.63h-.21V131a.61.61,0,0,1-.56.31.62.62,0,0,1-.66-.7v-.94h.21v.92c0,.35.17.53.47.53a.52.52,0,0,0,.54-.59v-.86Z" style="fill:#e0e0e0"></path><path d="M524.49,129.63v1.43c0,.56-.27.81-.79.81a1.08,1.08,0,0,1-.73-.25l.11-.16a.9.9,0,0,0,.62.22.51.51,0,0,0,.58-.59v-.21a.72.72,0,0,1-.62.32.77.77,0,0,1-.78-.8.76.76,0,0,1,.78-.78.69.69,0,0,1,.62.32v-.31Zm-.21.77a.6.6,0,1,0-.6.6A.57.57,0,0,0,524.28,130.4Z" style="fill:#e0e0e0"></path><path d="M347.75,130c0-.47.24-.75.57-.75s.58.28.58.75-.25.76-.58.76S347.75,130.43,347.75,130Zm1,0c0-.4-.17-.61-.42-.61s-.42.21-.42.61.17.62.42.62S348.74,130.36,348.74,130Z" style="fill:#e0e0e0"></path><path d="M346.45,122.18v1.49h-.15v-1.35H346v-.14Z" style="fill:#e0e0e0"></path><path d="M346.79,122.93c0-.48.24-.76.57-.76s.58.28.58.76-.24.75-.58.75S346.79,123.4,346.79,122.93Zm1,0c0-.4-.18-.62-.43-.62s-.42.22-.42.62.17.61.42.61S347.79,123.32,347.79,122.93Z" style="fill:#e0e0e0"></path><path d="M347,117.72v.13h-1v-.1l.59-.61c.16-.17.2-.27.2-.37s-.12-.28-.34-.28a.48.48,0,0,0-.39.17l-.11-.09a.63.63,0,0,1,.51-.22c.29,0,.48.16.48.41a.62.62,0,0,1-.24.46l-.49.5Z" style="fill:#e0e0e0"></path><path d="M347.21,117.11c0-.47.24-.76.57-.76s.57.29.57.76-.24.76-.57.76S347.21,117.58,347.21,117.11Zm1,0c0-.4-.17-.62-.42-.62s-.42.22-.42.62.17.62.42.62S348.2,117.51,348.2,117.11Z" style="fill:#e0e0e0"></path><path d="M347,111.41c0,.25-.17.44-.52.44a.78.78,0,0,1-.52-.19l.08-.12a.59.59,0,0,0,.44.17c.24,0,.37-.12.37-.3s-.12-.3-.39-.3h-.1V111l.4-.52H346v-.13H347v.11l-.41.53C346.85,111,347,111.17,347,111.41Z" style="fill:#e0e0e0"></path><path d="M347.21,111.09c0-.47.24-.75.57-.75s.57.28.57.75-.24.76-.57.76S347.21,111.57,347.21,111.09Zm1,0c0-.39-.17-.61-.42-.61s-.42.22-.42.61.17.62.42.62S348.2,111.49,348.2,111.09Z" style="fill:#e0e0e0"></path><path d="M347.27,105.63H347V106h-.15v-.39H346v-.11l.76-1H347l-.73,1h.62v-.34H347v.34h.28Z" style="fill:#e0e0e0"></path><path d="M347.41,105.28c0-.48.24-.76.57-.76s.57.28.57.76-.24.75-.57.75S347.41,105.75,347.41,105.28Zm1,0c0-.4-.17-.62-.42-.62s-.42.22-.42.62.17.61.42.61S348.4,105.67,348.4,105.28Z" style="fill:#e0e0e0"></path><path d="M347,100c0,.25-.17.45-.52.45a.72.72,0,0,1-.52-.19l.07-.12a.63.63,0,0,0,.44.17c.25,0,.38-.12.38-.3s-.12-.31-.48-.31h-.31l.08-.75H347v.14h-.66l0,.47h.18C346.86,99.56,347,99.74,347,100Z" style="fill:#e0e0e0"></path><path d="M347.21,99.7c0-.48.24-.76.57-.76s.58.28.58.76-.24.75-.58.75S347.21,100.17,347.21,99.7Zm1,0c0-.4-.18-.62-.43-.62s-.42.22-.42.62.17.61.42.61S348.21,100.09,348.21,99.7Z" style="fill:#e0e0e0"></path><path d="M347.13,94.18a.45.45,0,0,1-.49.46c-.38,0-.59-.28-.59-.75s.27-.77.66-.77a.62.62,0,0,1,.34.09l-.06.12a.49.49,0,0,0-.28-.07c-.31,0-.51.2-.51.61a.57.57,0,0,0,0,.12.46.46,0,0,1,.44-.26A.44.44,0,0,1,347.13,94.18Zm-.14,0a.33.33,0,0,0-.37-.32.33.33,0,1,0,0,.65A.33.33,0,0,0,347,94.18Z" style="fill:#e0e0e0"></path><path d="M347.3,93.88c0-.47.24-.76.57-.76s.58.29.58.76-.25.76-.58.76S347.3,94.35,347.3,93.88Zm1,0c0-.4-.17-.61-.42-.61s-.42.21-.42.61.17.62.42.62S348.29,94.28,348.29,93.88Z" style="fill:#e0e0e0"></path><g style="opacity:0.62"><rect x="354.65" y="94.24" width="171.83" height="0.15" style="fill:#e0e0e0"></rect><rect x="354.65" y="100.05" width="171.83" height="0.15" style="fill:#e0e0e0"></rect><rect x="354.65" y="105.85" width="171.83" height="0.15" style="fill:#e0e0e0"></rect><rect x="354.65" y="111.65" width="171.83" height="0.15" style="fill:#e0e0e0"></rect><rect x="354.65" y="117.45" width="171.83" height="0.15" style="fill:#e0e0e0"></rect><rect x="354.65" y="123.26" width="171.83" height="0.15" style="fill:#e0e0e0"></rect></g><path d="M393.28,95.49a1.71,1.71,0,1,0-1.71,1.77A1.74,1.74,0,0,0,393.28,95.49Z" style="fill:#ECB871"></path><ellipse cx="441.83" cy="123.39" rx="1.71" ry="1.77" style="fill:#ECB871"></ellipse><rect x="295.8" y="316.68" width="5.35" height="17.93" style="fill:#ECB871"></rect><rect x="251.1" y="314.09" width="5.35" height="20.52" style="fill:#ECB871"></rect><rect x="262.27" y="309.81" width="5.35" height="24.8" style="fill:#ECB871"></rect><rect x="273.45" y="311.17" width="5.35" height="23.44" style="fill:#ECB871"></rect><rect x="284.62" y="303.24" width="5.35" height="31.37" style="fill:#ECB871"></rect><rect x="306.97" y="303.39" width="5.35" height="31.22" style="fill:#ECB871"></rect><rect x="318.15" y="313.64" width="5.35" height="20.97" style="fill:#ECB871"></rect><rect x="329.32" y="304.77" width="5.35" height="29.84" style="fill:#ECB871"></rect><rect x="340.5" y="298.04" width="5.35" height="36.57" style="fill:#ECB871"></rect><rect x="351.67" y="304.61" width="5.35" height="30" style="fill:#ECB871"></rect><path d="M368.21,356.84H236.57A10.89,10.89,0,0,1,225.7,346v-78.7a10.89,10.89,0,0,1,10.87-10.87H368.21a10.89,10.89,0,0,1,10.87,10.87V346A10.89,10.89,0,0,1,368.21,356.84ZM236.57,257.48a9.8,9.8,0,0,0-9.79,9.79V346a9.81,9.81,0,0,0,9.79,9.8H368.21A9.82,9.82,0,0,0,378,346v-78.7a9.81,9.81,0,0,0-9.8-9.79Z" style="fill:#e0e0e0"></path><path d="M311.51,282.57c0,.15-15.23.28-34,.28s-34-.13-34-.28,15.23-.28,34-.28S311.51,282.41,311.51,282.57Z" style="fill:#e0e0e0"></path><path d="M434.85,297.68a18.59,18.59,0,0,0-3.86,3,18.35,18.35,0,0,0-3,3.87,18.66,18.66,0,0,0,6.83,25.5,18.67,18.67,0,0,0,22.5-2.93l0,0a19,19,0,0,0,3-3.87,18.67,18.67,0,0,0-3-22.54,18.9,18.9,0,0,0-8.36-4.83,18.64,18.64,0,0,0-14.18,1.87Z" style="fill:none"></path><path d="M453.52,330a18.62,18.62,0,0,1-18.67,0,18.72,18.72,0,0,1-8.7-11.33A18.62,18.62,0,0,1,428,304.51a18.35,18.35,0,0,1,3-3.87,18.59,18.59,0,0,1,3.86-3,18.64,18.64,0,0,1,9.34-2.51v-3.68a22.16,22.16,0,0,0-11.18,3,22.6,22.6,0,0,0-4.63,3.55,22.49,22.49,0,0,0-5.79,10,22.44,22.44,0,0,0,0,11.58,22.07,22.07,0,0,0,2.24,5.39,22.31,22.31,0,0,0,3.55,4.64A22.55,22.55,0,0,0,433,333.2a21.91,21.91,0,0,0,5.4,2.24,22.4,22.4,0,0,0,11.57,0,21.84,21.84,0,0,0,5.39-2.24,22.09,22.09,0,0,0,4.59-3.51l-2.61-2.61A18.53,18.53,0,0,1,453.52,330Z" style="fill:#ECB871"></path><path d="M465.79,308.05A22.42,22.42,0,0,0,450,292.24a23,23,0,0,0-5.79-.75v3.68a18.57,18.57,0,0,1,9.33,2.51,18.14,18.14,0,0,1,3.87,3,18.64,18.64,0,0,1,3,22.54,19,19,0,0,1-3,3.87l0,0,2.61,2.61,0,0a22.71,22.71,0,0,0,3.56-4.64,22.55,22.55,0,0,0,2.23-17Z" style="fill:#e0e0e0"></path><path d="M440.61,316.21a2,2,0,0,1-2.21,2c-1.71,0-2.64-1.18-2.64-3.22,0-2.19,1.2-3.34,2.95-3.34a3,3,0,0,1,1.53.36l-.27.53a2.26,2.26,0,0,0-1.25-.31c-1.39,0-2.29.9-2.29,2.65a5.11,5.11,0,0,0,0,.52,2.07,2.07,0,0,1,2-1.1A2,2,0,0,1,440.61,316.21Zm-.66,0c0-.85-.62-1.39-1.62-1.39a1.5,1.5,0,0,0-1.66,1.41c0,.71.59,1.38,1.71,1.38A1.4,1.4,0,0,0,440,316.23Z" style="fill:#263238"></path><path d="M445.75,316.24c0,1.1-.76,1.95-2.34,1.95a3.36,3.36,0,0,1-2.31-.82l.32-.53a2.82,2.82,0,0,0,2,.75c1.1,0,1.68-.54,1.68-1.32s-.52-1.35-2.16-1.35h-1.37l.33-3.23h3.53v.59h-3l-.22,2.05h.83C445,314.33,445.75,315.1,445.75,316.24Z" style="fill:#263238"></path><path d="M446.41,313.39c0-1.05.59-1.75,1.45-1.75s1.46.69,1.46,1.75-.6,1.76-1.46,1.76S446.41,314.45,446.41,313.39Zm2.45,0c0-.83-.4-1.33-1-1.33s-1,.51-1,1.33.38,1.34,1,1.34S448.86,314.23,448.86,313.39Zm2.91-1.7h.54l-4.4,6.45h-.54Zm-1.41,4.75c0-1.06.6-1.76,1.46-1.76s1.45.7,1.45,1.76-.59,1.75-1.45,1.75S450.36,317.49,450.36,316.44Zm2.45,0c0-.83-.39-1.34-1-1.34s-1,.5-1,1.34.4,1.33,1,1.33S452.81,317.26,452.81,316.44Z" style="fill:#263238"></path><path d="M530.93,313.85a22.89,22.89,0,0,1-.75,5.78,21.71,21.71,0,0,1-2.25,5.39,22.09,22.09,0,0,1-8.18,8.18,21.91,21.91,0,0,1-5.39,2.24,22.4,22.4,0,0,1-11.57,0,22.07,22.07,0,0,1-5.39-2.24,22.29,22.29,0,0,1-8.18-8.18,22.07,22.07,0,0,1-2.24-5.39,22.79,22.79,0,0,1-.71-4.23H490a19.71,19.71,0,0,0,.56,3.28,18.86,18.86,0,0,0,8.7,11.34,18.63,18.63,0,0,0,22.54-3,19,19,0,0,0,3-3.86,18.42,18.42,0,0,0,1.87-4.5,18.87,18.87,0,0,0,0-9.67,18.42,18.42,0,0,0-1.87-4.5,19,19,0,0,0-3-3.86,18.55,18.55,0,0,0-13.21-5.48v-3.68a22.91,22.91,0,0,1,5.79.75,22.31,22.31,0,0,1,13.57,10.43,21.55,21.55,0,0,1,2.25,5.39A22.91,22.91,0,0,1,530.93,313.85Z" style="fill:#e0e0e0"></path><path d="M503.53,311.32v.47l-2.7,6h-.72l2.66-5.86h-3.32v1.21h-.65v-1.8Z" style="fill:#263238"></path><path d="M508.61,315.87c0,1.1-.76,2-2.34,2A3.31,3.31,0,0,1,504,317l.32-.53a2.77,2.77,0,0,0,2,.75c1.1,0,1.68-.53,1.68-1.32s-.52-1.34-2.16-1.34h-1.37l.33-3.24h3.53v.59h-2.95L505.1,314h.83C507.87,314,508.61,314.73,508.61,315.87Z" style="fill:#263238"></path><path d="M509.27,313c0-1,.59-1.75,1.46-1.75s1.45.69,1.45,1.75-.6,1.75-1.45,1.75S509.27,314.08,509.27,313Zm2.45,0c0-.84-.4-1.34-1-1.34s-1,.51-1,1.34.39,1.33,1,1.33S511.72,313.87,511.72,313Zm2.91-1.71h.55l-4.41,6.45h-.54Zm-1.41,4.75c0-1.05.6-1.75,1.46-1.75s1.45.7,1.45,1.75-.59,1.75-1.45,1.75S513.22,317.12,513.22,316.07Zm2.45,0c0-.83-.38-1.34-1-1.34s-1,.5-1,1.34.4,1.33,1,1.33S515.67,316.9,515.67,316.07Z" style="fill:#263238"></path><path d="M527.25,313.85a18.81,18.81,0,0,1-.63,4.83,18.42,18.42,0,0,1-1.87,4.5,19,19,0,0,1-3,3.86,18.74,18.74,0,0,1-3.87,3,18.71,18.71,0,0,1-18.67,0,19,19,0,0,1-3.86-3,18.41,18.41,0,0,1-4.84-8.36,19.71,19.71,0,0,1-.56-3.28h0c-.05-.52-.08-1-.08-1.56a18.78,18.78,0,0,1,5.47-13.2,19,19,0,0,1,3.87-3,18.73,18.73,0,0,1,4.5-1.86,18.47,18.47,0,0,1,4.84-.64v-3.69A22.41,22.41,0,0,0,487,308.06a22.45,22.45,0,0,0-.76,5.78c0,.53,0,1,.06,1.56h0a22.79,22.79,0,0,0,.71,4.23,22.07,22.07,0,0,0,2.24,5.39,22.29,22.29,0,0,0,8.18,8.18,22.07,22.07,0,0,0,5.39,2.24,22.4,22.4,0,0,0,11.57,0,21.91,21.91,0,0,0,5.39-2.24,22.09,22.09,0,0,0,8.18-8.18,21.71,21.71,0,0,0,2.25-5.39,22.89,22.89,0,0,0,.75-5.78Z" style="fill:#ECB871"></path><path d="M548.54,356.84H404.22a9.73,9.73,0,0,1-9.71-9.71v-81a9.73,9.73,0,0,1,9.71-9.71H548.54a9.72,9.72,0,0,1,9.71,9.71v81A9.72,9.72,0,0,1,548.54,356.84ZM404.22,257.51a8.61,8.61,0,0,0-8.6,8.6v81a8.62,8.62,0,0,0,8.6,8.61H548.54a8.62,8.62,0,0,0,8.61-8.61v-81a8.61,8.61,0,0,0-8.61-8.6Z" style="fill:#e0e0e0"></path><path d="M477.9,279.16c0,.16-15.09.29-33.7.29s-33.71-.13-33.71-.29,15.09-.29,33.71-.29S477.9,279,477.9,279.16Z" style="fill:#e0e0e0"></path><rect x="232.96" y="88.57" width="86.33" height="40.76" rx="7.28" style="fill:#ECB871"></rect><path d="M252.49,117.59v1.23H252V117.6a4,4,0,0,1-2.56-1l.31-.61a3.64,3.64,0,0,0,2.25.9v-2.82c-1.18-.29-2.38-.65-2.38-2.07,0-1,.74-1.92,2.38-2v-1.23h.54V110a4.13,4.13,0,0,1,2.17.67l-.26.63a3.92,3.92,0,0,0-1.91-.62v2.84c1.21.29,2.49.63,2.49,2.07C255,116.59,254.19,117.49,252.49,117.59Zm-.54-4.25v-2.68c-1.1.1-1.59.66-1.59,1.34S251.07,113.12,252,113.34Zm2.24,2.25c0-.84-.78-1.13-1.7-1.36v2.68C253.67,116.83,254.19,116.28,254.19,115.59Z" style="fill:#fff"></path><path d="M264,116.85v.68h-5.26V117l3.12-3.06c.85-.84,1-1.34,1-1.85,0-.87-.61-1.41-1.76-1.41a2.56,2.56,0,0,0-2.05.84l-.55-.48a3.41,3.41,0,0,1,2.66-1.07c1.53,0,2.49.77,2.49,2a3.08,3.08,0,0,1-1.23,2.35l-2.55,2.51Z" style="fill:#fff"></path><path d="M267,110v7.5h-.77v-6.82h-1.77V110Z" style="fill:#fff"></path><path d="M268.81,113.78c0-2.39,1.26-3.82,3-3.82s3,1.43,3,3.82-1.27,3.82-3,3.82S268.81,116.17,268.81,113.78Zm5.2,0c0-2-.9-3.11-2.21-3.11s-2.2,1.11-2.2,3.11.9,3.11,2.2,3.11S274,115.78,274,113.78Z" style="fill:#fff"></path><path d="M275.91,113.78c0-2.39,1.26-3.82,3-3.82s3,1.43,3,3.82-1.27,3.82-3,3.82S275.91,116.17,275.91,113.78Zm5.2,0c0-2-.9-3.11-2.21-3.11s-2.2,1.11-2.2,3.11.9,3.11,2.2,3.11S281.11,115.78,281.11,113.78Z" style="fill:#fff"></path><path d="M284.05,117a1.69,1.69,0,0,1-.15.62l-.45,1.48h-.51l.36-1.56a.53.53,0,0,1-.38-.54.55.55,0,0,1,.56-.58A.56.56,0,0,1,284.05,117Z" style="fill:#fff"></path><path d="M290.58,113.72c0,2.55-1.39,3.88-3.43,3.88a3.45,3.45,0,0,1-1.78-.41l.31-.62a2.62,2.62,0,0,0,1.46.35c1.62,0,2.66-1,2.66-3.08,0-.17,0-.38,0-.61a2.41,2.41,0,0,1-2.3,1.29,2.27,2.27,0,0,1-2.53-2.25,2.34,2.34,0,0,1,2.57-2.31C289.5,110,290.58,111.35,290.58,113.72Zm-1.06-1.5c0-.82-.68-1.6-2-1.6a1.64,1.64,0,0,0-1.84,1.63c0,1,.73,1.62,1.89,1.62A1.74,1.74,0,0,0,289.52,112.22Z" style="fill:#fff"></path><path d="M291.7,113.78c0-2.39,1.25-3.82,3-3.82s3,1.43,3,3.82-1.26,3.82-3,3.82S291.7,116.17,291.7,113.78Zm5.2,0c0-2-.9-3.11-2.21-3.11s-2.21,1.11-2.21,3.11.9,3.11,2.21,3.11S296.9,115.78,296.9,113.78Z" style="fill:#fff"></path><path d="M279.21,101.26c0,.13-6.95.23-15.52.23s-15.52-.1-15.52-.23,7-.23,15.52-.23S279.21,101.14,279.21,101.26Z" style="fill:#fff"></path></g></svg>