<svg id="Capa_1" enable-background="new 0 0 497.291 497.291" height="412" viewBox="0 0 497.291 497.291" width="512" xmlns="http://www.w3.org/2000/svg"><g><path d="m296.212 363.861-8.661-24.1h-86.525l-13.054 24.3-20.67 16.168 19.487 65.463 29.982 20.609c8.51 1.01 17.17 1.53 25.95 1.53 8.63 0 17.14-.5 25.51-1.48l30.375-19.652 10.538-61.824z" fill="#6bd9e7"/><path d="m165.518 374.233-62.936-26.432-13.5-43.927-47.41-13.287-6.55 27.954c20.55 61.31 67.5 110.51 127.34 134.11l25.51-2.987z" fill="#2ed1e2"/><path d="m391.492 250.481-7.53-34.372-65.262 3.62-14.29 30.752h-.948v.307l-30.367 9.829-4.863 69.699 27.98 33.544 12.933 33.257 57.739-15.388 9.408-26.308 23.073 5.495 7.294-77.058z" fill="#6bd9e7"/><path d="m203.325 277.219-22.923-26.738-8.098-24.463h-67.766l-15.456 24.463-20.385 14.864 7.457 58.256 26.428 24.2 17.015 24.121 56.321 9.807 12.054-17.669 22.281-15.079z" fill="#6bd9e7"/><path d="m98.462 136.821-31.546 4.779-25.244 20.631c-11.49 26.59-17.85 55.91-17.85 86.71 0 .51 0 1.03.01 1.54l14.586 14.864h39.451l11.214-14.864 35.26-23.32 4.144-54.534z" fill="#2ed1e2"/><path d="m295.592 136.821-12.353-21.833h-76.627l-18.64 21.913-22.454 18.05-4.198 81.258 19.082 14.272 10.558 20.272h99.241l13.261-20.272 20.728-18.457v-68.977z" fill="#6bd9e7"/><path d="m408.247.019c-37.063-.873-67.382 28.911-67.382 65.776 0 14.694 4.82 28.26 12.961 39.211l29.743 41.013c4.881 6.73 8.308 14.402 10.065 22.529l2.226 10.302c1.099 5.085 5.597 8.715 10.8 8.715s9.701-3.63 10.8-8.715l2.226-10.302c1.756-8.126 5.184-15.798 10.064-22.528l29.743-41.013c8.337-11.215 13.191-25.173 12.952-40.276-.555-35.111-29.094-63.885-64.198-64.712z" fill="#ee6161"/><path d="m348.641 34.77c-4.954 9.245-7.776 19.802-7.776 31.024 0 14.694 4.82 28.26 12.961 39.211l29.743 41.013c4.881 6.73 8.308 14.402 10.065 22.529l2.226 10.302c.002.008.005.016.007.025 5.871 2.165 11.511 4.453 16.894 6.848 2.338-1.55 4.072-3.973 4.699-6.873l2.226-10.302c1.756-8.126 5.184-15.798 10.064-22.528l16.288-22.459c-23.447-37.87-57.224-68.851-97.397-88.79z" fill="#e94444"/><path d="m350.161 62.866-34.079-20.226c-16.83-5.99-34.62-9.98-53.07-11.67 0 0-17.448 14.129-19.728 15.648-2.279 1.52 6.838 68.128 6.838 68.128l45.47 22.074 16.737 25.178 59.586 5.266 6.907-15.004 15.66-23.331z" fill="#6bd9e7"/><path d="m218.772 31.341c-42.21 4.59-80.81 21.18-112.33 46.29l-7.98 74.1 3.897 14.109 57.025 6.786 28.588-35.726 30.8-16.97 13.801-52.466z" fill="#6bd9e7"/><path d="m382.445 44.837c5.871-6.783 14.541-11.07 24.214-11.07 17.688 0 32.025 14.342 32.025 32.029 0 8.015-2.942 15.34-7.811 20.955-5.871 6.783-14.541 11.07-24.214 11.07-17.688 0-32.025-14.337-32.025-32.025 0-8.014 2.942-15.339 7.811-20.959z" fill="#f9f7f8"/><path d="m406.659 97.822c6.215 0 12.011-1.777 16.921-4.842-13.423-15.55-28.816-29.372-45.792-41.055-2.021 4.198-3.154 8.902-3.154 13.872 0 17.687 14.338 32.025 32.025 32.025z" fill="#efedef"/><g id="XMLID_141_"><g><path d="m435.643 321.103-56.428 3.262-21.854 31.056-48.217 67.61 9.047 31.44c51.74-19 94.31-56.97 119.28-105.49z" fill="#2ed1e2"/><path d="m344.689 442.658c39.718-20.945 72.217-53.732 92.777-93.682l-1.829-27.877-56.428 3.262-21.854 31.056-37.65 52.793z" fill="#02c7dd"/><path d="m385.04 221.027c-54.032 7.044-95.895 53.368-95.895 109.289 0 10.286 1.402 20.357 4.128 30.02l2.94 3.524 9.667 24.858c1.537 2.45 3.174 4.851 4.914 7.197l.463.639 55.628-14.826 9.408-26.308 23.073 5.495 7.294-77.058-15.167-33.377z" fill="#2ed1e2"/><g fill="#a6e7f0"><path d="m296.212 363.861 80.08-8.44c-12.89 42.14-33.23 76.79-58.1 99.05-15.87 5.83-32.6 9.87-49.96 11.88 11.94-21.83 21.77-57.9 27.98-102.49z"/><path d="m187.972 364.061c6.42 44.94 16.55 81.02 28.8 102.24-18.95-2.23-37.16-6.89-54.31-13.65-26.17-24.74-47.17-61.28-59.88-104.85 25.63 7.63 54.47 13.22 85.39 16.26z"/></g></g></g><path d="m303.462 250.481v2.04c0 40.25-2.62 78.15-7.25 111.34l-11.95 1.26c-13.68 1.03-27.72 1.57-42.04 1.57-18.62 0-36.77-.91-54.25-2.63-4.83-33.72-7.57-72.42-7.57-113.58z" fill="#2ed1e2"/><path d="m451.842 184.031-15.08-24.903-47.05-17.529-10.89 10.661-19.145 11.756 9.149 68.008s22.666 19.456 22.666 18.456l2.99 17.223 55.328 3.05 11.802-20.273c.01-.51.01-1.03.01-1.54 0-22.599-3.42-44.399-9.78-64.909z" fill="#2ed1e2"/><path d="m391.492 250.481h70.12c-.24 35.47-8.92 68.94-24.14 98.5l-61.18 6.44c9.63-31.49 15.1-67.15 15.2-104.94z" fill="#02c7dd"/><path d="m104.38 265.345c0-13.337.758-26.461 2.198-39.327h-2.04l-15.456 24.462-20.385 14.864 7.457 58.256 26.428 24.2 17.015 24.121 1.552.27c-10.822-33.122-16.769-69.154-16.769-106.846z" fill="#2ed1e2"/><path d="m89.082 250.481c0 34.69 4.82 67.64 13.5 97.32-26.23-7.8-49.11-17.73-67.46-29.26-7.17-21.4-11.13-44.28-11.29-68.06z" fill="#6bd9e7"/><path d="m391.491 249.476v1h-81.93-6.1c-.09-41.27-2.94-80.01-7.87-113.66 30.03 2.89 58.12 8.2 83.23 15.44 8.13 29.57 12.67 62.51 12.67 97.22z" fill="#a6e7f0"/><path d="m98.462 151.731 3.897 14.109 22.498 2.677 29.215-40.284c12.161-16.404 18.417-35.894 18.094-56.369-.155-9.796-1.879-19.36-5.002-28.423-22.14 8.143-42.602 19.754-60.722 34.189z" fill="#02c7dd"/><path d="m98.462 136.821-31.546 4.779-25.244 20.631c-1.413 3.27-2.746 6.582-4.002 9.932l.73 1.007c3.753 5.176 6.341 10.968 7.691 17.217l2.444 11.311c3.174 14.685 16.382 25.344 31.406 25.344s28.232-10.659 31.406-25.344l2.444-11.311c1.351-6.25 3.938-12.042 7.691-17.217l3.459-4.769z" fill="#02c7dd"/><path d="m187.972 136.901c-4.83 33.72-7.57 72.42-7.57 113.58h-91.32c0-4.88.11-9.72.3-14.53l9.08-84.22 58.81-10.88c9.97-1.6 20.22-2.92 30.7-3.95z" fill="#a6e7f0"/><path d="m316.082 42.641c64.67 23 115.34 75.54 135.76 141.39-19.44-12.66-44.29-23.48-73.02-31.77-13-47.29-35.2-85.99-62.74-109.62z" fill="#a6e7f0"/><path d="m265.062 33.321c12.97 20.35 23.73 57.09 30.53 103.5-17.21-1.67-35.07-2.55-53.37-2.55-18.61 0-36.76.91-54.25 2.63 6.77-47.37 17.65-84.9 30.8-105.56 7.86-.86 15.86-1.3 23.95-1.3 6.84 0 13.61.31 20.29.93z" fill="#2ed1e2"/><path d="m106.442 77.631-7.98 74.1-56.79 10.5c14.37-33.29 36.77-62.3 64.77-84.6z" fill="#2ed1e2"/><g><path d="m461.609 250.472c.01-.51.01-1.03.01-1.54 0-3.226-.078-6.433-.216-9.624-17.453-11.982-37.953-18.684-59.394-19.189-.883-.021-1.769-.031-2.647-.031-10.952 0-21.532 1.613-31.525 4.601l.986 7.326s22.666 19.456 22.666 18.456l2.99 17.223 55.328 3.05z" fill="#02c7dd"/><path d="m391.492 250.481c0-.33 0-.67 0-1 0-9.829-.365-19.514-1.071-29.023-25.849 2.089-49.219 13.135-66.97 30.023z" fill="#6bd9e7"/><path d="m289.145 330.316c0 11.613 1.792 22.949 5.255 33.735l1.813-.191c3.694-26.48 6.103-55.964 6.929-87.241-8.909 15.899-13.997 34.214-13.997 53.697z" fill="#02c7dd"/><path d="m295.656 367.73c3.606 9.985 8.664 19.461 15.133 28.183l27.016 37.247c15.983-20.775 29.173-47.306 38.483-77.742l-80.08 8.44c-.18 1.298-.365 2.588-.552 3.872z" fill="#6bd9e7"/><path d="m401.542 240.122c-50.822-1.197-92.397 39.643-92.397 90.194 0 20.149 6.61 38.751 17.772 53.767l40.785 56.238c6.693 9.229 11.393 19.749 13.801 30.892l3.053 14.127c1.507 6.973 7.675 11.95 14.809 11.95s13.302-4.977 14.809-11.95l3.053-14.127c2.408-11.143 7.108-21.663 13.801-30.892l40.785-56.238c11.432-15.379 18.089-34.518 17.761-55.228-.763-48.143-39.896-87.599-88.032-88.733z" fill="#ee6161"/><path d="m413.223 465.044c-2.408-11.143-7.108-21.663-13.801-30.892l-40.785-56.238c-11.163-15.016-17.772-33.619-17.772-53.767 0-38.226 23.787-70.901 57.356-84.043-49.294.619-89.076 40.772-89.076 90.213 0 20.149 6.61 38.751 17.772 53.767l40.785 56.238c6.693 9.229 11.393 19.749 13.801 30.892l3.053 14.127c1.507 6.973 7.675 11.95 14.809 11.95s13.302-4.977 14.809-11.95l1.718-7.948z" fill="#e94444"/><path d="m366.162 301.579c8.051-9.3 19.94-15.179 33.203-15.179 24.254 0 43.914 19.666 43.914 43.92 0 10.99-4.034 21.035-10.711 28.734-8.051 9.3-19.94 15.179-33.203 15.179-24.254 0-43.914-19.66-43.914-43.914 0-10.99 4.035-21.034 10.711-28.74z" fill="#f9f7f8"/><path d="m125.234 146.843-26.772 4.888-9.08 84.22c-.19 4.81-.3 9.65-.3 14.53h15.61c1.532-36.749 8.726-71.649 20.542-103.638z" fill="#6bd9e7"/><path d="m113.465 190.699c1.351-6.25 3.938-12.042 7.691-17.217l21.852-29.992-44.546 8.241-7.922 73.482c10.297-3.644 18.085-12.118 20.481-23.203z" fill="#2ed1e2"/><path d="m81.685 1.135c-40.691-.958-73.979 31.741-73.979 72.215 0 16.132 5.292 31.027 14.23 43.05l32.655 45.028c5.359 7.389 9.122 15.812 11.05 24.734l2.444 11.311c1.207 5.583 6.145 9.568 11.857 9.568s10.65-3.985 11.857-9.568l2.444-11.311c1.928-8.922 5.691-17.345 11.05-24.734l32.655-45.028c9.153-12.313 14.483-27.637 14.22-44.219-.61-38.547-31.942-70.138-70.483-71.046z" fill="#ee6161"/><path d="m92.141 186.161c-1.928-8.922-5.691-17.345-11.05-24.734l-32.655-45.027c-8.938-12.023-14.23-26.917-14.23-43.05 0-35.347 25.413-64.775 58.949-71.022-3.727-.695-7.572-1.101-11.471-1.193-40.69-.958-73.978 31.741-73.978 72.215 0 16.132 5.292 31.027 14.23 43.05l32.655 45.027c5.359 7.389 9.122 15.812 11.05 24.734l2.444 11.311c1.207 5.583 6.145 9.568 11.857 9.568s10.65-3.985 11.857-9.568l1.393-6.448z" fill="#e94444"/><path d="m53.358 50.341c6.446-7.447 15.965-12.154 26.584-12.154 19.419 0 35.16 15.746 35.16 35.165 0 8.8-3.23 16.842-8.576 23.007-6.446 7.447-15.965 12.154-26.584 12.154-19.419 0-35.16-15.741-35.16-35.16 0-8.8 3.23-16.842 8.576-23.012z" fill="#f9f7f8"/></g><path d="m115.075 351.282c-4.24-1.11-8.412-2.267-12.493-3.482 11.877 40.715 30.995 75.288 54.804 99.833-18.775-28.357-33.263-60.938-42.311-96.351z" fill="#6bd9e7"/></g></svg>