<svg id="Layer_1" enable-background="new 0 0 512 512" height="280" viewBox="0 0 512 512" width="512" xmlns="http://www.w3.org/2000/svg"><g><path d="m418.969 41.625h-110.13l-47.228 47.712-10.886 39.095c-1.468 5.271 2.496 10.488 7.967 10.488h160.785c7.345 0 11.045-8.861 5.881-14.084l-29.178-29.513c-3.226-3.263-3.179-8.528.105-11.733l28.461-27.776c5.307-5.181 1.64-14.189-5.777-14.189z" fill="#b10f61"/><path d="m196.067 0v94.395l136.034.263c3.737.007 7.014-2.492 7.996-6.098l21.266-78.117c1.431-5.261-2.529-10.443-7.98-10.443z" fill="#ff1f3d"/><g><path d="m196.345 208.373c-8.284 0-15-6.716-15-15v-178.373c0-8.284 6.716-15 15-15s15 6.716 15 15v178.373c0 8.284-6.716 15-15 15z" fill="#e7dfdd"/></g><path d="m340.796 206.922c-.47-1-1.005-1.975-1.687-2.843-5.909-7.527-17.681-7.267-23.181.801-.365.535-.664 1.113-.949 1.694l-139.274 273.755 204.344 31.511h121.311c7.897 0 12.977-8.378 9.327-15.38z" fill="#003140"/><path d="m128.231 445.126c21.31 0 38.586-17.275 38.586-38.586l8.889-59.085c0-16.72 4.666-30.198 21.386-30.198 16.72 0 20.432-5.656 20.432 11.064v5.343c0 20.327 26.295 52.996 46.622 52.996 16.73 0 30.87-38.481 35.344-53.765l-90.991-165.732c-5.557-9.474-19.246-9.498-24.836-.043l-94.018 169.885v69.535c0 21.31 17.275 38.586 38.586 38.586z" fill="#fff5f5"/><path d="m211.345 193.373v-178.373c0-8.284-6.716-15-15-15v208.373c8.284 0 15-6.716 15-15z" fill="#dad0cb"/><path d="m196.345 160.06v157.217c.249-.006.492-.019.747-.019 16.72 0 20.432-5.656 20.432 11.064v5.343c0 20.327 26.295 52.996 46.622 52.996 16.73 0 30.87-38.481 35.344-53.765l-90.991-165.732c-2.731-4.655-7.424-7.015-12.154-7.104z" fill="#eceae7"/><path d="m389.269 496.42-89.779-163.525c-4.474 15.284-18.588 26.451-35.318 26.451-20.327 0-36.805-16.478-36.805-36.805v-5.343c0-16.72-13.555-30.275-30.275-30.275-16.72 0-30.275 13.555-30.275 30.275v70.048c0 21.31-17.275 38.586-38.586 38.586-21.31 0-38.586-17.275-38.586-38.586v-50.242l-88.207 159.385c-3.88 7.01 1.19 15.611 9.203 15.611h369.408c7.996 0 13.068-8.57 9.22-15.58z" fill="#006180"/><path d="m299.489 332.895c-4.474 15.284-18.588 26.451-35.318 26.451-20.327 0-36.805-16.478-36.805-36.805v-5.343c0-16.72-13.555-30.275-30.275-30.275-.25 0-.498.013-.747.019v225.058h183.704c7.996 0 13.068-8.57 9.22-15.58z" fill="#004960"/></g></svg>