<?xml version="1.0" encoding="UTF-8"?>
<!-- Generator: Adobe Illustrator 24.1.1, SVG Export Plug-In . SVG Version: 6.00 Build 0)  -->
<svg xmlns="http://www.w3.org/2000/svg" xmlns:xlink="http://www.w3.org/1999/xlink" version="1.1" id="Capa_1" x="0px" y="0px" viewBox="0 0 512 512" style="enable-background:new 0 0 512 512;" xml:space="preserve" width="512" height="200">
<g>
	<g>
		<g>
			<g>
				<path style="fill-rule:evenodd;clip-rule:evenodd;fill:#446D00;" d="M179.056,174.423c-0.19-6.608,0.776-14.412,1.158-21.678      c0.121-2.38-0.2-5.086,0.293-7.228c0.502-2.183,2.664-4.359,4.039-6.935c8.594-16.06,13.824-36.636,17.923-57.52      c3.384-17.227,5.322-37.182,7.804-56.94c1.171-9.319,0.744-22.487,9.25-23.99c2.747-0.487,5.987,0.446,7.512,1.735      c4.211,3.549,3.695,15.89,3.467,25.145c-0.878,36.862-5.057,70.889-15.609,98.273c-2.621,6.822-5.819,12.934-9.245,19.077      c-5.122,9.207-10.881,16.954-18.207,24.28C185.085,170.992,182.747,174.18,179.056,174.423z"/>
				<g>
					<path style="fill-rule:evenodd;clip-rule:evenodd;fill:#F6D300;" d="M219.812,6.491c4.481-1.913,3.779,5.546,0,4.334       C218.845,10.513,217.362,7.532,219.812,6.491z"/>
					<path style="fill-rule:evenodd;clip-rule:evenodd;fill:#F6D300;" d="M218.078,18.051c4.676-1.337,4.444,5.484,1.158,5.784       C215.889,24.133,214.387,19.11,218.078,18.051z"/>
					<path style="fill-rule:evenodd;clip-rule:evenodd;fill:#F6D300;" d="M226.17,29.612c1.845,1.885,0.042,5.164-2.891,3.759       C221.536,31.582,223.144,28.113,226.17,29.612z"/>
					<path style="fill-rule:evenodd;clip-rule:evenodd;fill:#F6D300;" d="M215.768,37.707c3.672-0.795,6.368,1.078,6.647,4.333       c0.665,7.759-10.695,7.502-10.695,0.58C211.719,40.44,212.561,38.396,215.768,37.707z"/>
					<path style="fill-rule:evenodd;clip-rule:evenodd;fill:#F6D300;" d="M216.344,53.892c4.987-1.868,4.374,5.112,1.157,5.201       C215.763,59.144,212.491,55.336,216.344,53.892z"/>
					<path style="fill-rule:evenodd;clip-rule:evenodd;fill:#F6D300;" d="M223.279,58.517c1.994-1.501,1.678,2.858-0.288,1.156       C223.014,59.214,222.852,58.569,223.279,58.517z"/>
					<path style="fill-rule:evenodd;clip-rule:evenodd;fill:#F6D300;" d="M210.274,69.789c5.266-1.958,6.215,5.751,2.022,6.36       C208.619,76.68,206.137,71.33,210.274,69.789z"/>
					<path style="fill-rule:evenodd;clip-rule:evenodd;fill:#F6D300;" d="M218.654,81.349c0.256,2.096-2.831,2.202-3.175,0.58       C215.224,79.836,218.31,79.728,218.654,81.349z"/>
					<path style="fill-rule:evenodd;clip-rule:evenodd;fill:#F6D300;" d="M206.518,90.6c6.112-1.481,5.913,7.577,0.865,7.516       C203.069,98.062,201.991,91.696,206.518,90.6z"/>
					<path style="fill-rule:evenodd;clip-rule:evenodd;fill:#F6D300;" d="M217.501,101.874c0.567,1.175,0.312,2.913-0.581,3.467       C211.882,106.291,214.067,99.113,217.501,101.874z"/>
					<path style="fill-rule:evenodd;clip-rule:evenodd;fill:#F6D300;" d="M200.736,113.146c4.402-1.76,4.778,5.166,1.153,5.202       C199.048,118.377,197.975,114.25,200.736,113.146z"/>
					<path style="fill-rule:evenodd;clip-rule:evenodd;fill:#F6D300;" d="M209.693,129.041c-0.958,1.862-4.82,1.912-5.485,0       C202.52,124.226,211.078,122.78,209.693,129.041z"/>
					<path style="fill-rule:evenodd;clip-rule:evenodd;fill:#F6D300;" d="M190.617,130.201c2.026-0.839,4.035,0.079,4.337,2.021       c0.66,4.25-5.341,5.118-6.071,1.445C188.488,131.644,189.162,130.803,190.617,130.201z"/>
					<path style="fill-rule:evenodd;clip-rule:evenodd;fill:#F6D300;" d="M190.617,147.541c7.246-1.945,7.762,8.851,1.446,8.962       C186.136,156.602,186.205,148.729,190.617,147.541z"/>
				</g>
			</g>
			<g>
				<path style="fill-rule:evenodd;clip-rule:evenodd;fill:#ADBC00;" d="M118.072,250.44c0.455,5.327,1.474,10.089,2.022,15.32      c-2.412,1.303-5.243,1.154-8.385,0.576c-6.08-1.119-12.406-2.351-16.761-4.915c-6.54-3.844-12.253-10.921-17.054-18.207      c-4.662-7.074-8.901-15.606-11.56-23.703c-2.789-8.489-5.104-18.33-5.206-30.06c-0.042-5.075,0.376-11.156,0.869-16.764      c0.73-8.281,1.06-17.889,8.674-19.076c12.053-1.877,13.075,12.478,14.739,22.834c4.197,26.136,5.304,55.265,22.256,67.925      C110.71,246.646,113.354,247.628,118.072,250.44z"/>
				<g>
					<path style="fill-rule:evenodd;clip-rule:evenodd;fill:#F6D300;" d="M72.111,160.548c0.218-0.651,1.622-0.112,2.315-0.287       c4.072,3.213-3.105,6.945-3.756,2.89C70.475,161.931,71.172,161.218,72.111,160.548z"/>
					<path style="fill-rule:evenodd;clip-rule:evenodd;fill:#F6D300;" d="M72.111,170.376c4.221-0.803,3.621,5.225,0.288,5.201       C70.029,175.562,68.332,171.091,72.111,170.376z"/>
					<path style="fill-rule:evenodd;clip-rule:evenodd;fill:#F6D300;" d="M69.508,183.094c1.934-0.546,4.281,0.591,4.337,2.889       c0.102,3.965-6.391,4.911-6.647,0.29C67.11,184.699,67.696,183.607,69.508,183.094z"/>
					<path style="fill-rule:evenodd;clip-rule:evenodd;fill:#F6D300;" d="M84.833,192.052c-1.901,3.092-6.624,1.267-5.494-2.31       C80.19,187.033,85.972,187.299,84.833,192.052z"/>
					<path style="fill-rule:evenodd;clip-rule:evenodd;fill:#F6D300;" d="M71.823,197.545c6.038-2.23,6.336,6.675,1.738,6.937       C70.117,204.679,67.705,199.065,71.823,197.545z"/>
					<path style="fill-rule:evenodd;clip-rule:evenodd;fill:#F6D300;" d="M87.725,210.262c0.297,0.762,0.339,1.774,0.288,2.893       c-1.478,2.167-4.946,1.535-5.206-0.868C82.56,210.036,85.456,208.224,87.725,210.262z"/>
					<path style="fill-rule:evenodd;clip-rule:evenodd;fill:#F6D300;" d="M75.583,213.732c4.932-1.233,4.332,5.629,0.865,5.779       C73.933,219.62,71.367,214.784,75.583,213.732z"/>
					<path style="fill-rule:evenodd;clip-rule:evenodd;fill:#F6D300;" d="M80.785,229.05c9.259-2.111,5.104,12.737-1.738,7.804       C76.318,234.881,77.117,229.887,80.785,229.05z"/>
					<path style="fill-rule:evenodd;clip-rule:evenodd;fill:#F6D300;" d="M94.948,234.542c-0.762,1.059-3.347,1.229-4.048,0       C89.946,230.619,96.073,230.25,94.948,234.542z"/>
					<path style="fill-rule:evenodd;clip-rule:evenodd;fill:#F6D300;" d="M93.502,247.261c6.047-1.9,5.838,6.754,1.446,6.936       C91.201,254.352,89.444,248.533,93.502,247.261z"/>
					<path style="fill-rule:evenodd;clip-rule:evenodd;fill:#F6D300;" d="M106.512,254.487c5.029-1.329,5.369,6.359,0.865,6.359       C103.937,260.846,102.738,255.482,106.512,254.487z"/>
				</g>
			</g>
			<g>
				<path style="fill-rule:evenodd;clip-rule:evenodd;fill:#446D00;" d="M159.692,331.658c-5.568,0.675-9.705-3.205-13.298-6.358      c-10.166-8.93-17.059-22.838-22.544-36.42c-7.423-18.376-11.699-39.859-15.609-63.01c-3.654-21.653-6.865-45.836-7.804-70.815      c-0.697-18.733,0.823-38.237,3.472-55.496c1.343-8.761,1.376-18.676,9.25-19.942c4.504-0.728,8.515,2.182,10.114,4.912      c1.692,2.884,2.068,8.87,2.315,14.163c0.702,15.14,0.168,33.893,0.572,48.559c0.595,21.437,1.845,42.735,3.765,61.566      c1.897,18.695,4.569,40.688,7.795,57.518c3.138,16.309,7.995,29.475,17.054,40.178c1.385,1.63,3.17,3.373,3.472,4.626      c0.679,2.778,0.009,6.09,0.288,8.96C158.939,324.153,159.809,327.543,159.692,331.658z"/>
				<g>
					<path style="fill-rule:evenodd;clip-rule:evenodd;fill:#F6D300;" d="M114.889,91.756c5.485-0.805,4.648,7.006,0.293,6.937       C111.695,98.638,110.096,92.461,114.889,91.756z"/>
					<path style="fill-rule:evenodd;clip-rule:evenodd;fill:#F6D300;" d="M112.574,111.701c2.459-0.73,4.495,0.393,4.63,2.89       c0.265,4.724-6.805,4.742-6.935,0.288C110.236,113.762,110.328,112.369,112.574,111.701z"/>
					<path style="fill-rule:evenodd;clip-rule:evenodd;fill:#F6D300;" d="M114.6,127.885c2.398,1.738,0.572,6.36-2.891,5.205       C108.883,132.144,109.659,125.825,114.6,127.885z"/>
					<path style="fill-rule:evenodd;clip-rule:evenodd;fill:#F6D300;" d="M121.54,130.776c-0.279,0.008-0.228,0.356-0.293,0.579       c-1.873,0.956-3.825-0.395-2.887-2.314C119.569,127.948,122.065,128.465,121.54,130.776z"/>
					<path style="fill-rule:evenodd;clip-rule:evenodd;fill:#F6D300;" d="M107.665,147.541c3.212-1.05,5.615,0.813,5.494,3.759       c-0.209,4.954-7.879,5.037-8.097,0C105.011,150.048,105.378,148.291,107.665,147.541z"/>
					<path style="fill-rule:evenodd;clip-rule:evenodd;fill:#F6D300;" d="M122.986,157.367c1.097,8.001-9.134,6.954-8.385,0.868       C115.093,154.258,121.294,153.521,122.986,157.367z"/>
					<path style="fill-rule:evenodd;clip-rule:evenodd;fill:#F6D300;" d="M112.866,171.821c-1.106,1.175-2.524,0.728-3.179-0.578       C109.706,168.952,113.499,168.956,112.866,171.821z"/>
					<path style="fill-rule:evenodd;clip-rule:evenodd;fill:#F6D300;" d="M109.687,187.14c1.306-0.581,2.705,0.051,2.603,1.733       C112.039,192.89,105.996,188.787,109.687,187.14z"/>
					<path style="fill-rule:evenodd;clip-rule:evenodd;fill:#F6D300;" d="M118.072,189.163c3.751-1.24,3.956,4.246,1.158,4.625       C116.683,194.129,114.781,190.247,118.072,189.163z"/>
					<path style="fill-rule:evenodd;clip-rule:evenodd;fill:#F6D300;" d="M115.181,197.545c6.452-0.744,6.242,9.466,0,9.249       C109.91,206.614,109.176,198.236,115.181,197.545z"/>
					<path style="fill-rule:evenodd;clip-rule:evenodd;fill:#F6D300;" d="M113.448,211.131c5.21-1.346,5.355,6.647,0.865,6.647       C110.431,217.777,109.366,212.181,113.448,211.131z"/>
					<path style="fill-rule:evenodd;clip-rule:evenodd;fill:#F6D300;" d="M122.697,215.754c5.629-1.756,6.638,7.158,1.446,7.227       C120.429,223.03,118.533,217.053,122.697,215.754z"/>
					<path style="fill-rule:evenodd;clip-rule:evenodd;fill:#F6D300;" d="M120.964,235.41c0.781,4.446-4.286,3.792-4.337,1.155       C116.59,234.575,119.555,233.383,120.964,235.41z"/>
					<path style="fill-rule:evenodd;clip-rule:evenodd;fill:#F6D300;" d="M128.187,251.307c2.561-0.754,3.505,0.33,3.751,2.023       c0.72,4.794-7.4,4.678-5.778-0.578C126.407,251.981,127.002,251.657,128.187,251.307z"/>
					<path style="fill-rule:evenodd;clip-rule:evenodd;fill:#F6D300;" d="M124.427,267.492c1.501-0.349,2.961,0.768,2.315,2.602       C125.454,273.767,119.946,268.539,124.427,267.492z"/>
					<path style="fill-rule:evenodd;clip-rule:evenodd;fill:#F6D300;" d="M134.257,284.546c2.719-0.392,4.95,0.94,5.49,3.179       c2.031,8.395-9.887,8.045-9.822,1.445C129.939,286.872,130.878,285.035,134.257,284.546z"/>
					<path style="fill-rule:evenodd;clip-rule:evenodd;fill:#F6D300;" d="M142.926,305.357c0.293,2.565-0.562,3.824-2.022,4.048       C135.387,310.253,138.404,300.639,142.926,305.357z"/>
					<path style="fill-rule:evenodd;clip-rule:evenodd;fill:#F6D300;" d="M149.866,309.113c6.721-0.834,6.591,9.255,0.869,9.54       C145.25,318.929,143.433,309.916,149.866,309.113z"/>
				</g>
			</g>
			<g>
				<path style="fill-rule:evenodd;clip-rule:evenodd;fill:#ADBC00;" d="M189.176,378.195c-0.846-8.744-2.617-19.244-4.044-28.325      c-0.205-1.271-0.669-2.972-0.586-3.757c0.172-1.545,2.58-4.943,3.76-6.939c9.138-15.403,16.603-33.905,21.967-52.893      c6.052-21.414,11.054-47.166,14.451-71.104c5.35-37.684,6.889-77.775,14.451-113.885c1.074-5.105,2.914-11.512,4.918-16.473      c2.305-5.715,5.917-11.164,11.56-11.272c10.603-0.208,11.667,11.704,11.272,22.254c-0.297,8.102-0.372,16.226-0.869,23.123      c-1.083,15.1-2.612,30.39-4.044,43.934c-3.049,28.866-5.843,58.708-10.119,85.845c-2.245,14.297-4.569,27.715-8.376,39.887      c-7.558,24.142-18.741,45.173-31.798,64.168c-3.226,4.695-6.452,9.419-10.119,13.872      C198.077,370.919,194.405,375.717,189.176,378.195z"/>
				<g>
					<path style="fill-rule:evenodd;clip-rule:evenodd;fill:#F6D300;" d="M252.182,84.243c6.419-2.016,5.304,6.647,1.162,6.647       C250.861,90.89,247.557,85.695,252.182,84.243z"/>
					<path style="fill-rule:evenodd;clip-rule:evenodd;fill:#F6D300;" d="M264.035,96.96c0.781,4.473-4.244,3.721-4.337,1.156       C259.633,96.08,262.547,94.97,264.035,96.96z"/>
					<path style="fill-rule:evenodd;clip-rule:evenodd;fill:#F6D300;" d="M251.317,101.006c0.604,1.207,0.195,2.798-0.576,3.467       C245.237,105.625,247.636,98.143,251.317,101.006z"/>
					<path style="fill-rule:evenodd;clip-rule:evenodd;fill:#F6D300;" d="M256.23,119.215c1.683,3.19-2.608,5.405-4.62,3.179       C249.946,119.137,254.166,117.008,256.23,119.215z"/>
					<path style="fill-rule:evenodd;clip-rule:evenodd;fill:#F6D300;" d="M241.784,120.082c4.29-1.228,5.071,4.938,2.017,5.781       C240.231,126.85,237.228,121.383,241.784,120.082z"/>
					<path style="fill-rule:evenodd;clip-rule:evenodd;fill:#F6D300;" d="M245.246,136.268c3.375-1.065,5.959,0.769,5.782,4.047       c-0.246,4.65-7.358,5.035-8.385,1.156C241.974,138.919,242.709,137.073,245.246,136.268z"/>
					<path style="fill-rule:evenodd;clip-rule:evenodd;fill:#F6D300;" d="M257.099,140.892c0.167,0.94-0.195,1.344-0.288,2.026       c-1.162,0.102-2.115-0.005-2.315-0.867C254.413,140.389,256.193,140.011,257.099,140.892z"/>
					<path style="fill-rule:evenodd;clip-rule:evenodd;fill:#F6D300;" d="M245.535,161.125c-1.724,0.152-2.417-0.316-2.598-1.155       C242.183,156.498,248.756,158.161,245.535,161.125z"/>
					<path style="fill-rule:evenodd;clip-rule:evenodd;fill:#F6D300;" d="M254.496,159.102c3.923-1.686,4.337,4.849,1.446,5.204       C253.278,164.629,251.698,160.306,254.496,159.102z"/>
					<path style="fill-rule:evenodd;clip-rule:evenodd;fill:#F6D300;" d="M246.692,166.908c2.877-0.962,4.053,0.536,4.337,2.023       c0.897,4.674-5.578,5.524-6.359,1.735C244.145,168.137,244.986,167.481,246.692,166.908z"/>
					<path style="fill-rule:evenodd;clip-rule:evenodd;fill:#F6D300;" d="M237.73,177.891c4.295-1.507,4.263,5.192,0.869,5.202       C235.797,183.101,234.9,178.886,237.73,177.891z"/>
					<path style="fill-rule:evenodd;clip-rule:evenodd;fill:#F6D300;" d="M249.876,189.451c1.985-0.779,4.146,0.231,4.332,2.311       c0.349,3.917-5.187,4.562-6.071,1.448C247.482,190.906,248.389,190.032,249.876,189.451z"/>
					<path style="fill-rule:evenodd;clip-rule:evenodd;fill:#F6D300;" d="M235.997,203.037c2.231-0.988,4.328,0.1,4.625,2.024       c0.66,4.249-5.898,5.622-6.354,1.156C234.123,204.887,234.556,203.676,235.997,203.037z"/>
					<path style="fill-rule:evenodd;clip-rule:evenodd;fill:#F6D300;" d="M239.752,222.981c-0.697-4.632,4.537-3.698,4.342-0.867       C243.945,224.193,241.221,224.76,239.752,222.981z"/>
					<path style="fill-rule:evenodd;clip-rule:evenodd;fill:#F6D300;" d="M232.817,227.026c6.879-1.993,7.535,7.747,2.603,8.673       C230.094,236.697,227.091,228.689,232.817,227.026z"/>
					<path style="fill-rule:evenodd;clip-rule:evenodd;fill:#F6D300;" d="M245.828,229.05c2.026-0.433,3.881,0.41,4.337,2.024       c1.748,6.2-7.112,6.179-7.228,1.446C242.895,230.9,243.318,229.584,245.828,229.05z"/>
					<path style="fill-rule:evenodd;clip-rule:evenodd;fill:#F6D300;" d="M242.644,244.658c1.278-0.195,2.473,0.279,2.891,0.867       c3.268,4.541-6.117,7.085-5.782,1.736C239.827,246.15,240.682,244.962,242.644,244.658z"/>
					<path style="fill-rule:evenodd;clip-rule:evenodd;fill:#F6D300;" d="M231.948,262c-0.693-1.235-1.348-1.55-1.153-3.18       c0.451-3.691,6.21-3.457,6.359,0.288C237.233,261.12,235.643,263.089,231.948,262z"/>
					<path style="fill-rule:evenodd;clip-rule:evenodd;fill:#F6D300;" d="M224.437,258.821c3.156-0.431,5.113,5.032,1.446,6.072       C221.82,266.046,219.523,259.493,224.437,258.821z"/>
					<path style="fill-rule:evenodd;clip-rule:evenodd;fill:#F6D300;" d="M234.551,279.634c2.622-1.048,4.648,0.496,4.337,3.179       c-0.4,3.493-5.471,3.338-6.071,0.287C232.497,281.453,232.738,280.362,234.551,279.634z"/>
					<path style="fill-rule:evenodd;clip-rule:evenodd;fill:#F6D300;" d="M219.523,283.39c2.952-0.612,6.14,1.232,6.647,3.759       c1.683,8.276-11.755,9.834-10.984,0.864C215.373,285.855,216.637,283.989,219.523,283.39z"/>
					<path style="fill-rule:evenodd;clip-rule:evenodd;fill:#F6D300;" d="M230.502,302.466c1.873,4.658-4.788,5.353-4.908,1.736       C225.52,302.02,228.462,300.559,230.502,302.466z"/>
					<path style="fill-rule:evenodd;clip-rule:evenodd;fill:#F6D300;" d="M211.719,309.405c-1.822-4.586,4.978-4.058,3.76-0.579       C215.075,309.962,213.109,310.488,211.719,309.405z"/>
					<path style="fill-rule:evenodd;clip-rule:evenodd;fill:#F6D300;" d="M207.094,321.254c6.098-1.851,6.73,7.359,1.446,7.516       C204.849,328.878,202.232,322.732,207.094,321.254z"/>
					<path style="fill-rule:evenodd;clip-rule:evenodd;fill:#F6D300;" d="M201.312,340.909c-0.525-3.486,3.217-3.183,3.467-1.157       C204.984,341.352,202.669,342.416,201.312,340.909z"/>
					<path style="fill-rule:evenodd;clip-rule:evenodd;fill:#F6D300;" d="M192.931,343.799c4.857,3.848-4.002,7.81-4.049,2.602       C188.869,344.473,190.133,343.497,192.931,343.799z"/>
					<path style="fill-rule:evenodd;clip-rule:evenodd;fill:#F6D300;" d="M201.6,345.822c3.11-0.801,6.303,0.965,6.363,4.335       c0.098,5.971-9.998,7.329-9.831,0C198.179,348.073,199.118,346.464,201.6,345.822z"/>
				</g>
			</g>
			<g>
				<path style="fill-rule:evenodd;clip-rule:evenodd;fill:#6A8700;" d="M205.649,455.947c-12.959,1.974-25.268,4.598-38.152,6.648      c-8.752-28.757-11.053-63.864-13.87-98.852c-1.39-17.196-2.529-34.92-3.472-52.894c-2.761-52.676-3.156-109.426,0.865-162.151      c1.924-25.232,4.713-51.16,10.984-73.415c2.682-9.508,5.74-21.621,15.32-22.546c5.071-0.494,9.018,2.905,10.696,5.78      c3.086,5.277,3.179,14.939,3.179,23.99c0,8.942-0.809,17.783-1.446,25.435c-1.418,17.015-2.97,33.616-4.044,50.004      c-2.175,32.981-2.761,70.3-1.739,103.765C186.14,332.597,195.911,394.677,205.649,455.947z"/>
				<g>
					<path style="fill-rule:evenodd;clip-rule:evenodd;fill:#F6D300;" d="M172.121,61.984c-0.628-3.858,3.342-3.424,3.467-1.156       C175.677,62.447,173.623,63.547,172.121,61.984z"/>
					<path style="fill-rule:evenodd;clip-rule:evenodd;fill:#F6D300;" d="M185.415,66.898c1.046,0.824,1.046,2.645,0,3.469       C182.017,71.366,181.911,65.861,185.415,66.898z"/>
					<path style="fill-rule:evenodd;clip-rule:evenodd;fill:#F6D300;" d="M173.567,68.633c2.98-0.713,2.687,4.029,0.288,4.046       C171.791,72.696,170.699,69.318,173.567,68.633z"/>
					<path style="fill-rule:evenodd;clip-rule:evenodd;fill:#F6D300;" d="M182.812,80.772c4.49-1.125,4.341,5.919,0.293,5.493       C179.8,85.917,179.721,81.55,182.812,80.772z"/>
					<path style="fill-rule:evenodd;clip-rule:evenodd;fill:#F6D300;" d="M168.073,81.64c1.887,1.396,1.027,4.883-0.865,5.201       C163.736,87.43,162.858,80.841,168.073,81.64z"/>
					<path style="fill-rule:evenodd;clip-rule:evenodd;fill:#F6D300;" d="M168.654,94.648c2.543-0.895,4.816,0.671,4.913,2.889       c0.2,4.574-7.149,4.694-7.223,0.287C166.316,96.484,166.716,95.327,168.654,94.648z"/>
					<path style="fill-rule:evenodd;clip-rule:evenodd;fill:#F6D300;" d="M162.583,99.847c-4.583,0.254-1.952-7.014,1.153-3.466       C163.848,98.035,163.713,99.439,162.583,99.847z"/>
					<path style="fill-rule:evenodd;clip-rule:evenodd;fill:#F6D300;" d="M179.926,116.036c-3.784-2.799,2.468-6.703,3.467-3.18       C183.881,114.574,182.459,116.338,179.926,116.036z"/>
					<path style="fill-rule:evenodd;clip-rule:evenodd;fill:#F6D300;" d="M162.002,120.082c-4.857,1.792-2.947-6.581,0.581-2.891       C162.7,118.468,162.504,119.427,162.002,120.082z"/>
					<path style="fill-rule:evenodd;clip-rule:evenodd;fill:#F6D300;" d="M180.214,129.909c1.473-0.583,2.691-0.152,2.891,1.446       C183.737,136.467,175.482,131.782,180.214,129.909z"/>
					<path style="fill-rule:evenodd;clip-rule:evenodd;fill:#F6D300;" d="M166.632,130.201c1.869-0.228,2.854,0.574,3.175,1.733       c1.195,4.289-5.424,5.74-6.071,1.733C163.336,131.177,164.549,130.45,166.632,130.201z"/>
					<path style="fill-rule:evenodd;clip-rule:evenodd;fill:#F6D300;" d="M159.404,146.962c2.422-0.709,4.267,0.545,4.044,3.179       c-0.33,3.973-6.312,3.5-6.354-0.291C157.08,148.759,157.442,147.536,159.404,146.962z"/>
					<path style="fill-rule:evenodd;clip-rule:evenodd;fill:#F6D300;" d="M174.436,154.768c5.471-0.76,5.703,7.829,0.288,7.803       C170.234,162.553,169.342,155.473,174.436,154.768z"/>
					<path style="fill-rule:evenodd;clip-rule:evenodd;fill:#F6D300;" d="M179.056,166.327c-0.813-4.854,5.345-5.033,5.49-1.731       C184.658,166.908,180.953,168.66,179.056,166.327z"/>
					<path style="fill-rule:evenodd;clip-rule:evenodd;fill:#F6D300;" d="M157.666,167.772c-2.124,0.257-3.04-0.581-3.175-1.731       C153.998,161.84,161.677,164.431,157.666,167.772z"/>
					<path style="fill-rule:evenodd;clip-rule:evenodd;fill:#F6D300;" d="M164.317,174.711c0.725,1.513,0.139,3.397-0.869,4.047       C157.368,180.332,159.557,170.69,164.317,174.711z"/>
					<path style="fill-rule:evenodd;clip-rule:evenodd;fill:#F6D300;" d="M177.323,182.516c-0.032,0.832,0.163,1.893-0.293,2.311       C173.097,185.758,175.036,180.04,177.323,182.516z"/>
					<path style="fill-rule:evenodd;clip-rule:evenodd;fill:#F6D300;" d="M162.872,192.632c0.758,2.131-0.065,4.237-1.441,4.625       C155.774,198.842,158.051,188.465,162.872,192.632z"/>
					<path style="fill-rule:evenodd;clip-rule:evenodd;fill:#F6D300;" d="M176.458,200.147c-1.459,0.207-2.189-0.317-2.891-0.868       C172.047,193.991,180.59,196.856,176.458,200.147z"/>
					<path style="fill-rule:evenodd;clip-rule:evenodd;fill:#F6D300;" d="M157.377,205.349c3.918,2.843-2.306,6.907-3.463,3.178       C153.357,206.753,154.589,204.873,157.377,205.349z"/>
					<path style="fill-rule:evenodd;clip-rule:evenodd;fill:#F6D300;" d="M174.436,211.131c-2.789-4.018,3.551-6.027,3.756-2.313       C178.29,210.559,176.523,211.713,174.436,211.131z"/>
					<path style="fill-rule:evenodd;clip-rule:evenodd;fill:#F6D300;" d="M173.855,227.316c-2.129-0.28-3.151-1.664-2.891-4.335       C173.497,220.039,176.863,225.63,173.855,227.316z"/>
					<path style="fill-rule:evenodd;clip-rule:evenodd;fill:#F6D300;" d="M160.85,227.026c1.748,1.518,1.246,5.265-0.581,5.783       C155.774,234.087,154.891,224.825,160.85,227.026z"/>
					<path style="fill-rule:evenodd;clip-rule:evenodd;fill:#F6D300;" d="M159.404,243.214c2.092,1.872,0.8,5.013-1.446,5.202       C153.738,248.764,153.761,241.252,159.404,243.214z"/>
					<path style="fill-rule:evenodd;clip-rule:evenodd;fill:#F6D300;" d="M169.23,252.461c4.035,3.438-3.016,7.068-3.756,2.89       C165.149,253.525,166.279,252.027,169.23,252.461z"/>
					<path style="fill-rule:evenodd;clip-rule:evenodd;fill:#F6D300;" d="M155.932,265.47c2.482-0.671,3.607,0.572,3.76,2.311       c0.349,3.974-5.871,4.524-6.066,0.58C153.538,266.635,154.282,265.92,155.932,265.47z"/>
					<path style="fill-rule:evenodd;clip-rule:evenodd;fill:#F6D300;" d="M175.296,265.47c5.294-1.865,5.127,6.078,1.45,6.359       C173.126,272.105,171.908,266.667,175.296,265.47z"/>
					<path style="fill-rule:evenodd;clip-rule:evenodd;fill:#F6D300;" d="M169.518,277.319c2.05,2.07,0.874,5.424-1.738,5.493       C163.518,282.923,163.648,275.323,169.518,277.319z"/>
					<path style="fill-rule:evenodd;clip-rule:evenodd;fill:#F6D300;" d="M170.964,290.905c-0.432-0.471-0.432-2.132,0-2.601       C174.887,286.243,174.887,292.964,170.964,290.905z"/>
					<path style="fill-rule:evenodd;clip-rule:evenodd;fill:#F6D300;" d="M157.094,288.592c6.294-1.818,5.503,8.85-0.576,6.939       C153.566,294.604,154.11,289.452,157.094,288.592z"/>
					<path style="fill-rule:evenodd;clip-rule:evenodd;fill:#F6D300;" d="M177.323,310.271c0.906-0.234,1.497-0.479,2.315-0.29       c3.635,0.853,3.723,7.17,0.288,8.092C174.613,319.506,171.843,311.681,177.323,310.271z"/>
					<path style="fill-rule:evenodd;clip-rule:evenodd;fill:#F6D300;" d="M167.208,311.139c0.251,1.503-0.451,2.049-1.734,2.022       c-0.13-0.258-0.256-0.516-0.581-0.578C164.554,310.858,166.079,310.564,167.208,311.139z"/>
					<path style="fill-rule:evenodd;clip-rule:evenodd;fill:#F6D300;" d="M160.557,332.526c3.388-1.012,7.869,1.042,7.223,5.204       c-0.925,6.042-11.774,4.023-10.114-2.602C157.921,334.122,158.865,333.032,160.557,332.526z"/>
					<path style="fill-rule:evenodd;clip-rule:evenodd;fill:#F6D300;" d="M179.349,336.285c1.878,3.904-3.784,5.057-4.625,2.313       C173.962,336.132,177.179,334.176,179.349,336.285z"/>
					<path style="fill-rule:evenodd;clip-rule:evenodd;fill:#F6D300;" d="M166.051,353.337c0.26,2.31-0.456,3.263-1.734,3.467       C159.636,357.554,162.351,348.962,166.051,353.337z"/>
					<path style="fill-rule:evenodd;clip-rule:evenodd;fill:#F6D300;" d="M185.132,360.275c1.947,4.48-4.17,5.354-4.625,2.024       C180.191,360.036,182.938,358.25,185.132,360.275z"/>
					<path style="fill-rule:evenodd;clip-rule:evenodd;fill:#F6D300;" d="M171.252,369.235c5.057-1.414,5.369,6.408,0.869,6.358       C168.854,375.559,167.394,370.318,171.252,369.235z"/>
					<path style="fill-rule:evenodd;clip-rule:evenodd;fill:#F6D300;" d="M163.16,385.71c0,0.768,0.111,1.651-0.288,2.022       c-0.479,0-0.962,0-1.441,0C160.125,386.678,161.556,384.553,163.16,385.71z"/>
					<path style="fill-rule:evenodd;clip-rule:evenodd;fill:#F6D300;" d="M170.676,389.757c0.985-0.256,2.463,0.058,2.603,1.733       C173.739,396.995,164.856,391.268,170.676,389.757z"/>
					<path style="fill-rule:evenodd;clip-rule:evenodd;fill:#F6D300;" d="M185.708,398.428c2.668-0.754,4.685,0.277,5.201,2.313       c1.594,6.276-8.097,7.868-8.097,1.445C182.812,400.218,183.635,399.014,185.708,398.428z"/>
					<path style="fill-rule:evenodd;clip-rule:evenodd;fill:#F6D300;" d="M164.894,406.811c1.938-0.367,3.965,0.564,4.337,2.891       c0.958,6.033-8.915,4.989-6.935-1.157C162.579,407.648,163.471,407.079,164.894,406.811z"/>
					<path style="fill-rule:evenodd;clip-rule:evenodd;fill:#F6D300;" d="M177.03,423.863c-2.199,0.827-3.923-0.05-4.044-1.733       C172.716,418.309,179.74,419.246,177.03,423.863z"/>
					<path style="fill-rule:evenodd;clip-rule:evenodd;fill:#F6D300;" d="M188.883,428.777c5.206-1.2,3.24,7.196-0.864,5.204       C186.526,433.257,185.81,429.485,188.883,428.777z"/>
					<path style="fill-rule:evenodd;clip-rule:evenodd;fill:#F6D300;" d="M176.17,441.785c2.529-0.728,4.815,0.504,4.908,3.179       c0.167,4.842-7.154,5.106-7.512,0.579C173.386,443.256,174.283,442.325,176.17,441.785z"/>
				</g>
			</g>
		</g>
		<g>
			<g>
				<g>
					<path style="fill-rule:evenodd;clip-rule:evenodd;fill:#6A8700;" d="M225.306,312.006c9.664-1.922,12.936,7.399,14.447,15.606       c1.441,7.79,1.501,14.516,2.315,22.836c1.353,13.827,4.295,32.888,9.543,40.755c1.339,2.009,2.937,3.635,5.489,5.201       c5.759,3.538,11.89,2.996,14.451,8.382c0.678,1.424-0.033,3.418,0.288,5.782c0.256,1.882,1.966,3.807,1.446,6.647       c-1.357,7.423-11.923,6.979-19.076,4.047c-8.041-3.298-15.781-9.876-20.81-16.765c-5.183-7.095-8.659-16.183-11.848-25.725       c-3.983-11.888-8.185-31.064-6.071-49.137C216.456,321.241,217.381,313.58,225.306,312.006z"/>
					<path style="fill-rule:evenodd;clip-rule:evenodd;fill:#446D00;" d="M236.285,371.258c-5.73-16.254-6.959-36.629-6.945-59.382       c-0.368-0.059-0.752-0.092-1.146-0.108c-4.328,46.048,5.77,86.858,38.731,98.512c0.116-5.606-5.652-6.719-8.669-8.671       C247.631,394.737,240.933,384.431,236.285,371.258z"/>
					<path style="fill-rule:evenodd;clip-rule:evenodd;fill:#446D00;" d="M231.66,379.063c-7.986-16.787-11.774-36.81-14.333-59.59       c-0.336,0.987-0.601,2.046-0.828,3.149c0.861,22.761,5.353,42.749,12.85,59.04c6.452,14.011,14.925,24.012,27.173,31.797       c3.026,1.926,5.885,4.127,8.957,5.78c0.897,0.483,2.44,1.715,2.891,0.866c0.507-3.198-2.147-4.32-4.048-5.492       c-2.073-1.277-4.313-2.642-6.066-3.757C245.93,403.018,238.242,392.88,231.66,379.063z"/>
				</g>
				<g>
					<path style="fill-rule:evenodd;clip-rule:evenodd;fill:#ADBC00;" d="M303.632,228.472c5.931-1.2,10.073,2.445,10.696,8.96       c0.502,5.207-0.112,8.941,0.288,13.585c0.878,10.118,2.863,20.671,5.782,26.592c1.748,3.552,4.639,5.409,5.489,8.672       c0.386,1.463,0.167,3.455,0.293,4.913c0.139,1.644,0.785,2.947,0.283,4.913c-0.711,2.817-4.211,5.177-6.354,5.493       c-6.522,0.963-11.806-5.123-14.744-10.116c-3.073-5.23-5.062-12.318-6.642-19.078c-1.701-7.213-2.496-15.164-2.608-23.123       C296.005,240.711,295.888,230.04,303.632,228.472z"/>
					<g>
						<path style="fill-rule:evenodd;clip-rule:evenodd;fill:#446D00;" d="M321.263,293.505c-3.291-3.179-6.689-4.949-9.533-8.67        c-4.815-6.292-6.317-17.852-7.228-28.616c-0.442-5.178-0.721-10.529-0.869-15.894c-0.106-3.945,0.35-7.997-0.045-11.84        c-0.703,0.146-1.323,0.388-1.901,0.677c-1.282,23.592-2.258,50.653,11.196,62.033c2.756,2.33,6.456,4.799,10.119,5.781        C323.773,295.492,321.979,294.191,321.263,293.505z"/>
						<path style="fill-rule:evenodd;clip-rule:evenodd;fill:#446D00;" d="M320.11,287.15c-0.688-0.95-1.39-1.949-2.022-2.892        c-8.911-13.214-9.427-33.701-9.527-55.568c-0.367-0.126-0.753-0.218-1.148-0.291c-1.914,21.894-0.597,47.553,9.518,59.037        c1.269,1.443,3.203,3.285,5.201,2.602C322.109,288.754,320.733,288.011,320.11,287.15z"/>
					</g>
				</g>
				<g>
					<path style="fill-rule:evenodd;clip-rule:evenodd;fill:#6A8700;" d="M288.028,399.005c-0.335-5.708-0.339-12.523-0.869-18.208       c-0.186-1.992-0.79-4.078-0.576-5.491c0.288-1.964,2.584-3.777,4.044-5.494c3.951-4.638,9.468-10.854,12.136-16.475       c2.12-4.449,3.328-9.352,4.63-14.451c3.719-14.574,5.257-31.731,7.512-49.138c0.66-5.087,1.404-11.01,2.603-16.477       c1.841-8.362,2.998-15.673,10.119-18.496c4.564-1.812,9.459,1.843,10.691,5.202c1.841,5.006,0.088,16.659-0.576,22.256       c-0.897,7.568-2.185,15.33-2.891,20.812c-1.952,15.247-4.193,27.645-8.092,39.598c-4.202,12.872-9.896,22.529-16.185,31.506       c-4.955,7.06-9.952,13.481-16.473,19.076c-0.637,0.543-1.26,0.978-1.734,1.445       C291.022,395.979,290.334,398.335,288.028,399.005z"/>
					<g>
						<path style="fill-rule:evenodd;clip-rule:evenodd;fill:#446D00;" d="M322.16,292.866c1.829-12.207,3.331-24.796,4.102-37.451        c-0.695,0.375-1.322,0.803-1.893,1.275c-3.432,17.744-5.385,36.238-8.214,53.931c-1.083,6.793-1.771,13.61-2.998,20.157        c-2.394,12.796-6.312,24.162-11.737,33.401c-3.997,6.81-9.555,12.561-14.109,18.5c0.079,1.09,0.142,2.21,0.197,3.347        c5.6-6.485,11.411-12.377,16.092-19.741C315.42,347.702,318.074,320.18,322.16,292.866z"/>
						<path style="fill-rule:evenodd;clip-rule:evenodd;fill:#446D00;" d="M294.145,391.451        c6.085-7.274,12.597-13.578,17.737-21.664c11.816-18.587,14.465-46.107,18.56-73.42c1.977-13.225,3.573-26.9,4.272-40.62        c-0.34-0.22-0.694-0.421-1.061-0.599c-4.098,19.257-6.128,39.599-9.217,58.971c-1.083,6.794-1.776,13.615-2.998,20.163        c-2.403,12.792-6.312,24.159-11.737,33.399c-4.104,6.983-9.859,12.853-14.465,18.956c-1.613,2.13-3.649,4.26-4.1,7.221        C292.597,394.026,293.378,392.363,294.145,391.451z"/>
					</g>
				</g>
				<g>
					<path style="fill-rule:evenodd;clip-rule:evenodd;fill:#ADBC00;" d="M300.453,453.346c-10.147-0.033-19.838,0.392-29.483,0.866       c-4.843-13.014-7.298-28.883-9.533-45.377c-5.187-38.256-7.967-89.781,2.887-124.869c2.742-8.86,7.446-23.679,19.657-19.655       c12.439,4.106,9.659,28.972,8.962,43.648c-0.86,18.046-2.022,34.231-2.896,50.581c-0.921,17.462-0.628,35.229,0.581,51.162       c0.637,8.374,1.394,16.462,3.179,23.701C295.61,440.704,298.654,446.929,300.453,453.346z"/>
					<g>
						<path style="fill-rule:evenodd;clip-rule:evenodd;fill:#446D00;" d="M280.713,453.775        c-5.983-27.456-11.281-56.832-12.635-88.007c-1.464-33.936-0.122-68.225,4.526-98.85c-1.002,0.995-1.898,2.167-2.705,3.448        c-2.131,12.438-3.235,26.035-4.126,39.325c-3.447,51.374,1.297,102.78,11.143,144.241        C278.177,453.876,279.446,453.827,280.713,453.775z"/>
						<path style="fill-rule:evenodd;clip-rule:evenodd;fill:#446D00;" d="M286.29,416.059c-2.408-15.906-3.658-33.45-4.337-51.448        c-1.227-32.935-1.604-69.104,3.472-98.85c0.033-0.192,0.093-0.448,0.165-0.74c-0.509-0.274-1.039-0.521-1.611-0.709        c-0.004-0.001-0.008-0.002-0.011-0.003c-5.944,29.233-6.81,65.858-5.19,101.461c0.795,17.508,1.539,35.403,3.756,52.026        c1.537,11.555,4.734,24.31,7.609,35.677c1.187-0.028,2.372-0.058,3.569-0.076C291.042,440.96,288.112,428.124,286.29,416.059z        "/>
					</g>
				</g>
			</g>
			<g>
				<g>
					<path style="fill-rule:evenodd;clip-rule:evenodd;fill:#6A8700;" d="M367.8,249.572c0.251-0.049,2.775-0.551,4.63,0       c5.387,1.608,8.153,8.465,8.669,16.764c0.832,13.408-1.552,31.835-0.581,48.271c0.381,6.404,0.883,18.111,2.891,22.256       c0.906,1.87,2.589,2.276,4.049,3.47c6.633,5.438,0.892,17.048-6.359,18.787c-7.995,1.913-15.279-6.564-18.788-15.32       c-6.684-16.674-4.936-39.58-4.049-60.699c0.353-8.319-0.251-23.701,3.468-29.479       C362.864,251.853,365.295,250.054,367.8,249.572z"/>
					<g>
						<path style="fill-rule:evenodd;clip-rule:evenodd;fill:#446D00;" d="M374.159,246.682c0.465-0.082,0.497,0.273,0.865,0.288        c-1.645,20.929-1.724,49.102,0.293,71.394c0.707,7.81,1.079,15.602,3.463,21.102c1.367,3.132,4.578,5.146,6.075,7.802        c5.959-13.89,8.697-21.519,14.661-35.402c0.423-0.617,0.497-2.538,1.446-1.734c1.404,0.399,0.432,2.528,0.288,3.179        c-0.748,3.242,0.106-0.27-1.074,3.032c-6.126,17.111-11.681,37.187-21.967,50.868c-6.243,8.303-14.777,15.55-22.548,22.835        c-1.408,1.318-2.938,3.493-5.201,3.179c0.098-2.559,2.538-4.157,4.049-5.779c4.588-4.94,9.947-9.382,14.739-14.454        c6.382-6.752,10.974-14.426,14.744-23.99c-9.715-3.862-11.388-15.948-12.434-29.771c-1.664-22.196-0.074-53.826,2.315-71.682        C373.792,247.082,374.145,247.052,374.159,246.682z"/>
						<path style="fill-rule:evenodd;clip-rule:evenodd;fill:#446D00;" d="M366.355,248.128c0.47-0.08,0.497,0.274,0.869,0.289        c0.084,17.68-1.961,37.832-0.581,56.362c0.697,9.312,1.399,18.372,3.179,26.302c1.799,7.999,5.062,14.24,9.25,19.945        c0.339,0.542,2.673,0.586,1.446,1.734c-1.622,2.701-3.677-0.215-4.62-1.154c-9.403-9.337-10.854-25.803-12.141-43.068        c-1.506-20.17,0.479-41.867,2.31-59.541C365.987,248.527,366.336,248.497,366.355,248.128z"/>
					</g>
				</g>
				<g>
					<path style="fill-rule:evenodd;clip-rule:evenodd;fill:#ADBC00;" d="M345.545,415.482c2.129-7.456,4.783-14.382,6.647-22.547       c0.595-2.595,0.535-5.578,1.446-8.092c0.465-1.287,1.78-2.541,3.179-4.046c3.361-3.616,6.359-7.757,9.25-12.142       c7.121-10.797,12.945-24.098,18.207-38.44c2.747-7.478,5.671-21.038,14.744-21.965c6.847-0.705,11.142,4.66,11.272,11.56       c0.107,5.377-1.827,11.497-3.468,16.763c-4.713,15.133-11.867,28.32-20.233,39.888c-8.864,12.254-17.059,22.776-28.326,31.795       C354.432,411.322,350.123,414.095,345.545,415.482z"/>
					<path style="fill-rule:evenodd;clip-rule:evenodd;fill:#446D00;" d="M371.268,384.553       c16.027-17.603,26.058-39.647,34.685-65.034c0.625-1.829,1.52-4.281,2.369-6.811c-0.54-0.863-1.177-1.635-1.918-2.278       c-1.189,2.957-2.264,6.299-3.337,9.089c-1.836,4.765-3.7,9.559-5.494,14.165c-7.288,18.675-16.715,35.86-28.902,49.137       c-4.713,5.13-9.464,10.26-14.456,14.74c-1.627,1.46-4.36,2.842-4.332,4.914c2.44,0.615,4.685-1.435,6.359-2.891       c1.79-1.558,3.607-3.317,5.206-4.914C364.709,391.404,368.191,387.935,371.268,384.553z"/>
					<path style="fill-rule:evenodd;clip-rule:evenodd;fill:#446D00;" d="M399.017,308.25c-0.007,0.001-0.013,0.002-0.019,0.003       c-1.717,3.466-3.162,8.205-4.605,11.951c-1.832,4.762-3.695,9.557-5.494,14.163c-7.288,18.675-16.715,35.86-28.903,49.136       c-2.495,2.718-5.002,5.432-7.55,8.053c-0.072,0.467-0.151,0.93-0.254,1.379c-0.31,1.357-0.647,2.671-0.995,3.968       c0.54-0.525,1.071-1.046,1.576-1.55c3.263-3.265,6.749-6.736,9.826-10.117c16.031-17.603,26.058-39.646,34.689-65.033       c0.985-2.911,2.663-7.396,3.751-11.273c0.056-0.199,0.137-0.434,0.224-0.681C400.549,308.177,399.802,308.169,399.017,308.25z"/>
				</g>
				<g>
					<path style="fill-rule:evenodd;clip-rule:evenodd;fill:#446D00;" d="M338.61,452.769c-9.027,0.123-18.597-0.292-27.173,0.289       c6.601-19.684,14.502-45.032,16.766-71.681c1.315-15.501-0.971-33.395,13.005-35.843c5.359-0.94,10.203,2.955,12.429,6.936       c3.402,6.091,4.741,17.202,4.337,26.883C356.766,408.052,346.935,433.252,338.61,452.769z"/>
					<g>
						<path style="fill:#ADBC00;" d="M349.012,375.306c-0.276-9.984-0.843-19.859-2.037-29.009c-0.477-0.209-0.97-0.379-1.472-0.52        c-0.062,10.334,0.939,20.633,0.618,30.683c-0.344,11.042-1.711,21.332-3.468,31.217c-2.898,16.339-8.839,29.914-13.081,45.092        c1.1,0.008,2.197,0.013,3.292,0.017c1.971-6.222,3.74-11.706,5.452-17.362C343.727,417.558,349.654,398.183,349.012,375.306z"/>
						<path style="fill:#ADBC00;" d="M333.98,403.632c1.302-10.504,1.26-21.268,1.734-31.794c0.436-9.448,3.126-18.002,5.019-26.201        c-0.535,0.11-1.045,0.244-1.531,0.4c-7.463,15.381-5.799,36.312-8.109,56.437c-1.636,14.237-5.755,28.722-6.94,43.355        c-0.183,2.286-0.518,4.677-0.782,6.913c0.976,0,1.953,0.002,2.935,0.007c0.292-1.959,0.516-3.89,0.738-5.763        C328.77,432.395,332.195,418.086,333.98,403.632z"/>
					</g>
				</g>
			</g>
		</g>
	</g>
	<g>
		<path style="fill-rule:evenodd;clip-rule:evenodd;fill:#D7DD00;" d="M344.243,477.775c-0.395-1.353,0.934-2.516,1.785-3.684    c0.739-1.005,1.515-2.167,2.473-3.108c1.785-1.765,4.56-4.478,7.005-4.157c1.79,0.231,2.222,1.627,3.086,3.01    c5.559-4.868,9.166-11.67,15.967-15.932c1.868-1.165,5.587-3.187,7.962-1.602c2.264,1.505,0.446,6.951-0.428,9.301    c-1.376,3.704-2.547,5.876-3.621,8.615c-0.042,0.142-0.186,0.17-0.195,0.347c2.924-3.146,6.359-6.2,10.449-9.015    c3.77-2.599,8.278-5.439,13.521-5.65c8.771-0.35,10.654,8.052,8.743,16.534c-0.363,1.577-0.767,5.095-1.706,5.837    c-0.897,0.708-5.596,0.522-7.735,0.539c-8.283,0.062-16.445,0.328-24.389,0.307c-8.348-0.023-16.571-0.046-25.072-0.44    C349.366,478.55,346.697,478.616,344.243,477.775z"/>
		<path style="fill-rule:evenodd;clip-rule:evenodd;fill:#D7DD00;" d="M131.864,447.735c3.532-3.089,6.461-13.646,14.302-11.21    c2.673,10.359-7.186,14.66-12.369,19.715c-1.469,9.36-3.491,19.523-6.191,28.599c-0.772,2.605-1.343,6.229-4.634,6.57    c-3.76-3.136-1.492-11.187-0.386-17.007c0.493-2.6,1.088-5.26,1.934-8.115c0.781-2.663,2.11-5.456,2.319-7.733    c0.414-4.578-1.776-11.935-1.938-18.552c-0.102-4.427-0.033-12.531,3.482-12.75c3.556-0.23,3.728,5.674,3.867,7.342    C132.658,439.532,132.054,444.11,131.864,447.735z"/>
		<path style="fill-rule:evenodd;clip-rule:evenodd;fill:#ADBC00;" d="M72.841,483.072c0.335,3.4,1.199,6.908,1.422,10.903    c0.381,6.66,1.246,18.543-3.319,18.008c-3.43-0.406-3.072-14.574-3.314-19.908c-0.121-2.692,0.088-5.361,0-8.052    c-3.705-2.669-8.785-5.831-12.801-9.486c-3.546-3.226-9.157-7.823-5.21-14.215c9.505-0.57,13.587,8.155,18.96,13.274    c2.213-11.737,3.867-30.228,10.426-38.396c1.004-1.249,3.37-3.417,5.215-3.312c5.002,0.297,4.527,8.931,3.788,13.273    C85.517,459.799,78.256,471.933,72.841,483.072z"/>
		<g>
			<path style="fill:#D1D1D3;" d="M227.714,443.484c-9.371,4.345-13.842,11.58-21.642,15.844     c-8.818,4.815-22.288,6.712-33.244,9.663c-11.295,3.045-22.683,5.987-31.305,11.598c-5.062,3.291-8.869,7.555-11.676,12.795     h208.252c-0.302-6.043-7.786-12.064-12.987-14.729c-7.386-3.779-16.254-5.335-22.418-8.117     c-9.301-4.198-16.947-11.477-23.19-18.167c-5.28-5.664-10.449-10.929-16.873-14.842     C249.899,436.975,236.308,439.502,227.714,443.484z"/>
			<path style="fill:#A6A6AB;" d="M230.419,431.113c-12.973,1.062-22.897,6.968-31.691,12.755     c-8.102,5.327-16.05,11.909-26.286,16.617c-20.624,9.496-51.432,6.342-65.316,20.876c-2.58,2.696-5.252,7.166-6.098,12.022     h28.819c2.808-5.24,6.614-9.503,11.676-12.795c8.622-5.611,20.01-8.553,31.305-11.598c10.956-2.951,24.426-4.848,33.244-9.663     c7.8-4.264,12.271-11.499,21.642-15.844c8.594-3.982,22.186-6.509,34.917-5.956C254.696,432.694,244.842,429.935,230.419,431.113     z"/>
		</g>
		<g>
			<path style="fill:#D1D1D3;" d="M322.457,449.832c-2.013,2.57-3.035,5.559-3.9,8.712h31.096     c-1.264-6.648-7.725-13.048-13.777-16.613c-0.344,0.043-0.683,0.077-1.055,0.168C330.276,443.21,325.279,446.213,322.457,449.832     z"/>
			<path style="fill:#A6A6AB;" d="M324.386,439.012c-10.463,0.532-17.881,8.902-19.137,19.532h13.308     c0.865-3.153,1.887-6.143,3.9-8.712c2.821-3.62,7.818-6.622,12.364-7.732c0.372-0.091,0.711-0.125,1.055-0.168     c-0.879-0.524-1.753-0.99-2.598-1.377C331.303,439.643,326.483,438.904,324.386,439.012z"/>
		</g>
	</g>
	<g>
		<g>
			<path style="fill-rule:evenodd;clip-rule:evenodd;fill:#8780BE;" d="M311.471,199.8c-0.184,1.593-0.316,3.154-0.312,5.111     c-0.002,1.783,0.239,4.359,2.299,4.196c1.715-0.133,3.007-1.917,3.923-3.064c6.61-8.313,10.384-20.443,13.582-30.234     c0.451-0.297,0.409,0.378,0.565,0.465c1.16,0.624,3.131-1.406,4.06-2.395c4.251-4.526,6.742-10.485,8.983-16.115     c3.744-9.393,6.751-19.102,7.058-30.591c0.077-2.946,0.086-6.108-0.804-9.214c-1.269-4.451-3.918-7.109-7.488-8.131     c-6.549-1.877-15.204,3.01-19.745,6.341c-5.174,3.794-9.445,8.361-13.192,12.907c-7.955,9.673-13.271,19.618-19.183,30.376     c-8.706,15.888-17.019,31.39-22.56,49.632c-0.858,2.841-1.571,5.865-2.24,9.274c-0.525,2.729-1.59,7.543,0.318,10.252     c1.299,1.837,3.891,2.24,6.517,0.837c2.136-1.148,4.03-3.009,5.648-4.847c4.567-5.176,8.594-12.203,11.909-17.795     c-0.005-0.093,0.084-0.135,0.063-0.246c0.081-0.043,0.084-0.137,0.202-0.162c-2.01,5.605-4.402,10.859-5.413,17.458     c-0.318,2.069-0.588,5.937,1.929,6.27c1.811,0.245,3.833-1.373,5.004-2.359c3.709-3.111,6.947-7.383,9.48-11.062     C305.963,211.053,308.643,205.404,311.471,199.8z"/>
			<g>
				<path style="fill-rule:evenodd;clip-rule:evenodd;fill:#FFFFFF;" d="M339.24,157.5c4.848-7.973,8.115-17.397,9.547-27.729      c0.332-2.452,0.479-5.221,0.469-8.191c-0.008-2.65,0.047-5.464-0.505-7.988c-0.552-0.751-1.174-1.404-1.862-1.952      c1.047,5.498,0.478,10.543-0.122,15.28c-0.662,5.18-1.743,10.148-3.288,14.775c-1.499,4.48-3.405,9.015-5.873,13.105      c-2.391,3.97-5.28,8.224-10.251,10.168c0.811-4.571,2.856-12.662,0.816-19.174c-0.744-2.387-2.722-4.569-5.643-3.364      c-1.622,0.669-3.073,2.655-3.765,4.325c-2.389,5.749-1.25,17.547,4.911,20.76c-1.164,3.299-2.684,6.536-4.551,9.417      c-1.806,2.788-3.644,6.044-7.704,7.279c-0.251-0.54,0.088-1.124,0.221-1.689c0.848-3.576,1.599-8.503,0.978-12.99      c-0.362-2.581-1.173-5.109-2.94-6.057c-1.497-0.798-3.798,0.079-4.865,1.392c-1.71,2.105-2.596,6.288-2.015,10.286      c0.588,4.148,2.777,8.008,4.992,10.188c-0.73,2.125-1.892,4.573-3.488,6.726c-1.462,1.979-3.437,4.266-5.936,5.141      c-2.478,0.866-4.521,0.097-5.845-1.563c0.151-1.031,0.66-1.927,0.909-2.891c0.558-2.222,1.316-9.191-2.124-8.808      c-3.451,0.379-4.116,7.959-1.76,11.516c-0.846,2.275-2.391,4.139-4.237,5.95c-1.685,1.664-3.851,3.609-6.552,4.452      c-4.022,1.262-6.085-0.939-7.917-3.441c-0.367,1.043-0.724,2.095-1.073,3.156c2.115,2.338,4.891,3.894,8.56,3.195      c3.291-0.629,6.136-2.799,7.965-4.403c2.099-1.841,3.556-3.986,4.978-6.344c1.952,1.4,3.821,2.689,7.288,1.723      c6.168-1.722,10.026-8.528,11.744-13.071c5.406,0.125,8.808-5.105,10.886-8.313c2.268-3.501,4.055-7.01,5.143-10.485      c3.8-0.294,6.217-2.421,8.488-4.746C336.583,161.328,338.089,159.395,339.24,157.5z M291.384,189.793      c-0.088,0.722-0.212,1.564-0.6,2.12c-0.265-1.942-0.328-3.75,0.583-4.929c0.026,0.109,0.051,0.225,0.072,0.333      C291.426,188.155,291.482,188.991,291.384,189.793z M308.606,182.588c-1.357-1.938-2.872-5.021-3.33-8.436      c-0.332-2.453,0.216-5.083,1.034-6.67c0.314-0.608,0.951-1.465,1.617-1.755c0.656-0.286,1.434,1.451,1.581,1.891      C311.06,172.352,309.477,179.152,308.606,182.588z M324.695,164.602c-1.471-0.632-2.308-2.472-3.051-4.393      c-1.599-4.08-1.729-8.523-0.662-11.82c0.562-1.713,1.843-4.348,3.644-3.825c1.076,0.604,1.555,2.824,1.792,4.54      C327.171,154.512,325.546,160.663,324.695,164.602z"/>
				<g>
					<path style="fill-rule:evenodd;clip-rule:evenodd;fill:#5F5390;" d="M321.983,122.373c-1.288-0.061-1.822,1.192-2.443,2.285       c-0.976,1.718-1.971,3.516-2.67,5.613c-0.36,1.083-0.906,2.453-0.583,3.292c0.207,0.531,1.134,0.997,1.613,0.945       c1.713-0.189,3.026-3.679,3.621-4.996c0.435-0.963,0.748-1.739,1.132-2.94C323.041,125.328,324.14,122.484,321.983,122.373z"/>
					<path style="fill-rule:evenodd;clip-rule:evenodd;fill:#FFFFFF;" d="M311.327,136.147c-2.003,0.015-3.865,4.152-3.333,6.346       c0.256,1.029,1.002,1.703,1.752,1.615c1.267-0.143,1.508-1.736,2.117-3.265c0.474-1.174,1.671-2.4,0.916-3.95       C312.496,136.316,311.864,136.148,311.327,136.147z"/>
					<path style="fill-rule:evenodd;clip-rule:evenodd;fill:#5F5390;" d="M316.103,138.176c-2.069-0.265-2.698,3.848-0.823,3.814       C316.587,141.968,318.046,138.425,316.103,138.176z"/>
				</g>
				<g>
					<path style="fill-rule:evenodd;clip-rule:evenodd;fill:#5F5390;" d="M295.066,160.978c-1.822-0.11-2.573,2.914-3.068,4.288       c-0.233,0.653-2.175,5.356,0.093,5.374c1.69,0.015,2.31-2.948,2.784-3.993C295.307,165.698,298.05,161.152,295.066,160.978z"/>
					<path style="fill-rule:evenodd;clip-rule:evenodd;fill:#FFFFFF;" d="M286.883,172.58c-0.572,0.381-1.966,4.767,0.058,4.679       c0.734-0.035,1.501-1.235,1.636-2.227c0.023-0.189-0.144-0.425-0.144-0.674c-0.012-0.579,0.205-0.892,0.095-1.194       C288.312,172.598,287.694,172.23,286.883,172.58z"/>
				</g>
			</g>
		</g>
		<g>
			<path style="fill-rule:evenodd;clip-rule:evenodd;fill:#5F5390;" d="M391.197,245.537c1.662-3.349,5.752-0.094,8.608,2.394     c7.869,6.871,13.159,13.901,17.484,21.479c5.884,10.308,10.163,19.898,13.215,30.925c2.989,10.82,4.118,21.414,3.767,33.069     c-0.165,5.496-0.579,11.674-2.04,17.424c-1.29,5.045-5.845,16.474-10.898,14.882c-2.392-0.748-4.06-4.161-4.997-6.521     c-2.849-7.145-3.881-14.983-5.239-22.187c-1.971-10.462-3.686-20.098-5.634-29.854c-3.021-15.169-7.307-29.167-11.648-44.105     c-1.397-4.801-3.263-10.208-3.147-14.802C390.688,247.534,390.679,246.588,391.197,245.537z"/>
			<g>
				<path style="fill-rule:evenodd;clip-rule:evenodd;fill:#FFFFFF;" d="M420.622,310.455c1.525,0.513,1.571,2.204,1.799,3.753      c0.349,2.433,0.681,4.965,0.541,7.712c-0.079,1.415-0.067,3.253-0.818,4.08c-0.479,0.521-1.759,0.642-2.298,0.364      c-1.897-0.999-1.832-5.638-1.917-7.431c-0.067-1.318-0.088-2.355,0.023-3.92C418.066,313.393,418.07,309.602,420.622,310.455z"/>
				<path style="fill-rule:evenodd;clip-rule:evenodd;fill:#8780BE;" d="M426.711,331.245c2.322,0.925,2.603,6.557,0.986,8.856      c-0.755,1.079-1.924,1.522-2.766,1.079c-1.397-0.743-0.953-2.696-0.967-4.745c-0.009-1.574-0.843-3.534,0.734-4.988      C425.284,330.904,426.098,330.999,426.711,331.245z"/>
				<path style="fill-rule:evenodd;clip-rule:evenodd;fill:#8780BE;" d="M420.269,331.426c2.529,0.632,1.381,5.675-0.776,4.79      C417.984,335.599,417.905,330.833,420.269,331.426z"/>
			</g>
		</g>
		<g>
			<path style="fill-rule:evenodd;clip-rule:evenodd;fill:#FF4F00;" d="M337.039,26.533c1.471,0.502,2.986,0.626,4.358,1.015     c3.874,1.102,7.537,3.09,10.517,5.163c3.995,2.784,7.576,6.251,10.619,9.744c12.552,14.417,18.309,34.558,24.073,55.002     c2.905,10.316,5.162,20.944,7.242,31.669c4.162,21.426,7.614,44.913,9.454,67.86c1.334,16.595,3.191,36.808-0.579,55.868     c-1.234,6.235-3.091,11.588-7.495,13.208c-4.179,1.539-9.134-1.172-12.055-3.409c-9.106-6.961-15.425-17.909-20.989-27.334     c-8.072-13.689-15.327-27.402-21.844-41.694c-3.289-7.205-6.424-14.674-9.482-22.103c-6.196-15.076-11.706-30.127-13.787-48.713     c-0.785-7.031-1.004-14.321-0.437-22.479c0.172-2.513,0.616-5.137,0.679-7.818c0.019-0.995,1.269-3.176,1.72-4.17     c1.595-3.513,3.333-7.288,4.906-10.957c2.113-4.943,4.227-10.262,6.063-15.309c3.784-10.418,7.925-21.389,6.875-35.269     C336.597,26.663,336.978,26.19,337.039,26.533z"/>
			<path style="fill-rule:evenodd;clip-rule:evenodd;fill:#FFFFFF;" d="M335.228,34.129c6.733-2.174,15.056,0.778,19.59,4.073     c3.051,2.217,5.164,5.099,6.868,8.197c3.567,6.501,5.878,14.987,3.886,24.434c-1.652,7.823-5.992,14.848-11.639,19.355     c-5.854,4.671-12.578,8.325-22.351,6.889c-3.335-0.49-6.289-2.054-8.464-3.731c-2.229-1.721-3.872-3.625-5.276-6.373     c5.566-11.697,9.915-24.822,13.835-38.79C332.953,43.645,334.615,39.068,335.228,34.129z"/>
			<g>
				<path style="fill-rule:evenodd;clip-rule:evenodd;fill:#FFD000;" d="M374.931,80.204c1.878-0.478,4.495,3.971,3.712,6.263      c-0.221,0.646-0.953,1.254-2.071,1C374.698,87.037,371.877,80.977,374.931,80.204z"/>
				<path style="fill-rule:evenodd;clip-rule:evenodd;fill:#FFD000;" d="M369.878,89.15c0.811-0.108,1.929,0.418,2.635,1.183      c1.539,1.672,3.833,6.227,3.268,8.519c-0.195,0.789-1.004,1.523-1.541,1.607c-2.04,0.322-3.293-1.912-4.307-3.871      C369.025,94.836,366.248,89.633,369.878,89.15z"/>
				<path style="fill-rule:evenodd;clip-rule:evenodd;fill:#FFD000;" d="M367.587,209.443c1.878-0.478,4.49,3.971,3.709,6.263      c-0.223,0.646-0.955,1.254-2.069,0.999C367.352,216.276,364.533,210.216,367.587,209.443z"/>
				<path style="fill-rule:evenodd;clip-rule:evenodd;fill:#FFD000;" d="M362.532,218.389c0.809-0.109,1.931,0.418,2.633,1.182      c1.543,1.674,3.833,6.227,3.272,8.52c-0.193,0.789-1.009,1.524-1.541,1.607c-2.038,0.322-3.293-1.911-4.307-3.871      C361.681,224.074,358.906,218.872,362.532,218.389z"/>
				<path style="fill-rule:evenodd;clip-rule:evenodd;fill:#FFD000;" d="M381.787,94.691c2.217-0.324,3.842,6.828,0.444,6.036      C380.713,100.375,379.307,95.055,381.787,94.691z"/>
			</g>
			<g>
				<g>
					<path style="fill-rule:evenodd;clip-rule:evenodd;fill:#FFD000;" d="M329.009,68.157c-3.609-0.701-6.221-2.963-8.936-5.193       c-3.105-2.548-5.661-5.906-10.574-6.31c-2.724-0.223-4.453,0.745-6.54,1.549c0.718-10.317,5.408-17.01,11.407-22.23       c4.974-4.334,10.798-7.872,18.955-9.411c1.099-0.208,3.049-0.589,3.461-0.475c0.667,0.182,0.527,0.253,0.655,0.903       c0.537,2.76,0.086,7.458-0.149,10.427C336.309,49.68,332.507,58.818,329.009,68.157z"/>
					<path style="fill-rule:evenodd;clip-rule:evenodd;fill:#FFD000;" d="M307.79,70.977c4.323,3.104,11.874,5.412,18.314,3.987       c-2.366,5.779-5.169,11.06-8.127,16.166c-2.845-1.55-5.199-4.229-7.086-7.069c-2.164-3.265-3.923-7.407-3.131-12.657       C307.769,71.262,307.781,71.119,307.79,70.977z"/>
					<path style="fill-rule:evenodd;clip-rule:evenodd;fill:#5F5390;" d="M318.072,46.382c-2.105-2.238,4.874-6.123,5.048-2.654       C323.206,45.497,320.026,47.367,318.072,46.382z"/>
				</g>
				<g>
					<path style="fill-rule:evenodd;clip-rule:evenodd;fill:#FF4F00;" d="M346.121,63.586c4.588-0.059,10.11,1.695,10.458,5.871       c0.295,3.479-2.35,5.815-4.202,7.001c-4.151,2.661-15.009,4.779-19.766,0.489c-0.965-0.87-1.892-2.612-1.862-4.131       c0.079-3.314,3.258-6.059,5.508-7.196C338.719,64.37,342.614,63.629,346.121,63.586z"/>
					<g>
						<path style="fill:#5F5390;" d="M354.878,55.216c0.635-0.02,1.246-0.277,1.699-0.775c0.848-0.961,0.751-2.442-0.216-3.298        c-2.422-2.139-5.146-3.848-8.127-5.082c-1.204-0.511-2.571,0.06-3.073,1.256c-0.486,1.172,0.089,2.547,1.292,3.055        c2.477,1.034,4.783,2.461,6.807,4.25C353.712,55.028,354.323,55.227,354.878,55.216"/>
						<path style="fill-rule:evenodd;clip-rule:evenodd;fill:#5F5390;" d="M341.094,60.492c0.472-3.061,2.342-5.313,4.169-5.029        c1.834,0.286,2.914,2.993,2.447,6.051c-0.474,3.062-2.345,5.318-4.165,5.034C341.724,66.269,340.627,63.554,341.094,60.492z"/>
					</g>
				</g>
			</g>
		</g>
		<path style="fill-rule:evenodd;clip-rule:evenodd;fill:#FFD000;" d="M357.049,254.159c-2.233,0.69-3.161,3.387-4.56,5.977    c-0.985,1.814-2.066,3.767-4.771,2.813c-1.56-1.983-0.514-4.552,0.146-6.28c2.271-5.892,6.614-9.476,12.638-11.136    c3.988-1.097,8.418-1.381,13.278-1.797c2.024-0.171,4.602-0.451,6.914-0.665c2.907-0.271,5.578,0.029,5.58,1.958    c0.002,1.315-1.439,2.061-2.896,2.659c-3.781,1.545-8.176,2.419-10.795,5.115c-2.368,2.44-4.016,6.721-6.005,10.308    c-0.539,0.979-1.566,2.504-2.877,2.375c-2.292-0.227-1.736-3.993-1.134-6.37c0.655-2.592,1.931-4.663,2.71-6.104    c0.037-0.113,0.153-0.131,0.16-0.275c-2.98,2.251-4.595,6.172-6.693,9.974c-0.755,1.368-1.492,2.657-2.889,2.518    c-2.124-0.213-1.678-3.577-1.174-5.803C355.176,257.262,356.18,255.545,357.049,254.159z"/>
		<g>
			<path style="fill-rule:evenodd;clip-rule:evenodd;fill:#8780BE;" d="M398.613,212.991c0.511,1.93,0.944,3.829,1.288,6.238     c0.314,2.199,0.47,5.408-2.105,5.574c-2.124,0.135-4.032-1.836-5.357-3.089c-9.601-9.073-16.383-23.348-22.044-34.843     c-0.604-0.287-0.432,0.537-0.611,0.673c-1.32,0.973-4.102-1.178-5.422-2.234c-6.029-4.83-10.147-11.728-13.891-18.265     c-6.266-10.909-11.672-22.338-14.068-36.433c-0.614-3.609-1.178-7.503-0.632-11.485c0.783-5.706,3.581-9.444,7.788-11.329     c7.742-3.463,19.26,1.032,25.437,4.337c7.042,3.764,13.101,8.636,18.509,13.578c11.497,10.512,19.794,21.82,28.958,34.035     c13.521,18.03,26.483,35.657,36.502,57.149c1.562,3.343,2.968,6.947,4.39,11.028c1.129,3.266,3.279,9.007,1.404,12.679     c-1.271,2.49-4.39,3.442-7.87,2.173c-2.838-1.035-5.487-2.997-7.811-4.975c-6.528-5.57-12.724-13.518-17.784-19.821     c-0.016-0.116-0.13-0.15-0.121-0.292c-0.114-0.038-0.135-0.154-0.279-0.163c3.453,6.549,7.326,12.598,9.729,20.547     c0.762,2.491,1.773,7.207-1.267,8.062c-2.187,0.618-4.962-1.02-6.584-2.029c-5.108-3.178-9.849-7.87-13.61-11.952     C407.375,225.877,403.082,219.392,398.613,212.991z"/>
			<g>
				<path style="fill-rule:evenodd;clip-rule:evenodd;fill:#FFFFFF;" d="M450.984,212.781c-0.616-1.245-1.241-2.479-1.876-3.7      c-1.816,3.405-3.969,6.476-9.146,5.63c-3.47-0.567-6.479-2.58-8.85-4.331c-2.589-1.908-4.818-3.93-6.264-6.582      c2.285-4.794,0.133-14.011-4.188-13.875c-4.311,0.137-2.15,8.585-1.067,11.222c0.474,1.147,1.262,2.158,1.629,3.401      c-1.341,2.276-3.726,3.585-6.928,2.953c-3.226-0.637-6.061-3.107-8.213-5.287c-2.345-2.374-4.202-5.181-5.473-7.67      c2.343-3.076,4.362-8.212,4.362-13.425c0.005-5.022-1.822-10.016-4.295-12.309c-1.546-1.431-4.537-2.102-6.231-0.861      c-2.013,1.477-2.568,4.734-2.554,7.975c0.019,5.635,1.808,11.572,3.479,15.826c0.265,0.673,0.778,1.331,0.572,2.04      c-5.225-0.81-8.058-4.492-10.767-7.607c-2.807-3.222-5.245-6.944-7.263-10.798c7.026-5.041,6.356-19.77,2.4-26.428      c-1.143-1.936-3.279-4.128-5.396-4.665c-3.802-0.969-5.859,2.065-6.356,5.135c-1.371,8.375,2.577,17.978,4.376,23.468      c-6.463-1.522-10.768-6.255-14.414-10.722c-3.753-4.603-6.898-9.852-9.531-15.102c-2.717-5.429-4.925-11.356-6.649-17.618      c-1.571-5.726-3.169-11.832-2.849-18.782c-0.745,0.793-1.391,1.702-1.936,2.719c-0.238,3.208,0.322,6.661,0.783,9.924      c0.511,3.659,1.171,7.043,2.02,10.003c3.577,12.471,9.257,23.498,16.626,32.468c1.755,2.128,3.946,4.248,6.435,6.166      c3.203,2.465,6.552,4.657,11.281,4.354c1.954,4.09,4.767,8.089,8.176,12.006c3.126,3.586,8.232,9.423,14.87,8.324      c2.91,5.291,8.862,12.99,16.757,14.028c4.441,0.582,6.517-1.333,8.674-3.401c2.171,2.656,4.339,5.041,7.246,6.935      c2.531,1.656,6.419,3.824,10.582,4.021C445.645,218.433,448.793,216.03,450.984,212.781z M376.151,171.971      c-1.743-4.703-4.827-11.992-4.85-18.781c-0.009-2.156,0.191-4.973,1.416-5.908c2.117-0.956,4.162,2.059,5.148,4.074      c1.896,3.872,2.524,9.365,1.264,14.673C378.552,168.524,377.85,170.934,376.151,171.971z M395.378,173.015      c0.102-0.565,0.755-2.84,1.611-2.605c0.872,0.239,1.808,1.184,2.301,1.876c1.287,1.812,2.419,4.955,2.45,8.034      c0.035,4.283-1.285,8.346-2.619,10.971C397.447,187.212,394.293,179.116,395.378,173.015z M421.594,197.138      c-0.265-0.971-0.346-2.013-0.509-3.04c0.012-0.141,0.021-0.283,0.03-0.426c1.327,1.298,1.576,3.534,1.589,5.973      C422.128,199.029,421.831,198.006,421.594,197.138z"/>
				<g>
					<path style="fill-rule:evenodd;clip-rule:evenodd;fill:#5F5390;" d="M372.063,119.497c1.573-0.307,2.452,1.145,3.409,2.381       c1.501,1.946,3.047,3.982,4.274,6.444c0.63,1.268,1.55,2.862,1.297,3.951c-0.158,0.689-1.213,1.428-1.82,1.447       c-2.143,0.069-4.372-3.999-5.329-5.517c-0.711-1.112-1.236-2.008-1.911-3.421C371.282,123.315,369.423,120.012,372.063,119.497       z"/>
					<path style="fill-rule:evenodd;clip-rule:evenodd;fill:#FFFFFF;" d="M387.606,134.586c2.468-0.335,5.489,4.43,5.215,7.227       c-0.125,1.308-0.93,2.274-1.873,2.3c-1.58,0.042-2.161-1.876-3.179-3.652c-0.783-1.362-2.478-2.658-1.818-4.701       C386.198,134.996,386.953,134.676,387.606,134.586z"/>
					<path style="fill-rule:evenodd;clip-rule:evenodd;fill:#5F5390;" d="M382.082,137.922c2.508-0.693,4.002,4.258,1.685,4.548       C382.154,142.676,379.732,138.569,382.082,137.922z"/>
				</g>
				<g>
					<path style="fill-rule:evenodd;clip-rule:evenodd;fill:#5F5390;" d="M411.993,162.299c2.222-0.456,3.679,3.141,4.536,4.747       c0.4,0.758,3.619,6.21,0.825,6.633c-2.08,0.317-3.363-3.227-4.128-4.431C412.53,168.156,408.356,163.042,411.993,162.299z"/>
					<path style="fill-rule:evenodd;clip-rule:evenodd;fill:#FFFFFF;" d="M424.113,175.149c0.767,0.37,3.252,5.529,0.746,5.772       c-0.911,0.088-2.066-1.255-2.408-2.454c-0.058-0.231,0.104-0.55,0.06-0.854c-0.091-0.716-0.411-1.062-0.323-1.451       C422.356,175.424,423.046,174.861,424.113,175.149z"/>
				</g>
			</g>
		</g>
		<g>
			<path style="fill-rule:evenodd;clip-rule:evenodd;fill:#8780BE;" d="M396.703,246.176c0.734-3.667,5.534-1.59,8.941,0.069     c9.382,4.588,16.324,9.997,22.469,16.19c8.371,8.421,14.997,16.566,20.815,26.419c5.699,9.67,9.55,19.604,12.246,30.948     c1.269,5.349,2.473,11.423,2.556,17.358c0.072,5.205-1.352,17.425-6.651,17.206c-2.496-0.104-5.002-2.961-6.517-4.996     c-4.611-6.158-7.651-13.458-10.832-20.062c-4.625-9.59-8.787-18.444-13.208-27.36c-6.865-13.86-14.646-26.258-22.727-39.552     c-2.598-4.274-5.815-9.007-6.891-13.473C396.737,248.238,396.473,247.33,396.703,246.176z"/>
			<g>
				<path style="fill-rule:evenodd;clip-rule:evenodd;fill:#FFFFFF;" d="M447.054,311.793c1.606,0.095,2.089,1.72,2.708,3.157      c0.971,2.259,1.959,4.613,2.533,7.303c0.293,1.385,0.79,3.157,0.274,4.153c-0.328,0.626-1.534,1.081-2.12,0.945      c-2.092-0.468-3.24-4.962-3.793-6.67c-0.411-1.255-0.697-2.253-0.995-3.789C445.353,315.297,444.367,311.635,447.054,311.793z"/>
				<path style="fill-rule:evenodd;clip-rule:evenodd;fill:#5F5390;" d="M458.349,330.279c2.477,0.29,4.216,5.656,3.251,8.296      c-0.451,1.237-1.464,1.972-2.387,1.762c-1.541-0.353-1.622-2.354-2.169-4.33c-0.423-1.513-1.743-3.189-0.59-5.005      C456.878,330.326,457.694,330.2,458.349,330.279z"/>
				<path style="fill-rule:evenodd;clip-rule:evenodd;fill:#FFFFFF;" d="M452.169,332.133c2.608-0.046,2.812,5.119,0.497,4.825      C451.056,336.755,449.738,332.175,452.169,332.133z"/>
			</g>
		</g>
	</g>
</g>















</svg>
