<?xml version="1.0" standalone="no"?><svg xmlns:xlink="http://www.w3.org/1999/xlink" xmlns="http://www.w3.org/2000/svg" viewBox="0 0 1200 654.5488354795222" preserveAspectRatio="xMaxYMax slice"><g transform="scale(1.1900887917809493)"><rect x="0" y="0" width="1008.3333333333334" height="550" fill="#FFFFFF"/><path d="M 120.33 154.66 A 34.33 34.33 0 0 1  154.66 120.33 L 120.33 154.66 A 34.33 34.33 0 0 0 154.66 120.33" fill="#ffffff"/><path d="M 746 104.33 A 66.33 66.33 0 0 1  812.33 170.66 L 746 104.33 A 66.33 66.33 0 0 0 812.33 170.66" fill="#89c6b4"/><rect x="287.6666666666667" y="196" width="66.33333333333333" height="66.33333333333333" fill="#FFFFFF"/><path d="M 287.67 229.17000000000002 A 33.17 33.17 0 0 1  320.84000000000003 196 L 287.67 229.17000000000002 A 33.17 33.17 0 0 0 320.84000000000003 196" fill="#77ca98"/><path d="M 287.67 262.34 A 33.17 33.17 0 0 1  320.84000000000003 229.17 L 287.67 262.34 A 33.17 33.17 0 0 0 320.84000000000003 229.17" fill="#e5f5eb"/><rect x="646.3333333333334" y="188" width="82.33333333333333" height="82.33333333333333" fill="#FFFFFF"/><path d="M 646.33 270.34 A 41.17 41.17 0 0 1  687.5 229.17 L 646.33 270.34 A 41.17 41.17 0 0 0 687.5 229.17" fill="#67c48c"/><path d="M 746 196 A 66.33 66.33 0 0 1  812.33 262.33 L 746 196 A 66.33 66.33 0 0 0 812.33 262.33" fill="#86d0a3"/><rect x="287.6666666666667" y="287.6666666666667" width="66.33333333333333" height="66.33333333333333" fill="#FFFFFF"/><path d="M 371.33 362 A 82.33 82.33 0 0 1  453.65999999999997 279.67 L 371.33 362 A 82.33 82.33 0 0 0 453.65999999999997 279.67" fill="#a7ddbd"/><path d="M 646.33 279.67 A 82.33 82.33 0 0 1  728.6600000000001 362 L 646.33 279.67 A 82.33 82.33 0 0 0 728.6600000000001 362" fill="#ccebd8"/><path d="M 746 354 A 66.33 66.33 0 0 1  812.33 287.67 L 746 354 A 66.33 66.33 0 0 0 812.33 287.67" fill="#7fcd9e"/><path d="M 845.67 295.67 A 50.33 50.33 0 0 1  896 346 L 845.67 295.67 A 50.33 50.33 0 0 0 896 346" fill="#cbe6de"/><rect x="945.3333333333334" y="303.6666666666667" width="34.33333333333333" height="34.33333333333333" fill="#FFFFFF"/><path d="M 945.33 303.67 A 17.17 17.17 0 0 1  962.5 320.84000000000003 L 945.33 303.67 A 17.17 17.17 0 0 0 962.5 320.84000000000003" fill="#a1dab8"/><path d="M 945.33 320.83 A 17.17 17.17 0 0 1  962.5 338 L 945.33 320.83 A 17.17 17.17 0 0 0 962.5 338" fill="#71c894"/><path d="M 962.5 338 A 17.17 17.17 0 0 1  979.67 320.83 L 962.5 338 A 17.17 17.17 0 0 0 979.67 320.83" fill="#d3eede"/><path d="M 204 387.33 A 50.33 50.33 0 0 1  254.32999999999998 437.65999999999997 L 204 387.33 A 50.33 50.33 0 0 0 254.32999999999998 437.65999999999997" fill="#daede7"/><rect x="287.6666666666667" y="379.33333333333337" width="66.33333333333333" height="66.33333333333333" fill="#FFFFFF"/><path d="M 320.83 412.5 A 33.17 33.17 0 0 1  354 445.67 L 320.83 412.5 A 33.17 33.17 0 0 0 354 445.67" fill="#bbe5cc"/><path d="M 371.33 453.65999999999997 A 82.33 82.33 0 0 1  453.65999999999997 371.33 L 371.33 453.65999999999997 A 82.33 82.33 0 0 0 453.65999999999997 371.33" fill="#a8d5c8"/><rect x="646.3333333333334" y="371.33333333333337" width="82.33333333333333" height="82.33333333333333" fill="#FFFFFF"/><path d="M 646.33 412.5 A 41.17 41.17 0 0 1  687.5 371.33 L 646.33 412.5 A 41.17 41.17 0 0 0 687.5 371.33" fill="#abd6ca"/><path d="M 687.5 371.33 A 41.17 41.17 0 0 1  728.67 412.5 L 687.5 371.33 A 41.17 41.17 0 0 0 728.67 412.5" fill="#a3dbb9"/><path d="M 646.33 412.5 A 41.17 41.17 0 0 1  687.5 453.67 L 646.33 412.5 A 41.17 41.17 0 0 0 687.5 453.67" fill="#bde5cd"/><path d="M 687.5 412.5 A 41.17 41.17 0 0 1  728.67 453.67 L 687.5 412.5 A 41.17 41.17 0 0 0 728.67 453.67" fill="#77ca98"/><path d="M 845.67 437.65999999999997 A 50.33 50.33 0 0 1  896 387.33 L 845.67 437.65999999999997 A 50.33 50.33 0 0 0 896 387.33" fill="#9ccfc0"/><path d="M 945.33 429.65999999999997 A 34.33 34.33 0 0 1  979.6600000000001 395.33 L 945.33 429.65999999999997 A 34.33 34.33 0 0 0 979.6600000000001 395.33" fill="#8cd2a8"/><rect x="36.66666666666667" y="495.00000000000006" width="18.33333333333333" height="18.33333333333333" fill="#FFFFFF"/><path d="M 36.67 504.17 A 9.17 9.17 0 0 1  45.84 495 L 36.67 504.17 A 9.17 9.17 0 0 0 45.84 495" fill="#98cdbe"/><path d="M 45.83 504.17 A 9.17 9.17 0 0 1  55 495 L 45.83 504.17 A 9.17 9.17 0 0 0 55 495" fill="#65c38a"/><path d="M 36.67 513.34 A 9.17 9.17 0 0 1  45.84 504.17 L 36.67 513.34 A 9.17 9.17 0 0 0 45.84 504.17" fill="#64c38a"/><path d="M 45.83 504.17 A 9.17 9.17 0 0 1  55 513.34 L 45.83 504.17 A 9.17 9.17 0 0 0 55 513.34" fill="#5ec085"/><rect x="120.33333333333334" y="487.00000000000006" width="34.33333333333333" height="34.33333333333333" fill="#FFFFFF"/><path d="M 120.33 504.17 A 17.17 17.17 0 0 1  137.5 487 L 120.33 504.17 A 17.17 17.17 0 0 0 137.5 487" fill="#8cd2a8"/><path d="M 137.5 487 A 17.17 17.17 0 0 1  154.67000000000002 504.17 L 137.5 487 A 17.17 17.17 0 0 0 154.67000000000002 504.17" fill="#8fd3aa"/><path d="M 120.33 521.34 A 17.17 17.17 0 0 1  137.5 504.17 L 120.33 521.34 A 17.17 17.17 0 0 0 137.5 504.17" fill="#9acebf"/><path d="M 137.5 521.34 A 17.17 17.17 0 0 1  154.67000000000002 504.17 L 137.5 521.34 A 17.17 17.17 0 0 0 154.67000000000002 504.17" fill="#59be82"/><path d="M 204 529.33 A 50.33 50.33 0 0 1  254.32999999999998 479 L 204 529.33 A 50.33 50.33 0 0 0 254.32999999999998 479" fill="#acdfc0"/><path d="M 287.67 471 A 66.33 66.33 0 0 1  354 537.33 L 287.67 471 A 66.33 66.33 0 0 0 354 537.33" fill="#b7dcd1"/><path d="M 371.33 463 A 82.33 82.33 0 0 1  453.65999999999997 545.33 L 371.33 463 A 82.33 82.33 0 0 0 453.65999999999997 545.33" fill="#65b49d"/><rect x="458.33333333333337" y="458.33333333333337" width="91.66666666666667" height="91.66666666666667" fill="#FFFFFF"/><path d="M 458.33 504.15999999999997 A 45.83 45.83 0 0 1  504.15999999999997 458.33 L 458.33 504.15999999999997 A 45.83 45.83 0 0 0 504.15999999999997 458.33" fill="#6ec691"/><path d="M 504.17 504.15999999999997 A 45.83 45.83 0 0 1  550 458.33 L 504.17 504.15999999999997 A 45.83 45.83 0 0 0 550 458.33" fill="#f5faf8"/><path d="M 458.33 504.17 A 45.83 45.83 0 0 1  504.15999999999997 550 L 458.33 504.17 A 45.83 45.83 0 0 0 504.15999999999997 550" fill="#6db8a2"/><path d="M 504.17 550 A 45.83 45.83 0 0 1  550 504.17 L 504.17 550 A 45.83 45.83 0 0 0 550 504.17" fill="#85d0a3"/><path d="M 550 458.33 A 91.67 91.67 0 0 1  641.67 550 L 550 458.33 A 91.67 91.67 0 0 0 641.67 550" fill="#b9e4ca"/><path d="M 646.33 463 A 82.33 82.33 0 0 1  728.6600000000001 545.33 L 646.33 463 A 82.33 82.33 0 0 0 728.6600000000001 545.33" fill="#f9fcfb"/><rect x="746" y="471.00000000000006" width="66.33333333333333" height="66.33333333333333" fill="#FFFFFF"/><path d="M 746 504.17 A 33.17 33.17 0 0 1  779.17 471 L 746 504.17 A 33.17 33.17 0 0 0 779.17 471" fill="#dfefea"/><path d="M 779.17 504.17 A 33.17 33.17 0 0 1  812.3399999999999 471 L 779.17 504.17 A 33.17 33.17 0 0 0 812.3399999999999 471" fill="#8fd3aa"/><path d="M 746 504.17 A 33.17 33.17 0 0 1  779.17 537.34 L 746 504.17 A 33.17 33.17 0 0 0 779.17 537.34" fill="#f4fbf7"/><path d="M 779.17 537.34 A 33.17 33.17 0 0 1  812.3399999999999 504.17 L 779.17 537.34 A 33.17 33.17 0 0 0 812.3399999999999 504.17" fill="#92d5ad"/><rect x="845.6666666666666" y="479.00000000000006" width="50.33333333333333" height="50.33333333333333" fill="#FFFFFF"/><path d="M 845.67 479 A 25.17 25.17 0 0 1  870.8399999999999 504.17 L 845.67 479 A 25.17 25.17 0 0 0 870.8399999999999 504.17" fill="#87d0a4"/><path d="M 870.83 504.17 A 25.17 25.17 0 0 1  896 479 L 870.83 504.17 A 25.17 25.17 0 0 0 896 479" fill="#7bbfab"/><path d="M 845.67 504.17 A 25.17 25.17 0 0 1  870.8399999999999 529.34 L 845.67 504.17 A 25.17 25.17 0 0 0 870.8399999999999 529.34" fill="#abd6ca"/><path d="M 870.83 504.17 A 25.17 25.17 0 0 1  896 529.34 L 870.83 504.17 A 25.17 25.17 0 0 0 896 529.34" fill="#b6e3c8"/><path d="M 945.33 521.33 A 34.33 34.33 0 0 1  979.6600000000001 487 L 945.33 521.33 A 34.33 34.33 0 0 0 979.6600000000001 487" fill="#a6ddbc"/></g></svg>