<svg xmlns="http://www.w3.org/2000/svg" version="1.1" xmlns:xlink="http://www.w3.org/1999/xlink" xmlns:svgjs="http://svgjs.com/svgjs" width="1440" height="560" preserveAspectRatio="none" viewBox="0 0 1440 560">
    <g mask="url(&quot;#SvgjsMask1566&quot;)" fill="none">
        <circle r="76.51675588980704" cx="1187.38" cy="175.3" stroke="rgba(72, 99, 156, 1)" stroke-width="2.92" stroke-dasharray="2, 2"></circle>
        <path d="M1400.4 712.08 L1496.1100000000001 687.59L1395.1016515529861 646.6816515529861z" fill="rgba(222, 136, 140, 1)"></path>
        <rect width="312" height="312" clip-path="url(&quot;#SvgjsClipPath1567&quot;)" x="1089.37" y="365.05" fill="url(#SvgjsPattern1568)" transform="rotate(213.94, 1245.37, 521.05)"></rect>
        <rect width="250.92" height="250.92" clip-path="url(&quot;#SvgjsClipPath1569&quot;)" x="1099.7" y="65.06" fill="url(#SvgjsPattern1570)" transform="rotate(145.71, 1225.16, 190.52)"></rect>
        <path d="M1017.74 423.67L1017.72 410.87 1030.21 408.03 1030.19 395.23 1042.67 392.39 1042.65 379.59 1055.14 376.76M1024 428.66L1023.97 415.85 1036.46 413.02 1036.44 400.21 1048.93 397.38 1048.91 384.58 1061.4 381.74M1030.25 433.65L1030.23 420.84 1042.72 418.01 1042.7 405.2 1055.19 402.37 1055.16 389.56 1067.65 386.73" stroke="rgba(222, 136, 140, 1)" stroke-width="2.69"></path>
        <circle r="46.666666666666664" cx="995.04" cy="99.74" fill="rgba(236, 184, 113, 1)"></circle>
        <rect width="86.8" height="86.8" clip-path="url(&quot;#SvgjsClipPath1571&quot;)" x="464.8" y="39" fill="url(#SvgjsPattern1572)" transform="rotate(252.42, 508.2, 82.4)"></rect>
        <rect width="104.8" height="104.8" clip-path="url(&quot;#SvgjsClipPath1573&quot;)" x="-34" y="72.81" fill="url(#SvgjsPattern1574)" transform="rotate(232.01, 18.4, 125.21)"></rect>
        <path d="M149.38 474.66L137.27 478.8 130.57 467.89 118.45 472.03 111.75 461.12 99.63 465.26 92.93 454.34M152.09 467.13L139.98 471.27 133.27 460.36 121.16 464.5 114.46 453.59 102.34 457.73 95.64 446.82" stroke="rgba(72, 99, 156, 1)" stroke-width="1.79" stroke-dasharray="2, 2"></path>
        <rect width="60" height="60" clip-path="url(&quot;#SvgjsClipPath1575&quot;)" x="1229.55" y="315.79" fill="url(#SvgjsPattern1576)" transform="rotate(82.12, 1259.55, 345.79)"></rect>
        <rect width="116.16" height="116.16" clip-path="url(&quot;#SvgjsClipPath1577&quot;)" x="319.11" y="388.77" fill="url(#SvgjsPattern1578)" transform="rotate(314.62, 377.19, 446.85)"></rect>
        <path d="M1425.1100000000001 194.47 L1319.19 74.85L1445.954092210982 60.85590778901806z" stroke="rgba(72, 99, 156, 1)" stroke-width="2.72"></path>
    </g>
    <defs>
        <mask id="SvgjsMask1566">
            <rect width="1440" height="560" fill="#ffffff"></rect>
        </mask>
        <pattern x="0" y="0" width="312" height="6" patternUnits="userSpaceOnUse" id="SvgjsPattern1568">
            <rect width="312" height="3" x="0" y="0" fill="rgba(72, 99, 156, 1)"></rect>
            <rect width="312" height="3" x="0" y="3" fill="rgba(0, 0, 0, 0)"></rect>
        </pattern>
        <clipPath id="SvgjsClipPath1567">
            <circle r="78" cx="1245.37" cy="521.05"></circle>
        </clipPath>
        <pattern x="0" y="0" width="7.38" height="7.38" patternUnits="userSpaceOnUse" id="SvgjsPattern1570">
            <path d="M0 7.38L3.69 0L7.38 7.38" stroke="rgba(236, 184, 113, 1)" fill="none"></path>
        </pattern>
        <clipPath id="SvgjsClipPath1569">
            <circle r="62.73" cx="1225.16" cy="190.52"></circle>
        </clipPath>
        <pattern x="0" y="0" width="8.68" height="8.68" patternUnits="userSpaceOnUse" id="SvgjsPattern1572">
            <path d="M4.34 1L4.34 7.68M1 4.34L7.68 4.34" stroke="rgba(72, 99, 156, 1)" fill="none" stroke-width="1"></path>
        </pattern>
        <clipPath id="SvgjsClipPath1571">
            <circle r="21.7" cx="508.2" cy="82.4"></circle>
        </clipPath>
        <pattern x="0" y="0" width="104.8" height="10.48" patternUnits="userSpaceOnUse" id="SvgjsPattern1574">
            <rect width="104.8" height="5.24" x="0" y="0" fill="rgba(222, 136, 140, 1)"></rect>
            <rect width="104.8" height="5.24" x="0" y="5.24" fill="rgba(0, 0, 0, 0)"></rect>
        </pattern>
        <clipPath id="SvgjsClipPath1573">
            <circle r="26.2" cx="18.4" cy="125.21"></circle>
        </clipPath>
        <pattern x="0" y="0" width="6" height="6" patternUnits="userSpaceOnUse" id="SvgjsPattern1576">
            <path d="M0 6L3 1L6 6" stroke="rgba(236, 184, 113, 1)" fill="none"></path>
        </pattern>
        <clipPath id="SvgjsClipPath1575">
            <circle r="15" cx="1259.55" cy="345.79"></circle>
        </clipPath>
        <pattern x="0" y="0" width="7.26" height="7.26" patternUnits="userSpaceOnUse" id="SvgjsPattern1578">
            <path d="M3.63 1L3.63 6.26M1 3.63L6.26 3.63" stroke="rgba(222, 136, 140, 1)" fill="none" stroke-width="1"></path>
        </pattern>
        <clipPath id="SvgjsClipPath1577">
            <circle r="29.04" cx="377.19" cy="446.85"></circle>
        </clipPath>
    </defs>
</svg>