<?xml version="1.0" encoding="UTF-8"?><svg id="Layer_0_Image" data-name="Layer 0 Image" xmlns="http://www.w3.org/2000/svg" viewBox="0 0 800 600" x="0px" y="0px" 
width="800px" height="200px" 
version="1.1" xmlns:xlink="http://www.w3.org/1999/xlink"><title>1</title><path d="M597.23,336.865c-6.472.159-12.855-1.49-19.359-.908-1.025.092-2.86-.253-3.055-.825-1.937-5.7-8.4-5.016-12.026-8.7-3.21-3.265-3.5-5.849-1.951-9.144,5.98-12.765,11.239-25.819,16.12-39.031,1.285-3.477,2.548-6.982,3.49-10.562.9-3.432,3.848-4.529,6.42-5.478,2.79-1.029,3.12,2.349,4.6,3.795,6.958,6.777,7.163,15.957,9.2,24.5,2.623,11.018,4.986,22.106,7.961,33.028C611.108,332.63,608.2,338.323,597.23,336.865Z"/><path d="M526.383,158.194c.2,4.686-2.8,7.951-8.055,8.566-7.313.856-14.621,1.85-21.961,2.35-6.7.457-10.218-5.016-13.562-9.3-2.3-2.945-.731-7.173,1.639-10.693,7.929-11.778,13.818-24.638,19.21-37.732.94-2.283,1.926-4.382,4.876-4.763,3.2-.412,3.834,2,5.311,3.908,4.413,5.7,5.366,12.562,7.063,19.192C523.3,139.1,525.575,148.509,526.383,158.194Z"/><path d="M511.033,263.038c0,5.921,1.6,10.564-3.958,13.236-1.32.634-2.486,1.494-3.869,1.253-6.215-1.083-12.284-.735-17.961,2.081-4.44,2.2-6.935.482-10.23-2.761-6.327-6.228-6.48-8.734-2.5-16.444,6.369-12.322,13.588-24.31,17.546-37.778a29.825,29.825,0,0,1,2.167-5.726c1.983-3.69,5.579-3.757,8.323-.633,5.785,6.586,6.441,14.869,7.668,22.886C509.518,247.609,510.244,256.152,511.033,263.038Z"/><path d="M515.308,481.445c-6.284-.713-11.323-4.141-15.726-8.275-1.593-1.5-1.423-4.543-.261-6.891,3.9-7.886,5.425-16.637,9.494-24.6,1.922-3.762,2.726-9,4.136-13.52.992-3.182,2.588-6.7,6.411-6.991s5.827,3.2,7.436,5.92c4.117,6.953,5.494,14.948,7.12,22.716,1.779,8.5,2.921,17.136,4.171,25.74.5,3.436-1.805,5.61-1.469,8.725.179,1.66-1.925,1.9-3.925,1.339C526.961,484,521.112,482.8,515.308,481.445Z"/><path d="M428.555,205.543c.014,5.548-2.881,8.139-8.957,7.039-4.976-.9-9.925-.4-14.781-.36-6,.044-9.942-2.594-14.01-6.149-3.751-3.279-3.94-7.083-1.791-10.972a223.781,223.781,0,0,0,16.875-38.769c1.715-5.245,5.268-5.564,8.97-1.412a26.526,26.526,0,0,1,5.538,9.571A196.574,196.574,0,0,1,428.555,205.543Z"/><path d="M329.5,255.325c-4.281-.206-7.963-.068-11.684-.7-8.858-1.5-11.667-4.133-10.221-12.859,1.848-11.154,3.146-22.466,6.681-33.291a24.8,24.8,0,0,1,2.9-6.6c2.386-3.392,5.383-4.411,8.829-1.035a34.735,34.735,0,0,1,7.393,9.7,250.885,250.885,0,0,1,12.548,32.73,8.767,8.767,0,0,1-8.106,11.611C334.868,254.991,331.9,255.2,329.5,255.325Z"/><path d="M421.386,432.773c-3.849.808-7.485,1.966-11.539,1.166-5.975-1.179-12.678-10.105-10.786-15.668,4.2-12.344,6.731-25.135,10.543-37.574.868-2.835,1.478-6.007,5.233-6.465,3.777-.461,5.3,2.474,6.593,5.075,6.5,13.035,10.769,26.922,15.043,40.78,1.263,4.093-.178,7.334-4.35,9.688C428.623,431.75,424.522,430.372,421.386,432.773Z"/><path d="M342.222,141.345c.609,10.8-4.2,15.679-15.043,17.78-5.682,1.1-9.732-1.347-14.111-3.205-5.1-2.165-7.014-6.032-5.519-12.134,1.923-7.852,5.326-15.055,8.161-22.5,2.318-6.086,4.57-12.175,6.575-18.373,1.594-4.926,3.608-4.752,7.683-2.494,7.046,3.9,8.46,10.412,9.515,17.146C340.717,125.443,341.336,133.414,342.222,141.345Z"/><path d="M289.762,381.807A21.872,21.872,0,0,1,293,370.659c4.952-8.58,8.492-17.778,12.187-26.912,3-7.413,3.656-6.834,9.879-2.867,6.477,4.13,8.1,10.261,10.227,16.415,2.305,6.68,4.281,13.5,5.925,20.374,1.5,6.262.232,7.549-5.767,9.611-5.535,1.9-10.632,4.929-16.729,5.327-2.912.19-4.228-.727-5.1-3.243-.787-2.273-2.508-2.111-4.352-1.346C294.272,390.094,289.753,387.135,289.762,381.807Z"/><path d="M329.731,501.092c-6.859-.744-12.816-1.075-18.652-2.095-9.6-1.677-13.677-8.778-11.62-18.444,2.05-9.632,3.976-19.26,7.784-28.4,3.094-7.427,6.725-8.39,12.1-2.646a29.922,29.922,0,0,1,5.684,8.839c4.53,10.966,9.316,21.867,11.646,33.609C337.933,498.316,335.426,501.25,329.731,501.092Z"/><path d="M254.328,237.6c.185,8.379-1.813,9.842-8.975,9.7-4.076-.078-8.181,1.265-12.272,1.973-6.381,1.106-16.056-4.489-17.751-9.912a6.133,6.133,0,0,1,.207-4.746c4.948-11.254,9.782-22.558,14.775-33.792,2.18-4.9,4.7-5.3,8.776-1.626,9.165,8.254,11.068,19.881,14.19,30.9A45.35,45.35,0,0,1,254.328,237.6Zm-14.077-9.926c-1.6-1.495.745-5.41-2.865-6.407-1.262-.349-2.055,1.749-1.59,2.967.864,2.261.069,5.6,3.175,6.483C240.49,231.147,240.252,229.385,240.251,227.67Z"/><path d="M190.545,339.754c1.3-12.88,5.436-25.006,9.852-37,1.886-5.124,4.4-5.216,8.775-1.8a18.078,18.078,0,0,1,6.791,11.806c1.719,11.009,3.125,22.071,4.445,33.137.557,4.67-2.386,7.058-7.077,8.025-7.482,1.542-13.439-1.422-19.259-5.243C190.877,346.588,190.933,343.054,190.545,339.754Z"/><path d="M406.536,334.7c-2.025-.166-4.354-1.064-5.229-.3-3.083,2.695-6.833.845-10.225,2.08-3.617,1.316-9.131-7.591-8.695-12.039.646-6.593,6.345-10.763,7.266-17.378.91-6.533,3.523-12.836,5.5-19.206a4.241,4.241,0,0,1,4.008-3.325c2.355-.124,3.6.938,4.676,3.068,5.949,11.8,9.113,24.62,13.653,36.93C419.994,331.328,413.751,333.724,406.536,334.7Z"/><path d="M512.232,363.033c1.559,6.916-6.065,10.677-11.1,9.4-2.345-.593-4.245-1.376-7.087-.032-3.49,1.65-8.77,3.663-9.674-3.694-.072-.582-1.584-.884-2.229-1.517-4-3.925-4.121-9.559-.459-14.023a11.11,11.11,0,0,0,2.054-3.3c2.764-8.18,8.838-15.053,9.443-24.091.157-2.343,1.027-4.524,3.7-4.947s3.981,1.5,5.073,3.568a17.429,17.429,0,0,1,1.691,2.884A333.828,333.828,0,0,1,512.232,363.033Z"/></svg>