<?xml version="1.0" encoding="UTF-8"?><svg id="Layer_0_Image" data-name="Layer 0 Image" xmlns="http://www.w3.org/2000/svg" viewBox="0 0 800 600" x="0px" y="0px" width="800px" height="200px" 
version="1.1" xmlns:xlink="http://www.w3.org/1999/xlink"><title>1</title><path d="M166.615,404.13h4.494c1.387,1.061.007,2.758,1.057,3.993l3.1.167c1.022-2.107,1.749-5.164,5.394-4.157,1.4.331.288,2.14,1.3,2.6,2.126.7,3.581-.48,5.567-1.564,2.581,3.622,7.281,4.488,10.427,7.731.609,2.49-.482,5.273,1.449,7.708a3.925,3.925,0,0,1-.331,3.827c-2.238,2.115.475,4.281-.247,5.731-1.066,2.138-.218,3.833-.635,5.485,1.928.8,2.609-.231,3.873-1.553.238,5.1,1.067,9.7-1.591,14.171l-3.681.408c.61,2.231-1.494,3.863-1.409,6.08a17.262,17.262,0,0,1-2.855,9.918c-1.552,2.5-1.3,5.121-1.341,7.859l-6.587,6.041c.1.081-.228-.19-.936-.778-.961.8-1.92,2.176-3.144,2.48-1.685.417-2.83,2.194-4.969,1.586-1.5-.426-3.214-.114-4.831-.073a13.581,13.581,0,0,0-4.036.306c-1.6.559-2.956,2.137-4.54,2.348a72.254,72.254,0,0,1-9.245.112c-1.63-3.1-5.2-3.836-8.051-5.108-3.49-1.555-5.149-4.251-6.241-7.167-1.116-2.977.814-6.055,2.217-8.66a23.816,23.816,0,0,1,7.348-8.637c-2.339-3.765-4.488-7.375-1.389-11.578.893-12.2,8.507-21.473,13.954-31.664C162.175,409.038,165.718,407.775,166.615,404.13Z"/><path d="M624.118,167.3l-1.228,1.479c.341,1.083,1.438.581,2.209.981,1.28.95-.378,2.72,1.079,3.866.472-.052,1.344.12,1.673-.225,4.241-4.453,5.009-2.6,8.775.762a1.722,1.722,0,0,0,1.3.459c8.661.754,12.027,4.137,13,12.678,1.125.137,1.479-1.672,3.071-.972.851,2.8,4.4,4.572,3.617,8.561-.165.833,1.592,2.045,2.462,3.08-3.331,2.775,3.093,6.629-.9,9.326.082,1.779,2.1,2.1,2.48,3.645.442,1.783-.953,2.859-1.409,4.288-1.59,4.991-5.009,9.012-7.481,13.518-2.083,3.8-6.737,5.41-10.309,7.472-1.923-.377-2.536-2.064-3.857-2.846l-1.243,3.15-2.343-3.412c-1.885,1.225-.585,2.895-1.562,4.217h-9.459l-2.593-2.593c-3.3,3.2-6.123.66-9.1-1.215-3.933,3.981-7.934-2.074-11.984.188-1.738-1.915-4.36-2.9-3.942-6.046.046-.347-.337-1.063-.575-1.087-4.7-.48-4.272-5.1-6.094-7.738,1.153-2.877,3.3-5.124,5.6-7.26.507-.472.981-1.4,1.474-1.4,6.168-.028,6.42-5.844,9.142-9.216,2.358-2.923,3.238-6.581,4.226-10.019a42.944,42.944,0,0,0,1.728-10.475c.131-3.915-.088-8.767,5.383-10.36.973-.283,1.7-1.52,2.464-2.385C621.019,166.237,622.453,166.486,624.118,167.3Z"/><path d="M484.888,263.634a16.58,16.58,0,0,1-7.489,1.728,152.118,152.118,0,0,0-15.938.026,24.971,24.971,0,0,1-7.617-.826c-1.794-.469-2.99,2.178-4.434.179-1.178-1.629-3.06-.358-4.477-.882-1.6-.592-2.945-2.084-5.057-1.02-.941.4.614,2.566-1.537,2.391-4.19-.289-1.737-5.727-5.234-6.753l-.837,2.369a1.726,1.726,0,0,1-1.855-1.356c-.408-3.491-2.332-6.691-1.939-10.323a10.909,10.909,0,0,1,.965-3.772c1.849-3.906,3.535-8.122,3.081-12.516-.279-2.7,1.953-4.4,1.65-7.081-.26-2.291-1.242-5.086,1.253-7.036,0-4.161.246-8.339-.061-12.476-.406-5.478,2.806-8.733,6.566-11.706.556-.439,1.759-.061,2.6-.061,1.041,2.295,2.278,4.343,2.179,7.89,1.272-2.487,1.914-3.991,3.235-5.151,1.805-1.587,3.379-2.07,5.278-.311.8.737,1.328,1.869,2.744,1.749,3.988-.338,6.818,1.854,9.127,4.665,2.209,2.69,5.631,4.2,6.166,8.594.387,3.173,3.189,6,4.626,9.108,3.85,8.339,7.745,16.667,11.214,25.167,1.67,4.093-.06,8.224-1.65,12.117C486.717,260.123,485.776,261.813,484.888,263.634Z"/><path d="M521.255,352.749c.208,2.522-.371,5.219.707,6.393,1.769,1.925-2.08,3.12.184,4.606,3.545-2.737,3.381-7.866,6.682-10.759,2.331,1.014,4.619,2.1,5.748,3.77,1.89.326,2.144-.9,3.346-1.422,3.56,1.992,7.9,3.582,10.492,7.163,3.282,4.53,6.382,9.366,6.355,15.371a80.98,80.98,0,0,0,.041,8.32c.9,9.076-1.884,17.467-4.606,25.862a31.646,31.646,0,0,1-5.247,9.541c-1.582.972-3.217.322-5.2.563l-2.871-2.871c-1.942-.239-2.269,2.492-4.106,2.824-1.129.2-1.562-.764-2.264-1.341l-1.571,1.425c-.3-.859-.574-1.665-.851-2.471-.327-.457-.57-.321-.994.185-3.112,3.709-7.329,3.889-11.778,3.527-2.837-1.819-4.494-4.984-8.559-5.965-4.186-1.011-5.9-7.842-3.974-12.034,1.58-3.435,3.5-6.592.748-10.468-.764-1.077-.639-3.4-.021-4.725,1.7-3.653,1.347-7.689,2.64-11.394,1.2-3.444,1.908-7.07,3.254-10.448a9.432,9.432,0,0,0,.967-3.074c.228-4.3,2.744-7.659,4.823-11.168C516.534,351.917,518.843,352.844,521.255,352.749Z"/><path d="M351.351,247.1l-1.475-1.258c-.345.942-.637,1.743-.986,2.695-4.318-1.845-7.831,1.272-11.769,2.006-1.558.29-7.455,1.278-8.982,1.131-.43-.041-1.078-.391-1.242-.223-1.849,1.893-4.258.966-6.367,1.45-1.811.416-3.409-2.438-5.12-.122-3.441-2.842-7.472-.814-11.2-1.307a52.6,52.6,0,0,0-6.865-.055l-2-2c.511-.917,1.842-1.46,1.258-2.976-1.953-1.359-4.383.019-6.476-.854-1.933-1.705-2.932-3.518-.666-5.714.5-.482,1.266-.9,1.427-1.481,1.495-5.426,6.184-5.666,10.441-6.353,4.367-.706,8.121-2.711,11.525-4.226,1.8-4.74-.912-8.426-.994-12.439-.076-3.755.893-7.62-1.219-11.271-.5-.867-.842-2.934.461-3.815,2.168-1.467,1.946-4.762,4.438-5.679a4,4,0,0,1,3.777.853c1.256.941.167,2.93,1.967,3.22,1.413.223,2.089-.9,2.715-1.743a3.1,3.1,0,0,1,3.728-.935,22.272,22.272,0,0,1,4.392,2.6c2.069-2.477,3.638.391,4.682,1.031a31.511,31.511,0,0,1,4.442,2.742c1.39,1.21,2.616,2.607,3.944,3.892a5.114,5.114,0,0,1,1.593,2.835c.183.878,1.1,1.158.273,2.568-.888,1.517,1.86.335,2.445,1.945,2.34,6.441,6.454,12.056,9.048,18.42a5.188,5.188,0,0,1,.214,3.785C357.4,240.328,355.38,244.386,351.351,247.1Z"/><path d="M326.336,40.457c5.987.336,5.987.336,6.966,6.841,3.463-3.233,3.463-3.233,6.984-4.156.993,2.631,2.361,5.189,6.047,4.33a2.53,2.53,0,0,1,1.73.745c2.764,2.34,3.834,6.107,6.872,8.232-.148,4.494,2.9,8.9,1.25,13.238-1.756,4.607-2.2,9.562-4.72,14a63.932,63.932,0,0,1-11.135,15.1c-2.553-.252-5.273-.124-6.735,2.839l-1.6-1.426c-4.51,4.535-5.663,11.575-11.225,15.132-2.193,1.055-3.488-1.757-5.067-1.186-2.071.749-3.421-1.89-5.351-.64-1.679,1.088-3.417.451-4.961.3-1.612-2.106,2.313-3.054.638-4.971-1.242-.257-1.883,1.965-3.561.648-.978-4.573.629-8.711,2.368-13.1,1.887-4.757,4.517-9.455,4.283-14.855-.084-1.937,1.251-3.217,1.97-4.738,2.117-4.479,3.6-9.16,5.3-13.767,2.135-5.792,2.775-12.133,6.232-17.544C323.712,43.77,324.991,42.322,326.336,40.457Z"/><path d="M370.777,423.56c-1.195,1.391.18,3.084-1.225,4.054-1.991.323-3.515-1.19-3.377-2.477.515-4.794-2.658-6.957-5.743-9.36a28.243,28.243,0,0,1-2.463-2.432c-1.272-2.835.668-5.057,1.434-7.506,1.031-.728,2.166-.283,3.262-.289,1.11.589,0,3.026,2.383,2.655,1.562-.537,2.15-2.836,2.157-3.52a23.02,23.02,0,0,1,3-11.316c-2-4.324,1.274-8.032,1.435-12.126.171-4.337,2.345-7.828,5.237-11,1.221-1.336,2.545-.533,3.809-1.03-.092,2.374,2.842,3.122,1.31,7.035,2.5-2.728,2.4-5.6,4.7-5.411,3.7.309,7.968.183,10.843,2.032,2.774,1.785,7.725,2.555,7.387,7.714a1.561,1.561,0,0,0,.554,1.129c5.3,4.109,5.7,10.568,7.691,16.218,1.6,4.523,2.953,9.114,2.932,14.07-.012,2.76-2.853,4.83-1.324,7.536-1.549,2.458-4.415,3.62-4.868,7.2-5.631-4.642-11.174,1.059-16.543-.57-1.234.6-.734,1.735-1.263,2.509a1.723,1.723,0,0,1-2.136.041c-2.315.825-1.017,2.7-2.55,2.957-.752-.445-.517-1.187-.568-1.913-1.414-1.632-3.475-.091-5.091-.96q-1.187-1.185-2.44-2.44c-2.372,1.517-2.794,4.207-4.022,6.739a3.81,3.81,0,0,1-2.347-4.067C373.125,426.988,373.252,424.852,370.777,423.56Z"/><path d="M330.588,554.108c-.842-1.326-.343-2.441-1.407-2.9-1.437,1.5-.05,3.536-.864,5.288l-2.448.246v-6.688c-1.283,3.949-6.994,2.564-7.682,6.648-1.052-1.627-2.651-1.463-4.246-1.324-1.4.971,0,2.673-1.018,3.812-1.484.584-3.052.285-4.652.179-1.087-1.444-.258-3.108-.535-4.66-1.5-1.6-2.83-3.476-5.235-3.938.688-1.131-.212-2.937.164-3.315,1.669-1.678.272-4.564,2.792-5.9,2.329-1.235-.451-4.588,2-6.055-2.658-2.91,1.244-5.435.451-8.478-.722-2.773-.153-5.883-.153-8.661-1.235-.617-1.31.415-1.945.649-1.837.111-.026-2.112-1.4-2.376-.3.2-.787.353-.915.656-1.706,4.038-3.5,8.112-2.375,12.638,1.176,4.741,1.479,4.787-.4,10.74-.535,1.692,2.695,2.253.5,3.94-1.213.933.467,3.291-1.55,4.207.816,1.433,1.037,3.191,2.413,4.311-.258.733-.837.788-1.514.826-2.119.121-3.465-.782-3.911-2.867-.375-1.75.641-3.636-.543-5.328-.848-1.211.629-2.878-.8-4.1a2.02,2.02,0,0,1,0-1.962c2.347-1.811.462-3.348.114-5.184a8.037,8.037,0,0,1,.662-5.894c1.494-2.57.427-5.454-.71-8.232-.639-1.564-2.031-.652-2.667-1.606,1.869-2.3,1.094-4.916,1.05-7.248a1.753,1.753,0,0,0-1.987-.5c-.217,2.07-2.846,3.884-.739,6.2-1.811,1.6-3.082,4.2-6.538,3.265a29.846,29.846,0,0,1,1.281-4.518c.515-1.442,1.372-2.739,1.148-4.359-.26-1.883,2.021-2.973,1.422-4.983-.615-2.061,1.135-2.228,2.33-3.148s-.272-3.452,1.7-4.5c-1.13-.986-2.312-.368-3.469-.529-1.174,1.555-.332,3.754-2.28,5.364-2.856,2.361-2.461,2.744-4.245,9.5a61.149,61.149,0,0,1-2.939,7.285c-3.2-2.335-2.7-5.358-1.492-8.258,1.013-2.433,1.546-5,2.357-7.37.758-2.218.356-5.526,3.444-6.921,2.08-.94,1.686-4.114,3.974-5.095.754.8,1.461,1.794,3.3.911l-2.608-3.231c1.848-1.113,3.436-.9,4.772.856,2.381-3.708,7.406-2.566,9.9-5.6,2.173.063,2.68,1.958,4.115,2.875l.848-2.467c.938-.645,1.847,2.16,3.088-.059.356-.636,2.637-.543,3.888-.218.976.254,1.8,1.315,2.555,2.141,1.083,1.182,2.695-.025,3.847.856-1.528,2.276.377,3.758,1.117,5.4,1.067,2.367,4.748.079,5.895,3.8.056.312-1.962.814-1.23,1.884,2.67,3.9,1.352,9.03,4.091,12.891.219.308-.141,1.008.063,1.347,1.462,2.423-3.756,4.8-.028,7.191,0,2.544.638,5.308-.147,7.58-1.219,3.527-1.2,7.012-1.229,10.574a8.559,8.559,0,0,0,.256,1.447c1.356.226,1.684-1.126,2.381-1.751.485-.435-.314-1.765,1.459-1.973C334.1,543.222,335.027,549.034,330.588,554.108Z"/><path d="M465.928,90.025c.051-1.19.049-1.868-.619-2.3-1.91-1.179-2.3,2.57-4.292,1.133-.481-.156-.613-.495-.3-.806,1.584-1.585,3.967-3.415,1.888-5.609-2.4-2.529,1.457-3.47.709-5.319,2.178-.593,3.925-3.2,6.595-1.441.548.361.886,1.08,2.293.731,5.639-4.441,8.989-11.126,11.562-18.009.884-2.367,2.427-3.641,3.675-5.41,8.231,5.567,8.231,5.567,11.244,4.2,2.527,3.41,5.1,6.844,4.7,11.487a7.353,7.353,0,0,0,1.43,4.966c-2.381,2.939-.4,5.764.661,8.267,1.332,3.15.142,6.288.878,9.334.092.383.62.66,1.055,1.095-1.9,3.019-2.7,6.778-6.357,9.213-3.076-.606-6.707.964-10.216-.778-3.368-1.673-7.224-1.522-10.712-2.579-3.227-.978-6.134-3.017-9.393-4.7-2.939.606-4.684,3.326-6.9,5.263a18.475,18.475,0,0,0-10.895,4.01c-3.448.719-7.254-.974-10.5,1.6l-2.8-3.649c5.693,1.2,5.389.539,13.226-3.067C457.678,95.434,460.636,90.626,465.928,90.025Z"/><path d="M278.85,391.405c-.2,1.751-.325,2.844-.432,3.787-.423.627-.665.5-1.1-.011-.72-.855-1.623-1.452-1.533-2.864.161-2.534-.032-5.089.07-7.629.082-2.057-.062-4.061-1.436-5.65-2.046-2.365-1.059-5.111-1.448-7.554,2.792-2.507,3.789-5.376,4.458-8.861.68-3.546.548-7.343,2.435-10.757.78-1.411.13-3.612.13-5.391,1.449-1.49,3.119-2.713,3.418-4.843H286.3c1.5,1.5-.049,3.572.979,5.225,1.088.467,2.393.758,2.358-.945-.038-1.822,3.214-1.856.675-4.694,4.977,1.048,8.58,2.465,12.008,1.75,2.022.256.759,2.218,2.53,2.971,4.921,2.092,6.79,5.9,7.118,10.951.4,6.12-1.1,11.844-2.808,17.594-1.306,4.394-3.668,7.084-8.656,7.479-4.522.358-6.515,3.129-6.622,7.8-.042,1.823-.007,3.649-.007,5.407-1.4,1-1.395-.8-2.094-.777-1.84-.816-2.439,2.354-4.459,1.092-1.207-.882.394-2.638-.857-3.7-.3.175-.873.348-.876.532-.038,2.014-2.083,3.406-1.634,5.637.121.6-1.09.534-1.769.557-1.291-.747-.709-2.007-.783-3.064-.079-1.123-.018-2.256-.018-2.99C280.728,391.246,279.936,391.716,278.85,391.405Z"/><path d="M193.572,231.307l2.939,1.091a2.229,2.229,0,0,1-.563,2.522,2.8,2.8,0,0,0,.311,4.208c2.736,2.343,2.271,4.269-.069,6.818a5.553,5.553,0,0,0-1.069,6.334c-1.272,1.894-2.774-1.119-3.453-.462-1.661,1.607-3.469.807-5.2.956-1.606.139-3.234.03-4.853.03h-5.052c-1.535-2-3.607-3.9-4.595-6.25a42.605,42.605,0,0,1-1.9-5.5c-.573-2.187,2.629-3.086.759-5.423-1.046-1.306-.482-3.9-.646-5.913-3.217-2.631-8.661-.765-10.771-5.509l1.13-1.13c-.752-1.144-2.706-1.061-3.113-3.031-.216-1.045-.5-3.172-2.1-3.846l1.647-3.427c.289.171.833.323.859.538.111.908-.183,1.94.15,2.724s1.238,1.337,1.882,1.981c1.092-.389.6-1.489,1.044-2.3,1.57.243,3.345,2.676,4.628-.8.512,1.348.815,2.145,1.228,3.23,1-.094,2.486.222,3.087-.368,3.046-2.988,6.766-5.527,8.344-9.678,1.2-3.165,3.719-4.823,5.892-7.061,2.1,1.362,2,3.033,1.075,4.209-1.182,1.5-1.187,2.777-.323,4.675,1.266-1.4,2.747-2.513,3.477-3.993.836-1.694,1.44-3.2,3.613-3.071,1.392,1.611.147,3.625.788,5.264,1.792.052,1.029-1.148,1.291-1.906,1.7-1.2,3.388-1.063,4.637.679,1.014,1.414,1.392,3.245,2.969,4.32a2.51,2.51,0,0,1,.589,3.143c-1.914,4.134-2.626,8.628-3.937,12.923C197.524,229.734,196.022,230.315,193.572,231.307Z"/><path d="M554.828,87.645c1.388-.027,1.584,1.544,2.788,1.9l-1.424,1.587a1.494,1.494,0,0,0,1.721.673c1.566-.438,1.954-2.515,3.854-2.775,2.01.129,2.99,2.2,4.776,3.109,4.553,2.319,7.136,11.244,5.58,16.329a18.73,18.73,0,0,0,.408,12.277c-.126.624-1.261,0-2.008.448-1.559,2,.185,3.588.942,5.335-.49,1.946-2.516,2.583-3.358,4.206-2.058-1.729-3.894-2.609-6.727-1.578-2.485.9-3.568-1.989-5.148-3.322l1.223-1.521c-1.779-1.471-2.665-.039-3.454.945-1.49,1.859-.973,5.072-4.321,5.8-1.078.234-.357,2.068-.441,3.162a3.545,3.545,0,0,1-3.219,3.481c-1.969-.992-.027-3.257-1.664-4.23-3.2,2.341-1.76,7.6-6.342,9.8,1.3-4.538,2.783-8.527,3.526-12.65.749-4.157,4.92-7.445,2.979-12.808-2.651,5.288-4.038,10.495-5.892,15.586a13.277,13.277,0,0,1,.746-8.257c2.294-5.509,3.806-11.342,5.69-17.024,1.007-3.039,2-6.095,3.251-9.034a9.577,9.577,0,0,0,.951-2.388C550.063,91.707,550.373,91.305,554.828,87.645Z"/></svg>