<?xml version="1.0" encoding="UTF-8"?><svg id="Layer_0_Image" data-name="Layer 0 Image" xmlns="http://www.w3.org/2000/svg" viewBox="0 0 800 600" x="0px" y="0px" 
width="800px" height="200px" xmlns:xlink="http://www.w3.org/1999/xlink" version="1.1"><title>1</title><path d="M476.707,119.552l-2.334,2.335c-4.4-.49-8.939-1.193-13.5-1.45-4.518-.253-9.062-.055-13.595-.055-3.578,0-7.491-.912-10.646.244-3.506,1.285-7.337-.048-10.1,1.438-3.207,1.726-7.069-.239-9.683,2.613-5.42-.531-9.921,2.813-14.924,3.6-5.631.884-10.682,3.078-15.849,5.047-5.97,2.275-12.135,4-17.86,7.01-4.079,2.143-8.477,3.773-12.709,5.585-7.528,3.222-14,7.888-20.583,12.456-3.6,2.5-6.731,5.675-10.082,8.535-3.169,2.707-6.709,5.079-9.462,8.157-9.734,10.885-20.064,21.359-26.379,34.846-4.341,3.9-6.091,9.48-8.271,14.471s-5.424,9.737-5.99,15.405c-4.778,7.865-6.67,16.864-9.286,25.471-2.059,6.779-5.114,13.486-5.03,20.844-2.6,2.146-1.116,5.526-2.528,8.283a17.14,17.14,0,0,0-1.837,9.987c.476,3.424-1.981,6.5-1.469,10.147A20.673,20.673,0,0,1,253.473,324c-1.034,3.118.128,6.811-1.511,10.137-.4.8,1.067,2.374,1.218,3.647.1.882-1.142,2.272-.811,2.723,1.935,2.649.3,5.544.9,7.744l-2.753,5.146,3.113,1.663c0,9.44-.012,18.2.042,26.955,0,.339.632.675.977,1.019l-1.385,1.525c1.179,4.568,2.968,8.964,2.95,13.843a31.542,31.542,0,0,0,1.381,7.986c1.424,5.4,2.57,10.907,3.58,16.354,1.139,6.148,4.382,11.147,6.919,16.5,2.506,5.284,5.958,9.929,11.356,13.161,7.448,4.46,14.735,9.228,22.6,12.882,3.759,1.746,7.886,3.041,11.638,4.7,3.931,1.736,8.122,2.49,12.053,3.645a61.625,61.625,0,0,0,11.472,1.749c3.184.285,6.291.06,9.487,1.309,2.858,1.116,6.511-.821,9.375,1.581.14.117.464.016.7.015,11.753-.082,23.5,3.073,35.157,1.218,7.884-1.254,16.186-1.344,23.54-5.239,11.384-1.43,21.233-7.668,32.235-10.3,3.013-2.857,7.277-3.175,10.7-5.3,3.351-2.081,7.235-3.28,10.716-5.178,12.3-6.7,24.663-13.3,36.411-20.977,2.288-1.5,3.913-3.663,6.5-4.974,3.211-1.625,5.929-4.381,8.558-6.957,2.458-2.408,5.059-4.631,6.766-7.888,1.681-3.207,4.888-5.411,7.14-8.445,5.254-7.077,10.812-14,14.291-22.059,2.163-5.01,4.232-10.188,6.075-15.392,1.78-5.023,2.394-10.324,4.508-15.292,1.636-3.842,1.236-8.564,1.665-12.9.522-5.285,1.157-10.569,1.389-15.869a137.439,137.439,0,0,0-.039-16.452,107.967,107.967,0,0,0-2.417-16.112,56.381,56.381,0,0,1-1.676-9.318c-.277-4.87-2.278-9.075-4.089-13.374-3.6-8.55-8.831-16-14.4-23.461-6.149-8.239-14.98-13.272-21.541-20.875-2.738-3.174-6.666-5.483-10.388-7.595-2.831-1.606-6.259-1.934-9.32-3.4-3.751-1.8-7.994-2.562-12.017-3.8-.415-.127-.764-.571-1.169-.612-5.047-.513-10.095-1.025-15.152-1.43a24.8,24.8,0,0,0-5.713.043c-1.564.242-2.948-2.335-4.5-.184-2.514-1.933-4.825.943-7.486.257-2.333-.6-4.81.19-7.321,1.07-2.872,1.008-6.349-.105-9.375,1.606a51.83,51.83,0,0,1-6.142,2.534l-2.309-2.31c-.294.22-.866.462-.852.663a4.581,4.581,0,0,1-2.818,4.962c-3.958,2.054-7.674,4.574-11.718,7.037l-3.389-1.935c-.278,1.105-.595,2.362-.832,3.3l1.711.827c-3.47,3.41-6.911,6.68-10.227,10.072a119.743,119.743,0,0,0-19.74,26.886c-2.738,5.063-5.678,10.043-8.033,15.282a208.9,208.9,0,0,0-8.1,19.553c-1.608,4.828-3.374,9.584-4.881,14.457-.937,3.028-.392,6.115-1.86,9.238-1.756,3.734-.713,8.681-1.875,12.824-1.356,4.835-1.136,9.626-1.354,14.473-.067,1.491-.89,2.947-1.386,4.481l1.375,1.544-.817.922a38.09,38.09,0,0,1,.845,5.713c0,5.525,1.444,10.744,2.892,16,2.277,8.259,7.991,13.67,15.481,16.614,8.785,3.453,18.071,5.076,27.581,6.244,7.753.952,15.4.463,22.985,1.168,3.56-2.527,7.782-3.431,11.428-5.627,1.223-.736,2.8-1.151,4.066-2.216,5.282-4.455,11.058-8.257,16.181-12.986,2.293-2.117,4.969-4.077,7.305-6.288,7.348-6.953,11.937-15.625,15.224-25.049,1.093-3.135,1.315-6.756,3.046-9.437,2.007-3.108-.078-7.018,2.7-9.654.477-5.766,1.492-11.555,1.249-17.291-.172-4.062-1.637-8.093-1.274-12.3.081-.927-4.857-12.246-5.956-13.24-2.383-2.156-4.966-4.089-7.467-6.113-2.476,1.343-4.457-2-7.459-.371a13.124,13.124,0,0,1-8.992.819c-3.121-.871-.994,1.628-2.043,2.126-8.482,4.027-13.9,11.98-21.534,17.129-.373.251-.623.686-.24.251-.882,3.064-.92,5.69-2.226,7.261-3.825,4.606-4.678,10.543-7.608,15.512a10.677,10.677,0,0,0-.856,3.925c-.389,2.92.913,6.058-1.379,8.767-.471.556-.253,1.895-.034,2.8.62,2.545,1.406,5.05,2.257,8.028,9.336-6.355,12.763-16.907,19.515-24.745h5.218L440,328.632c2.185-.932,3.247-1.129,3.954-1.738,1.621-1.4,3.068-3,4.671-4.6,2.121,1.419,3.259,3.805,5.246,5.465,1.852,1.549,2.452,4.6,4.189,8.195.071,5.34-4.432,10.659-5.8,16.955-2.582,1.7-5.5,2.711-5.943,6.785-.265,2.413-2.672,4.591-3.76,6.311-3.065,1.368-5.547.137-8.114,1.673-3.595,2.153-7.441-1.686-11.385-1.059-5.566-3.686-12.194-5.1-17.875-8.8-4.274-2.781-6.937-6.576-9.809-10.311-1.99-2.587-2.936-5.95-4.7-8.745-1.741-2.761-1.743-6.038-2.524-8.94a31.713,31.713,0,0,1-.13-14.191c1.339-6.47,2.519-13.061,5.483-19.166A79.094,79.094,0,0,1,407.738,275.9c5.474-5.674,10.983-11.256,17.947-15.329,4.512-2.639,9.552-3.471,14.163-5.6,2.162-1,4.155,1.517,6.773.164,1.883-.973,4.692-.375,7.054-.138,2.45.247,5.737.082,7.106,1.547,3.056,3.273,8.38,1.409,10.722,5.48,4.561.007,7.373,3.384,10.407,5.891,7.75,6.4,15.841,12.642,19.518,22.608.535,1.45,1.016,2.919,1.516,4.362l1.9.422c1.06,3.968,2.09,7.829,3.147,11.789-.179.229-.461.59-.979,1.25l3.067,4.864-4.662.742c-.044.717-.083,1.363-.14,2.285h3.2l.811.743c-1.982,1.815,1.227,3.468.216,5.141-2.366,3.914-.914,8.212-1.46,12.3a48.436,48.436,0,0,1-2.074,9.152c-.635,1.869-2.1,3.455-3.186,5.151,2.948,4.349-2.57,8.618-.7,13.312l-1.907.4L495.184,373.3v4.793c-1.59,3.832-3.405,6.682-7.078,7.725v3.159c-3.935,3.861-7.724,8.235-12.228,11.672-1.788,1.364-3.538,2.848-5.346,4.224-1.619,1.231-3.522,2.161-4.926,3.591-4.689,4.772-10.634,7.615-16.441,10.491-8.136,4.03-19.761,5.822-28.716,4.846-3.263-.355-6.424-1.643-10.011-2.607-.781.3-2.188,1.432-3.221,1.157-11.368-3.018-23.065-4.425-34.107-9.209-8.23-3.566-16.207-7.485-23.317-12.644a52.661,52.661,0,0,1-13.4-14.32c-4.191-6.59-8.431-13.079-10.567-20.692-.174-.622-.853-1.127-.953-1.742a73.374,73.374,0,0,1-1.4-10.138c-.191-9.3-.492-18.633.1-27.9.34-5.336,1.5-10.724,2.407-16.051.87-5.131,2.075-10.155,3.046-15.246,1.1-5.737,3.3-11.06,5.186-16.49,1.513-4.359,2.867-8.97,5.125-12.87,3.9-6.733,6.472-14.064,10.686-20.716,4.039-6.375,7.808-12.988,12.066-19.264a64.253,64.253,0,0,1,7-9.238c6.605-6.7,12.738-13.958,20.623-19.257,6.821-4.583,13.489-9.177,21.494-12.054,7.967-2.865,15.82-4.981,24.207-5.5,1.5-.092,2.948-.9,4.494-1.4l1.552,1.352,1.007-.838a18.072,18.072,0,0,1,4.146,1c1.731.869,2.642-2.01,4.8-.487,1.449,1.023,4.1.288,6.211.444,1.79.133,3.859-.775,5.2,1.252,2.053-3.031,3.917.582,5.9.168,2.619-.545,4.894.676,7.289,1.392,2.139.639,4.366.988,6.553,1.466s4.622.5,6.521,1.511c8.008,4.284,17.6,5.609,23.988,12.739,4.849-.14,7.854,3.4,11.29,5.738,12.3,8.377,22.617,19.06,32.678,29.87,9.853,10.585,18.084,22.543,23.2,36.141,2.712,7.213,5.781,14.387,6.793,22.3.649,5.08,2.129,10.165,2.551,15.311.428,5.213.094,10.489.094,15.737,0,3.817.035,7.634-.009,11.451-.045,3.877.264,7.638-2.18,11.3-1.407,2.11-1.062,5.388-1.506,8.14,2.743,1.51-2.435,4.193.684,5.56l-6.105,11.862a10.881,10.881,0,0,0-1.74-1.519c-.35-.192-.914,0-1.633.037-.484,1.761,1.567,1.929,2.231,3.639v5.827l-2.5,2.5,1.106,1.432c-3.022,3.04-3.4,7.469-5.511,11.052-2.391,4.062-4.522,8.3-7.867,11.232l-6.016-1.6-.348,1.032,3.087,1.344-3.552,2.432.512.967,3.817-.853c.107.857.259,2.066.419,3.336l-3.064,1.12c.3,1.409.605,2.874,1.061,5.04l-6.438,3.684-3.562,8.019.644.381c-5.206,5.206-10.052,10.848-15.709,15.5A230.551,230.551,0,0,1,514,461.039c-10.493,6.779-21.24,13.169-31.973,19.565-1.272.758-3.142.515-5.057.78-2.382,4.332-7.6,4.917-11.643,7.29-3.773,2.215-8.032,3.6-12.257,5.434l-1.414-2.845c-2.358,5.744-8.363,5.829-13.095,8.142l-2.813-1.574c-.372,1.216-.62,2.028-.869,2.84-.17.167-.4.513-.5.479-2.941-.967-5.429.9-7.96,1.607-12.121,3.372-24.483,2.286-36.778,2.844-9.448.428-18.684-1.277-28.029-1.76a50.246,50.246,0,0,1-10.793-1.486c-3.479-.987-6.94-.444-10.181-1.305-4.106-1.091-8.215-2.058-12.355-3a113.1,113.1,0,0,1-13.356-3.983c-4.361-1.584-8.866-2.773-13.225-4.363s-8.527-3.624-12.886-5.166c-12.724-4.5-23.428-12.629-34.965-19.261-5.255-6.032-11.538-11.017-16.536-17.41A170.36,170.36,0,0,1,226.7,432.115c-3.557-5.771-5.89-12.326-7.791-18.923-2-6.925-3.841-13.872-4.351-21.118-.139-1.973-.965-3.89-1.363-5.855s.87-4.3-1.31-5.928c-.245-.183-.111-.886-.138-1.348-.479-8.152-1.146-16.3-1.38-24.457-.239-8.343-.086-16.7,0-25.047.008-.768.807-1.529,1.238-2.292l-1.424-1.6c.518-1.207,1.607-2.491,1.468-3.625-.867-7.086,1.819-13.871,1.565-20.89-.064-1.776-.782-3.866,1.285-5.175-2.226-1.552.345-2.949.2-4.5-.162-1.744-.339-3.473.845-5.357,1.523-2.423-.464-6,1.923-8.478.032-7.575,3.568-14.289,5.188-21.46a87.246,87.246,0,0,1,5.532-15.626c1.829-4.207,2.846-8.783,4.487-13.159a322.178,322.178,0,0,1,13.572-30.159c3.258-6.553,8.152-12.264,11.441-18.89,4.319-2.049,5.176-6.966,8.3-10.161,3.193-3.266,6.059-7.015,9.331-10.323,3.356-3.392,6.623-6.884,10.145-10.095,5.755-5.246,12.316-9.55,18.205-14.565,5.951-5.069,12.83-8.444,19.281-12.5,6.085-3.821,13.079-6.462,19.987-8.615,4.863-1.517,9.4-3.86,14.453-4.943,6.273-1.344,12.356-3.549,18.565-5.221,2.6-.7,5.981-.172,7.83-1.662,2.77-2.23,6.035.043,8.534-2.08,2.18-1.851,5.722.91,7.755-2.008.078-.112.463-.05.694-.009,5.895,1.056,11.443-1.753,17.3-1.492,5.714.254,11.613-.8,17.137.251,8.919,1.7,18.209,1.8,26.515,6.8,6.255,3.764,11.552,7.893,14.354,14.725A15.943,15.943,0,0,1,476.707,119.552Z"/></svg>