<?xml version="1.0" encoding="UTF-8"?><svg id="Layer_0_Image" data-name="Layer 0 Image" xmlns="http://www.w3.org/2000/svg" viewBox="0 0 800 600" x="0px" y="0px" 
width="800px" height="200px" 
xmlns:xlink="http://www.w3.org/1999/xlink" version="1.1"><title>1</title><path d="M296.1,424.166c-3.906,7.024-4.9,14.959-6.1,22.61-3.183,20.294-5.427,40.749-4.167,61.348,1.049,17.142,1.549,34.339,4.289,51.35.965,5.988.824,6-5,6.779a2.757,2.757,0,0,0-1.2.737c-3.31,2.782-7.833,1.56-9.514-2.7-5-12.676-7.686-25.964-10.105-39.3-4.272-23.55-4.253-47.283-1.774-70.957a332.376,332.376,0,0,1,7.251-42.655c5.553-23.222,11.8-46.182,23.835-67.083a238.8,238.8,0,0,1,61.876-70.965c23.636-18.18,50.277-31.714,74.59-48.694,48.73-34.032,76.778-79.468,71.5-141.138-1.1-12.8-3.891-25.452-5.742-38.2-.739-5.085.33-9.646,5.179-12.56,4.258-2.559,10.212-1,15.983,3.7,6.415,5.233,9.63,12.4,12.058,19.854a199.03,199.03,0,0,1,9.817,49.834c2.3,38.4-9.275,71.651-35.231,100.3-21.641,23.883-47.395,41.622-76.168,55.642-20.282,9.883-38.488,23.18-56.624,36.52-13.906,10.229-25.3,22.984-36.163,36.131a87.441,87.441,0,0,0-14.206,23.751,14.427,14.427,0,0,1-1.718,2.606c-1.9-.567.372-1.92-.8-2.617-6.28,8.557-8.783,18.861-13.1,28.312-.845,1.847-1.009,1.114-3.527,2.048-2.358.875-3.7,3.774-2.763,7.18,1.708-1.36,1.156-3.73,3.937-4.784-.01,5.12-1.847,9.442-2.82,13.883-1.291,5.9-3.952,11.517-3.552,17.752ZM310.456,331.6c-27.613,31.04-48.378,118.7-43.373,159.6,2.688-28.218,5.355-55.676,12.02-82.516C285.851,381.518,295.274,355.394,310.456,331.6Zm155.61-125.857c8.886-7.683,17.221-15.829,22.356-26.67C481.044,188.025,473.3,196.672,466.066,205.743Zm44.222-12.853a39.753,39.753,0,0,0,10.488-16.129ZM268.9,521.276c-.315,3.832.773,7.357,2.155,11.334C275.491,527.431,267.993,525.219,268.9,521.276Z"/><path d="M306.173,196.58c-4.644,0-9.292.112-13.931-.041a13.345,13.345,0,0,1-7.769-3.348,4.462,4.462,0,0,1-1.83-4.739c.67-2.608,2.175-.8,3.564-.849,26.88-.907,53.425-5,80.032-8.549a141.2,141.2,0,0,1,18.688-.9c1.95,0,5.025-.409,5.195,3.183.144,3.054-2,3.94-4.333,4.573-12.108,3.283-24.574,4.59-36.923,6.485C334.728,194.568,320.452,195.522,306.173,196.58Z"/><path d="M445.466,136.762c-2.9-.691-6.072-2.223-7.805-5.232a473.781,473.781,0,0,1-22.916-44.854c-1.792-4.055-.338-3.3,3.565-4.8,9.538-3.656,11.753,3.908,15.629,8.776a96.727,96.727,0,0,1,15.491,28.658c.943,2.7,1.992,5.367,3.051,8.025C455.414,134.7,454.253,136.4,445.466,136.762Z"/><path d="M423.153,152.087c-7.614,4.524-13.653.613-20.1-2.333-12.1-5.529-22.827-13.258-33.94-20.376-2.02-1.293-5.335-2.781-4.417-5.278.9-2.447,4.529-1.941,7.073-1.993,3.764-.079,6.809,2.2,9.836,3.928,12.7,7.226,25.225,14.753,37.786,22.217C420.872,149.133,422.525,149.966,423.153,152.087Z"/></svg>