<?xml version="1.0" encoding="UTF-8"?><svg id="Layer_0_Image" data-name="Layer 0 Image" xmlns="http://www.w3.org/2000/svg" viewBox="0 0 800 600" x="0px" y="0px" 
width="800px" height="200px"
 xmlns:xlink="http://www.w3.org/1999/xlink" version="1.1"><title>1</title><path d="M468.07,27.568c13.259-4.041,24.619-4.051,31.187,9.816,2.868,6.054.745,17.41-4.314,22.637,6.488-1.232,10.049.2,10.982,7.6.769,6.1,4.97,11.724,6.1,17.844,4.554,24.7,8.071,49.634.841,74.342-1.854,6.337-9.614,11.143-3.776,18.984-4.321,17.3-8.576,34.646-17.842,50.158-2.214,3.706-5.2,6.955-7.887,10.375-11.346,14.459-22.67,28.935-34.156,43.281-.771.963-2.894.74-4.248,1.371a20.473,20.473,0,0,0-3.234,2.315c5.009,6.5-2.526,8.521-4.989,10.428-7.424,5.749-15.927,10.105-24.018,14.989-.942.568-2.4.8-2.837,1.6-4.781,8.873-11.365,14.6-21.914,16.289-3.723.6-6.757,5.49-11.186,7-.634,2-.661,4.645-2,5.9-13.946,13.115-28.1,26.007-42.41,39.152.711,7.594-9.026,23.3-17.018,25.744l3.108,2c-1.122,4.44-3,8.388-2.965,12.319.179,20.049.735,39.843,8.558,59.116,8.016,19.749,13.19,40.635,20.6,60.658,2.623,7.093,7.913,13.287,12.458,19.547,2.679,3.691,3.506,6.132-1.052,8.887-12.155,7.35-21.066,6.937-28.791-5.451-10.442-16.743-20.835-34.17-27.083-52.708-7.709-22.875-12.118-47.028-16.151-70.933-4.331-25.661,7.3-47.063,22.327-66.7a232.485,232.485,0,0,1,59.024-53.969c27.54-17.831,50.289-40.894,70.778-66.44,21.467-26.765,37.015-56.39,44.617-89.812,5.808-25.535,8.056-51.338,1.175-77.244-5-18.807-9.494-37.746-14.162-56.639A7.464,7.464,0,0,1,468.07,27.568Zm22.616,128.557-21.945,62.712A138.518,138.518,0,0,0,490.686,156.125ZM295.1,455.3V404.964C288.589,422.457,288.867,438.943,295.1,455.3Z"/><path d="M412.712,143.812c-12.137,6.738-15.4,6.469-24.674-2.647-9.9-9.735-19.336-19.947-29.008-29.917-1.577-1.626-3.56-2.9-4.95-4.656-2.438-3.082-4.562-6.412-6.817-9.638,4.553-.72,9.418-2.781,13.578-1.813a29.791,29.791,0,0,1,13.874,7.692C387.515,115.9,399.65,129.61,412.712,143.812Z"/><path d="M319.763,230.28c-10.283-2.644-21.015-5.082-31.486-8.352-2.244-.7-3.548-4.412-5.285-6.737,2.294-1.607,4.4-3.729,6.936-4.675a18.506,18.506,0,0,1,8.313-.923c12.4,1.445,24.761,3.166,37.123,4.888a22.47,22.47,0,0,1,6.548,1.759c1.373.657,3.31,2.422,3.168,3.433-.228,1.612-1.693,3.881-3.132,4.35C335,226.291,327.876,228.051,319.763,230.28Z"/><path d="M426.346,489.47c-5.982,7.032-11.1,7.442-16.312,3.2-7-5.7-14.075-11.408-20.384-17.832-2.02-2.057-1.712-6.4-2.469-9.7,4.738-.45,11.275-3.094,13.888-.952C410.137,471.62,417.841,480.716,426.346,489.47Z"/><path d="M463.444,438.842c-17.531,7.644-29.667-5.175-43.575-10.138-1.273-.455-2.649-4.977-2.1-5.464,2.762-2.423,7.224-6.544,9.15-5.691,12.221,5.412,23.94,11.96,35.771,18.233C463.162,436.029,463.091,437.291,463.444,438.842Z"/><path d="M361.393,166.593c-4.26.546-8.984,2.545-12.689,1.359-10.164-3.253-20-7.634-29.729-12.074-2.072-.945-3.166-4.034-4.711-6.136,2.539-1.332,5.45-4.222,7.552-3.721a170.8,170.8,0,0,1,24.792,7.9c5.512,2.248,10.434,5.942,15.62,8.99Z"/><path d="M460.275,354.814c-1.331,3.02-1.526,4.632-2.428,5.328-9.438,7.28-18.756,14.765-28.66,21.364-2.811,1.874-7.422,1.047-11.459.057C430.145,370.162,441.29,357.671,460.275,354.814Z"/></svg>